<svg width="24" height="24" viewBox="0 0 24 24" fill="none" xmlns="http://www.w3.org/2000/svg">
<path d="M1.3999 7.0079C1.3999 7.56019 1.84762 8.0079 2.3999 8.0079C2.95219 8.0079 3.3999 7.56019 3.3999 7.0079H2.3999H1.3999ZM7.0079 3.3999C7.56019 3.3999 8.0079 2.95219 8.0079 2.3999C8.0079 1.84762 7.56019 1.3999 7.0079 1.3999V2.3999V3.3999ZM16.9919 1.3999C16.4396 1.3999 15.9919 1.84762 15.9919 2.3999C15.9919 2.95219 16.4396 3.3999 16.9919 3.3999V2.3999V1.3999ZM17.7599 2.3999V1.3999V2.3999ZM21.5999 6.2399H20.5999V6.2399H21.5999ZM20.5999 7.0079C20.5999 7.56019 21.0476 8.0079 21.5999 8.0079C22.1522 8.0079 22.5999 7.56019 22.5999 7.0079H21.5999H20.5999ZM6.56301 19.619C6.95353 19.2285 6.95353 18.5953 6.56301 18.2048C6.17248 17.8143 5.53932 17.8143 5.14879 18.2048L5.8559 18.9119L6.56301 19.619ZM2.4608 20.8928C2.07027 21.2833 2.07027 21.9165 2.4608 22.307C2.85132 22.6975 3.48448 22.6975 3.87501 22.307L3.1679 21.5999L2.4608 20.8928ZM20.1248 22.307C20.5153 22.6975 21.1485 22.6975 21.539 22.307C21.9295 21.9165 21.9295 21.2833 21.539 20.8928L20.8319 21.5999L20.1248 22.307ZM18.851 18.2048C18.4605 17.8143 17.8273 17.8143 17.4368 18.2048C17.0463 18.5953 17.0463 19.2285 17.4368 19.619L18.1439 18.9119L18.851 18.2048ZM9.70701 11.8928C9.31648 11.5023 8.68332 11.5023 8.29279 11.8928C7.90227 12.2833 7.90227 12.9165 8.29279 13.307L8.9999 12.5999L9.70701 11.8928ZM10.7999 14.3999L10.0928 15.107C10.4833 15.4975 11.1165 15.4975 11.507 15.107L10.7999 14.3999ZM15.707 10.907C16.0975 10.5165 16.0975 9.88332 15.707 9.49279C15.3165 9.10227 14.6833 9.10227 14.2928 9.49279L14.9999 10.1999L15.707 10.907ZM2.3999 7.0079H3.3999V6.2399H2.3999H1.3999V7.0079H2.3999ZM6.2399 2.3999V3.3999H7.0079V2.3999V1.3999H6.2399V2.3999ZM2.3999 6.2399H3.3999C3.3999 4.67141 4.67141 3.3999 6.2399 3.3999V2.3999V1.3999C3.56684 1.3999 1.3999 3.56684 1.3999 6.2399H2.3999ZM16.9919 2.3999V3.3999H17.7599V2.3999V1.3999L16.9919 1.3999V2.3999ZM21.5999 6.2399H20.5999V7.0079H21.5999H22.5999V6.2399H21.5999ZM17.7599 2.3999V3.3999C19.3284 3.3999 20.5999 4.67141 20.5999 6.2399H21.5999H22.5999C22.5999 3.56684 20.433 1.3999 17.7599 1.3999V2.3999ZM5.8559 18.9119L5.14879 18.2048L2.4608 20.8928L3.1679 21.5999L3.87501 22.307L6.56301 19.619L5.8559 18.9119ZM20.8319 21.5999L21.539 20.8928L18.851 18.2048L18.1439 18.9119L17.4368 19.619L20.1248 22.307L20.8319 21.5999ZM20.4479 12.7679H19.4479C19.4479 16.8813 16.1133 20.2159 11.9999 20.2159V21.2159V22.2159C17.2179 22.2159 21.4479 17.9859 21.4479 12.7679H20.4479ZM11.9999 21.2159V20.2159C7.88648 20.2159 4.5519 16.8813 4.5519 12.7679H3.5519H2.5519C2.5519 17.9859 6.78192 22.2159 11.9999 22.2159V21.2159ZM3.5519 12.7679H4.5519C4.5519 8.65448 7.88648 5.3199 11.9999 5.3199V4.3199V3.3199C6.78192 3.3199 2.5519 7.54991 2.5519 12.7679H3.5519ZM11.9999 4.3199V5.3199C16.1133 5.3199 19.4479 8.65448 19.4479 12.7679H20.4479H21.4479C21.4479 7.54991 17.2179 3.3199 11.9999 3.3199V4.3199ZM8.9999 12.5999L8.29279 13.307L10.0928 15.107L10.7999 14.3999L11.507 13.6928L9.70701 11.8928L8.9999 12.5999ZM10.7999 14.3999L11.507 15.107L15.707 10.907L14.9999 10.1999L14.2928 9.49279L10.0928 13.6928L10.7999 14.3999Z" fill="#1D1D20" style="fill:#1D1D20;fill:color(display-p3 0.1148 0.1148 0.1252);fill-opacity:1;"/>
</svg>
