<svg width="24" height="24" viewBox="0 0 24 24" fill="none" xmlns="http://www.w3.org/2000/svg">
<path d="M9.70691 11.8928C9.31639 11.5023 8.68322 11.5023 8.2927 11.8928C7.90217 12.2833 7.90217 12.9165 8.2927 13.307L8.9998 12.5999L9.70691 11.8928ZM10.7998 14.3999L10.0927 15.107C10.4832 15.4975 11.1164 15.4975 11.5069 15.107L10.7998 14.3999ZM15.7069 10.907C16.0974 10.5165 16.0974 9.88332 15.7069 9.49279C15.3164 9.10227 14.6832 9.10227 14.2927 9.49279L14.9998 10.1999L15.7069 10.907ZM6.56291 19.619C6.95344 19.2285 6.95344 18.5953 6.56291 18.2048C6.17239 17.8143 5.53922 17.8143 5.1487 18.2048L5.8558 18.9119L6.56291 19.619ZM2.4607 20.8928C2.07017 21.2833 2.07017 21.9165 2.4607 22.307C2.85122 22.6975 3.48439 22.6975 3.87491 22.307L3.16781 21.5999L2.4607 20.8928ZM20.1247 22.307C20.5152 22.6975 21.1484 22.6975 21.5389 22.307C21.9294 21.9165 21.9294 21.2833 21.5389 20.8928L20.8318 21.5999L20.1247 22.307ZM18.8509 18.2048C18.4604 17.8143 17.8272 17.8143 17.4367 18.2048C17.0462 18.5953 17.0462 19.2285 17.4367 19.619L18.1438 18.9119L18.8509 18.2048ZM5.50691 3.10701C5.89744 2.71649 5.89744 2.08332 5.50691 1.6928C5.11639 1.30227 4.48322 1.30227 4.0927 1.6928L4.79981 2.3999L5.50691 3.10701ZM1.0927 4.69279C0.702174 5.08332 0.702174 5.71648 1.0927 6.10701C1.48322 6.49753 2.11639 6.49753 2.50691 6.10701L1.7998 5.3999L1.0927 4.69279ZM21.4927 6.10701C21.8832 6.49753 22.5164 6.49753 22.9069 6.10701C23.2974 5.71648 23.2974 5.08332 22.9069 4.6928L22.1998 5.3999L21.4927 6.10701ZM19.9069 1.6928C19.5164 1.30227 18.8832 1.30227 18.4927 1.6928C18.1022 2.08332 18.1022 2.71648 18.4927 3.10701L19.1998 2.3999L19.9069 1.6928ZM8.9998 12.5999L8.2927 13.307L10.0927 15.107L10.7998 14.3999L11.5069 13.6928L9.70691 11.8928L8.9998 12.5999ZM10.7998 14.3999L11.5069 15.107L15.7069 10.907L14.9998 10.1999L14.2927 9.49279L10.0927 13.6928L10.7998 14.3999ZM5.8558 18.9119L5.1487 18.2048L2.4607 20.8928L3.16781 21.5999L3.87491 22.307L6.56291 19.619L5.8558 18.9119ZM20.8318 21.5999L21.5389 20.8928L18.8509 18.2048L18.1438 18.9119L17.4367 19.619L20.1247 22.307L20.8318 21.5999ZM20.4478 12.7679H19.4478C19.4478 16.8813 16.1132 20.2159 11.9998 20.2159V21.2159V22.2159C17.2178 22.2159 21.4478 17.9859 21.4478 12.7679H20.4478ZM11.9998 21.2159V20.2159C7.88639 20.2159 4.55181 16.8813 4.55181 12.7679H3.55181H2.55181C2.55181 17.9859 6.78182 22.2159 11.9998 22.2159V21.2159ZM3.55181 12.7679H4.55181C4.55181 8.65448 7.88639 5.3199 11.9998 5.3199V4.3199V3.3199C6.78182 3.3199 2.55181 7.54991 2.55181 12.7679H3.55181ZM11.9998 4.3199V5.3199C16.1132 5.3199 19.4478 8.65448 19.4478 12.7679H20.4478H21.4478C21.4478 7.54991 17.2178 3.3199 11.9998 3.3199V4.3199ZM4.79981 2.3999L4.0927 1.6928L1.0927 4.69279L1.7998 5.3999L2.50691 6.10701L5.50691 3.10701L4.79981 2.3999ZM22.1998 5.3999L22.9069 4.6928L19.9069 1.6928L19.1998 2.3999L18.4927 3.10701L21.4927 6.10701L22.1998 5.3999Z" fill="#1D1D20" style="fill:#1D1D20;fill:color(display-p3 0.1148 0.1148 0.1252);fill-opacity:1;"/>
</svg>
