<svg width="24" height="24" viewBox="0 0 24 24" fill="none" xmlns="http://www.w3.org/2000/svg">
<path d="M2.3999 7.0079V6.2399C2.3999 5.37527 2.68567 4.57738 3.1679 3.93553M16.9919 2.3999L17.7599 2.3999C19.8807 2.3999 21.5999 4.11913 21.5999 6.2399V7.0079M5.8559 18.9119L3.1679 21.5999M20.8319 21.5999L3.5519 3.49759M9.5999 4.66568C10.3607 4.44067 11.1662 4.3199 11.9999 4.3199C16.6656 4.3199 20.4479 8.1022 20.4479 12.7679C20.4479 14.1049 20.1373 15.3693 19.5844 16.4929M17.7599 18.9478C16.2509 20.3549 14.2259 21.2159 11.9999 21.2159C7.3342 21.2159 3.5519 17.4336 3.5519 12.7679C3.5519 10.5419 4.41287 8.51693 5.81996 7.0079" stroke="#1D1D20" style="stroke:#1D1D20;stroke:color(display-p3 0.1148 0.1148 0.1252);stroke-opacity:1;" stroke-width="2" stroke-linecap="round" stroke-linejoin="round"/>
</svg>
