<svg width="24" height="24" viewBox="0 0 24 24" fill="none" xmlns="http://www.w3.org/2000/svg">
<path d="M22.1998 13.8V10.2M7.7998 9.6V14.4M7.7998 9.6H6.5998M7.7998 9.6H8.9998M7.7998 14.4H6.5998M7.7998 14.4H8.9998M10.1998 9.6V14.4M10.1998 9.6H8.9998M10.1998 9.6H11.3998M10.1998 14.4H8.9998M10.1998 14.4H11.3998M12.5998 9.6V14.4M12.5998 9.6H11.3998M12.5998 9.6H13.7998M12.5998 14.4H14.9998V9.6H13.7998M12.5998 14.4H11.3998M6.5998 14.4H5.3998V9.6H6.5998M6.5998 14.4V9.6M8.9998 9.6V14.4M11.3998 14.4V9.6M13.7998 9.6V14.296M4.1998 18H16.1998C17.5253 18 18.5998 16.9255 18.5998 15.6V8.4C18.5998 7.07452 17.5253 6 16.1998 6H4.1998C2.87432 6 1.7998 7.07452 1.7998 8.4V15.6C1.7998 16.9255 2.87432 18 4.1998 18Z" stroke="#1D1D20" style="stroke:#1D1D20;stroke:color(display-p3 0.1148 0.1148 0.1252);stroke-opacity:1;" stroke-width="2" stroke-linecap="round" stroke-linejoin="round"/>
</svg>
