<svg width="24" height="24" viewBox="0 0 24 24" fill="none" xmlns="http://www.w3.org/2000/svg">
<path d="M6.84103 21.6155L6.34103 20.7495H6.34103L6.84103 21.6155ZM5.99338 20.9781L5.00103 20.8547H5.00103L5.99338 20.9781ZM5.32238 17.4128L4.45026 17.9022L4.45635 17.9128L5.32238 17.4128ZM4.30938 15.6078L5.1815 15.1184L5.17541 15.1078L4.30938 15.6078ZM20.2495 13.8741L20.7495 14.7401V14.7401L20.2495 13.8741ZM20.1344 12.833L20.542 11.9199L20.542 11.9199L20.1344 12.833ZM17.4131 10.4322L16.5406 10.9211L16.547 10.9322L17.4131 10.4322ZM16.4513 8.71606L17.3238 8.22716L17.3174 8.21606L16.4513 8.71606ZM6.82924 6.11328L6.32924 5.24725L6.82924 6.11328ZM13.1858 21.5314L13.6858 22.3974L13.1858 21.5314ZM5.99338 20.9781L6.98573 21.1016C7.12901 19.9497 7.04218 18.3916 6.1884 16.9128L5.32238 17.4128L4.45635 17.9128C5.03091 18.908 5.10804 19.9944 5.00103 20.8547L5.99338 20.9781ZM5.32238 17.4128L6.19443 16.9234L5.18144 15.1184L4.30938 15.6078L3.43733 16.0972L4.45032 17.9022L5.32238 17.4128ZM20.1344 12.833L20.542 11.9199C19.7633 11.5722 18.8646 10.9464 18.2791 9.93224L17.4131 10.4322L16.547 10.9322C17.3997 12.4091 18.6804 13.279 19.7267 13.7461L20.1344 12.833ZM17.4131 10.4322L18.2854 9.94338L17.3237 8.2272L16.4513 8.71606L15.579 9.20491L16.5407 10.9211L17.4131 10.4322ZM16.4513 8.71606L17.3174 8.21606C15.0925 4.36246 10.1746 3.02715 6.32924 5.24725L6.82924 6.11328L7.32924 6.9793C10.2102 5.31596 13.9082 6.31126 15.5853 9.21606L16.4513 8.71606ZM20.2495 13.8741L20.7495 14.7401C21.3909 14.3698 21.53 13.6867 21.4719 13.2163C21.414 12.7474 21.1342 12.1842 20.542 11.9199L20.1344 12.833L19.7267 13.7461C19.5286 13.6577 19.4927 13.5075 19.487 13.4614C19.4811 13.4138 19.4807 13.1633 19.7495 13.0081L20.2495 13.8741ZM4.30938 15.6078L5.17541 15.1078C3.52665 12.2521 4.49708 8.61445 7.32924 6.9793L6.82924 6.11328L6.32924 5.24725C2.53273 7.43917 1.2468 12.3033 3.44336 16.1078L4.30938 15.6078ZM6.84103 21.6155L6.34103 20.7495C6.61594 20.5907 6.83392 20.7243 6.86653 20.7495C6.8985 20.7741 7.01317 20.881 6.98573 21.1016L5.99338 20.9781L5.00103 20.8547C4.91966 21.5088 5.26953 22.0433 5.6445 22.3327C6.02011 22.6226 6.68887 22.858 7.34103 22.4815L6.84103 21.6155ZM20.2495 13.8741L19.7495 13.0081L6.34103 20.7495L6.84103 21.6155L7.34103 22.4815L20.7495 14.7401L20.2495 13.8741ZM14.4992 17.194L13.6332 17.694C14.1831 18.6464 13.8423 19.9976 12.6858 20.6653L13.1858 21.5314L13.6858 22.3974C15.6919 21.2392 16.5272 18.7066 15.3653 16.694L14.4992 17.194ZM13.1858 21.5314L12.6858 20.6653C11.5293 21.3331 10.1887 20.9526 9.63886 20.0002L8.77283 20.5002L7.9068 21.0002C9.06876 23.0127 11.6797 23.5556 13.6858 22.3974L13.1858 21.5314ZM7.636 3.10242L6.76997 3.60242C7.10247 4.17833 6.90515 4.91475 6.32924 5.24725L6.82924 6.11328L7.32924 6.9793C8.86174 6.09451 9.38681 4.13492 8.50202 2.60242L7.636 3.10242ZM6.82924 6.11328L6.32924 5.24725C5.75333 5.57975 5.01691 5.38243 4.68441 4.80652L3.81838 5.30652L2.95236 5.80652C3.83715 7.33902 5.79674 7.86409 7.32924 6.9793L6.82924 6.11328ZM3.81838 5.30652L4.68441 4.80652C4.35191 4.23061 4.54923 3.49419 5.12514 3.16169L4.62514 2.29566L4.12514 1.42964C2.59264 2.31442 2.06757 4.27402 2.95236 5.80652L3.81838 5.30652ZM4.62514 2.29566L5.12514 3.16169C5.70105 2.82918 6.43747 3.02651 6.76997 3.60242L7.636 3.10242L8.50202 2.60242C7.61724 1.06992 5.65764 0.544848 4.12514 1.42964L4.62514 2.29566Z" fill="#1D1D20" style="fill:#1D1D20;fill:color(display-p3 0.1148 0.1148 0.1252);fill-opacity:1;"/>
</svg>
