<svg width="24" height="24" viewBox="0 0 24 24" fill="none" xmlns="http://www.w3.org/2000/svg">
<path d="M9.12626 7.63427C9.67855 7.63427 10.1263 7.18655 10.1263 6.63427C10.1263 6.08198 9.67855 5.63427 9.12626 5.63427V6.63427V7.63427ZM3.62288 5.63427C3.07059 5.63427 2.62288 6.08198 2.62288 6.63427C2.62288 7.18655 3.07059 7.63427 3.62288 7.63427V6.63427V5.63427ZM20.3999 7.63427C20.9522 7.63427 21.3999 7.18655 21.3999 6.63427C21.3999 6.08198 20.9522 5.63427 20.3999 5.63427V6.63427V7.63427ZM14.6297 5.63427C14.0774 5.63427 13.6297 6.08198 13.6297 6.63427C13.6297 7.18655 14.0774 7.63427 14.6297 7.63427V6.63427V5.63427ZM10.516 4.7998V5.7998H13.2306V4.7998V3.7998H10.516V4.7998ZM14.1355 5.70466H13.1355V8.41925H14.1355H15.1355V5.70466H14.1355ZM13.2306 9.32411V8.32411H10.516V9.32411V10.3241H13.2306V9.32411ZM9.61115 8.41925H10.6112V5.70466H9.61115H8.61115V8.41925H9.61115ZM10.516 9.32411V8.32411C10.5686 8.32411 10.6112 8.3667 10.6112 8.41925H9.61115H8.61115C8.61115 9.47127 9.46399 10.3241 10.516 10.3241V9.32411ZM14.1355 8.41925H13.1355C13.1355 8.36671 13.178 8.32411 13.2306 8.32411V9.32411V10.3241C14.2826 10.3241 15.1355 9.47127 15.1355 8.41925H14.1355ZM13.2306 4.7998V5.7998C13.178 5.7998 13.1355 5.75721 13.1355 5.70466H14.1355H15.1355C15.1355 4.65264 14.2826 3.7998 13.2306 3.7998V4.7998ZM10.516 4.7998V3.7998C9.46399 3.7998 8.61115 4.65264 8.61115 5.70466H9.61115H10.6112C10.6112 5.75721 10.5686 5.7998 10.516 5.7998V4.7998ZM3.30476 14.5836V15.5836H6.01934V14.5836V13.5836H3.30476V14.5836ZM6.9242 15.4885H5.9242V18.203H6.9242H7.9242V15.4885H6.9242ZM6.01934 19.1079V18.1079H3.30476V19.1079V20.1079H6.01934V19.1079ZM2.3999 18.203H3.3999V15.4885H2.3999H1.3999V18.203H2.3999ZM3.30476 19.1079V18.1079C3.35731 18.1079 3.3999 18.1505 3.3999 18.203H2.3999H1.3999C1.3999 19.2551 2.25274 20.1079 3.30476 20.1079V19.1079ZM6.9242 18.203H5.9242C5.9242 18.1505 5.9668 18.1079 6.01934 18.1079V19.1079V20.1079C7.07137 20.1079 7.9242 19.2551 7.9242 18.203H6.9242ZM6.01934 14.5836V15.5836C5.9668 15.5836 5.9242 15.541 5.9242 15.4885H6.9242H7.9242C7.9242 14.4364 7.07137 13.5836 6.01934 13.5836V14.5836ZM3.30476 14.5836V13.5836C2.25274 13.5836 1.3999 14.4364 1.3999 15.4885H2.3999H3.3999C3.3999 15.541 3.35731 15.5836 3.30476 15.5836V14.5836ZM17.9805 14.5836V15.5836H20.695V14.5836V13.5836H17.9805V14.5836ZM21.5999 15.4885H20.5999V18.203H21.5999H22.5999V15.4885H21.5999ZM20.695 19.1079V18.1079H17.9805V19.1079V20.1079H20.695V19.1079ZM17.0756 18.203H18.0756V15.4885H17.0756H16.0756V18.203H17.0756ZM17.9805 19.1079V18.1079C18.033 18.1079 18.0756 18.1505 18.0756 18.203H17.0756H16.0756C16.0756 19.2551 16.9284 20.1079 17.9805 20.1079V19.1079ZM21.5999 18.203H20.5999C20.5999 18.1505 20.6425 18.1079 20.695 18.1079V19.1079V20.1079C21.7471 20.1079 22.5999 19.2551 22.5999 18.203H21.5999ZM20.695 14.5836V15.5836C20.6425 15.5836 20.5999 15.541 20.5999 15.4885H21.5999H22.5999C22.5999 14.4364 21.7471 13.5836 20.695 13.5836V14.5836ZM17.9805 14.5836V13.5836C16.9284 13.5836 16.0756 14.4364 16.0756 15.4885H17.0756H18.0756C18.0756 15.541 18.033 15.5836 17.9805 15.5836V14.5836ZM9.12626 6.63427V5.63427H3.62288V6.63427V7.63427H9.12626V6.63427ZM20.3999 6.63427V5.63427H14.6297V6.63427V7.63427H20.3999V6.63427ZM4.84585 13.3606H3.84585V14.5836H4.84585H5.84585V13.3606H4.84585ZM19.5216 13.3606H18.5216V14.5836H19.5216H20.5216V13.3606H19.5216ZM4.84585 13.3606H5.84585C5.84585 11.016 7.11851 8.96741 9.0155 7.87006L8.51478 7.00445L8.01405 6.13885C5.52447 7.57899 3.84585 10.2732 3.84585 13.3606H4.84585ZM15.8526 7.00445L15.3519 7.87006C17.2489 8.96741 18.5216 11.016 18.5216 13.3606H19.5216H20.5216C20.5216 10.2732 18.8429 7.57899 16.3534 6.13885L15.8526 7.00445Z" fill="#1D1D20" style="fill:#1D1D20;fill:color(display-p3 0.1148 0.1148 0.1252);fill-opacity:1;"/>
</svg>
