<svg width="24" height="24" viewBox="0 0 24 24" fill="none" xmlns="http://www.w3.org/2000/svg">
<path d="M4.50975 9.78025C5.26973 7.22665 7.37459 5.25225 10.003 4.67842M9.47579 18.9636C7.09534 18.2552 5.2182 16.378 4.50975 13.9976M18.6592 13.9976C17.9507 16.378 16.0736 18.2552 13.6931 18.9636M13.166 4.67842C15.9726 5.29116 18.1822 7.50083 18.795 10.3074M10.3637 6.83921H13.0272C13.5176 6.83921 13.9151 6.4417 13.9151 5.95135V3.28776C13.9151 2.79741 13.5176 2.3999 13.0272 2.3999H10.3637C9.8733 2.3999 9.47579 2.79741 9.47579 3.28776V5.95135C9.47579 6.4417 9.8733 6.83921 10.3637 6.83921ZM10.3637 21.5999H13.0272C13.5176 21.5999 13.9151 21.2024 13.9151 20.712V18.0485C13.9151 17.5581 13.5176 17.1606 13.0272 17.1606H10.3637C9.8733 17.1606 9.47579 17.5581 9.47579 18.0485V20.712C9.47579 21.2024 9.8733 21.5999 10.3637 21.5999ZM16.1067 10.6679V13.3314C16.1067 13.8218 16.5043 14.2193 16.9946 14.2193H19.6582C20.1485 14.2193 20.5461 13.8218 20.5461 13.3314V10.6679C20.5461 10.1775 20.1485 9.77999 19.6582 9.77999H16.9946C16.5043 9.77999 16.1067 10.1775 16.1067 10.6679ZM2.40039 10.6679L2.40039 13.3314C2.40039 13.8218 2.7979 14.2193 3.28825 14.2193H5.95184C6.44219 14.2193 6.8397 13.8218 6.8397 13.3314L6.8397 10.6679C6.8397 10.1775 6.44219 9.77999 5.95184 9.77999H3.28825C2.7979 9.77999 2.40039 10.1775 2.40039 10.6679Z" stroke="#1D1D20" style="stroke:#1D1D20;stroke:color(display-p3 0.1148 0.1148 0.1252);stroke-opacity:1;" stroke-width="2"/>
</svg>
