<svg width="24" height="24" viewBox="0 0 24 24" fill="none" xmlns="http://www.w3.org/2000/svg">
<path d="M8.25 21H7.25C7.25 21.3858 7.4719 21.7371 7.82023 21.9029C8.16856 22.0687 8.58119 22.0194 8.88059 21.7761L8.25 21ZM8.25 3L8.88059 2.22389C8.58119 1.98062 8.16856 1.93127 7.82023 2.09706C7.4719 2.26286 7.25 2.61423 7.25 3L8.25 3ZM14.25 7.875L14.8177 8.69821C15.077 8.51942 15.2369 8.22895 15.2492 7.91427C15.2616 7.59959 15.125 7.29747 14.8806 7.09889L14.25 7.875ZM14.25 16.125L14.8806 16.9011C15.125 16.7025 15.2616 16.4004 15.2492 16.0857C15.2369 15.771 15.077 15.4806 14.8177 15.3018L14.25 16.125ZM3.56773 7.54317C3.11309 7.22962 2.49034 7.344 2.17679 7.79865C1.86324 8.25329 1.97762 8.87604 2.43227 9.18959L3 8.36638L3.56773 7.54317ZM2.43227 14.8104C1.97762 15.124 1.86324 15.7467 2.17679 16.2014C2.49034 16.656 3.11309 16.7704 3.56773 16.4568L3 15.6336L2.43227 14.8104ZM16.955 9.16054C16.4632 8.90924 15.8608 9.10421 15.6095 9.59601C15.3582 10.0878 15.5532 10.6902 16.045 10.9415L16.5 10.051L16.955 9.16054ZM16.045 13.0585C15.5532 13.3098 15.3582 13.9122 15.6095 14.404C15.8608 14.8958 16.4632 15.0908 16.955 14.8395L16.5 13.949L16.045 13.0585ZM18.9609 6.63869C18.4852 6.35809 17.8721 6.51623 17.5915 6.99192C17.3109 7.4676 17.4691 8.0807 17.9447 8.36131L18.4528 7.5L18.9609 6.63869ZM17.9447 15.6387C17.4691 15.9193 17.3109 16.5324 17.5915 17.0081C17.8721 17.4838 18.4852 17.6419 18.9609 17.3613L18.4528 16.5L17.9447 15.6387ZM8.25 21H9.25V12.0129H8.25H7.25V21H8.25ZM8.25 12.0129H9.25V11.9871H8.25H7.25V12.0129H8.25ZM8.25 11.9871H9.25V3H8.25H7.25V11.9871H8.25ZM8.25 3L7.61941 3.77611L13.6194 8.65111L14.25 7.875L14.8806 7.09889L8.88059 2.22389L8.25 3ZM8.25 21L8.88059 21.7761L14.8806 16.9011L14.25 16.125L13.6194 15.3489L7.61941 20.2239L8.25 21ZM14.25 16.125L14.8177 15.3018L8.83648 11.1768L8.26875 12L7.70102 12.8232L13.6823 16.9482L14.25 16.125ZM8.26875 12L8.83645 11.1768L8.8177 11.1638L8.25 11.9871L7.6823 12.8103L7.70105 12.8232L8.26875 12ZM8.25 11.9871L8.81773 11.1639L3.56773 7.54317L3 8.36638L2.43227 9.18959L7.68227 12.8103L8.25 11.9871ZM14.25 7.875L13.6823 7.05179L7.70102 11.1768L8.26875 12L8.83648 12.8232L14.8177 8.69821L14.25 7.875ZM8.26875 12L7.70105 11.1768L7.6823 11.1897L8.25 12.0129L8.8177 12.8362L8.83645 12.8232L8.26875 12ZM8.25 12.0129L7.68227 11.1897L2.43227 14.8104L3 15.6336L3.56773 16.4568L8.81773 12.8361L8.25 12.0129ZM16.5 10.051L16.045 10.9415C16.5282 11.1884 16.7736 11.6022 16.7736 12H17.7736H18.7736C18.7736 10.7322 17.9945 9.69169 16.955 9.16054L16.5 10.051ZM17.7736 12H16.7736C16.7736 12.3978 16.5282 12.8116 16.045 13.0585L16.5 13.949L16.955 14.8395C17.9945 14.3083 18.7736 13.2678 18.7736 12H17.7736ZM18.4528 7.5L17.9447 8.36131C19.1695 9.0838 20 10.439 20 12H21H22C22 9.71525 20.7815 7.71268 18.9609 6.63869L18.4528 7.5ZM21 12H20C20 13.561 19.1695 14.9162 17.9447 15.6387L18.4528 16.5L18.9609 17.3613C20.7815 16.2873 22 14.2847 22 12H21Z" fill="#1D1D20" style="fill:#1D1D20;fill:color(display-p3 0.1148 0.1148 0.1252);fill-opacity:1;"/>
</svg>
