<svg width="24" height="24" viewBox="0 0 24 24" fill="none" xmlns="http://www.w3.org/2000/svg">
<path d="M7.08901 20.2375H6.58208C5.18223 20.2375 4.04743 19.1027 4.04743 17.7028V12.6335C4.04743 11.8527 2.3999 11.4929 2.3999 11.4929C2.3999 11.4929 4.04743 11.1922 4.04743 10.3523V6.29686C4.04743 4.89701 5.18223 3.76221 6.58208 3.76221H7.08901M16.9108 3.76221H17.4177C18.8176 3.76221 19.9524 4.89701 19.9524 6.29686V11.3662C19.9524 12.147 21.5999 12.5068 21.5999 12.5068C21.5999 12.5068 19.9524 12.8074 19.9524 13.6474L19.9524 17.7028C19.9524 19.1027 18.8176 20.2375 17.4177 20.2375H16.9108" stroke="#1D1D20" style="stroke:#1D1D20;stroke:color(display-p3 0.1148 0.1148 0.1252);stroke-opacity:1;" stroke-width="2" stroke-linecap="round" stroke-linejoin="round"/>
</svg>
