<svg width="24" height="24" viewBox="0 0 24 24" fill="none" xmlns="http://www.w3.org/2000/svg">
<path d="M2.3999 7.97995V17.82C2.3999 19.1454 3.47442 20.22 4.7999 20.22H14.3999M5.9999 5.57995H7.1999L8.8799 2.69995H15.1199L16.7999 5.57995H19.1999C20.5254 5.57995 21.5999 6.65447 21.5999 7.97995V17.82C21.5999 18.7083 21.1173 19.4839 20.3999 19.8989M14.6832 14.7C15.2533 14.063 15.5999 13.222 15.5999 12.3C15.5999 10.3117 13.9881 8.69995 11.9999 8.69995C11.0779 8.69995 10.2368 9.04658 9.5999 9.61662M11.3999 15.8502C9.84265 15.5889 8.62441 14.3279 8.42772 12.7497M20.9999 21.3L2.9999 2.69995" stroke="#1D1D20" style="stroke:#1D1D20;stroke:color(display-p3 0.1148 0.1148 0.1252);stroke-opacity:1;" stroke-width="2" stroke-linecap="round" stroke-linejoin="round"/>
</svg>
