<svg width="24" height="24" viewBox="0 0 24 24" fill="none" xmlns="http://www.w3.org/2000/svg">
<path d="M1.80055 15.4124L0.80055 15.4124L1.80055 15.4124ZM1.80029 6.41252L2.80029 6.41249V6.41249L1.80029 6.41252ZM12.0002 18.8125C12.5525 18.8125 13.0002 18.3648 13.0002 17.8125C13.0002 17.2602 12.5525 16.8125 12.0002 16.8125L12.0002 17.8125L12.0002 18.8125ZM4.20051 17.8123L4.20053 16.8123H4.20053L4.20051 17.8123ZM20.9998 6.41238L19.9998 6.41239V6.4124L20.9998 6.41238ZM2.39983 7.2123C1.84755 7.2123 1.39983 7.66002 1.39983 8.2123C1.39983 8.76459 1.84755 9.2123 2.39983 9.2123V8.2123V7.2123ZM20.3998 9.2123C20.9521 9.2123 21.3998 8.76459 21.3998 8.2123C21.3998 7.66002 20.9521 7.2123 20.3998 7.2123V8.2123V9.2123ZM16.1998 13.4874L15.7526 12.593C15.4138 12.7623 15.1998 13.1086 15.1998 13.4874H16.1998ZM19.1998 19.9874L18.6659 20.8329C18.992 21.0389 19.4076 21.0389 19.7338 20.8329L19.1998 19.9874ZM22.1998 13.4874H23.1998C23.1998 13.1086 22.9858 12.7623 22.647 12.593L22.1998 13.4874ZM17.5899 12.7924L18.0371 13.6868V13.6868L17.5899 12.7924ZM20.8098 12.7924L20.3626 13.6868V13.6868L20.8098 12.7924ZM4.20029 4.01245V5.01245H18.5992V4.01245V3.01245H4.20029V4.01245ZM1.80055 15.4124L2.80055 15.4123L2.80029 6.41249L1.80029 6.41252L0.800293 6.41255L0.80055 15.4124L1.80055 15.4124ZM12.0002 17.8125L12.0002 16.8125L4.20053 16.8123L4.20051 17.8123L4.20049 18.8123L12.0002 18.8125L12.0002 17.8125ZM20.9998 6.41238L19.9998 6.4124L19.9998 8.21247L20.9998 8.21245L21.9998 8.21243L21.9998 6.41235L20.9998 6.41238ZM4.20029 4.01245V3.01245C2.32249 3.01245 0.800239 4.53474 0.800293 6.41255L1.80029 6.41252L2.80029 6.41249C2.80027 5.63928 3.42708 5.01245 4.20029 5.01245V4.01245ZM18.5992 4.01245V5.01245C19.373 5.01245 19.9998 5.63928 19.9998 6.41239L20.9998 6.41238L21.9998 6.41236C21.9998 4.53406 20.4769 3.01245 18.5992 3.01245V4.01245ZM1.80055 15.4124L0.80055 15.4124C0.800603 17.2901 2.32278 18.8123 4.20049 18.8123L4.20051 17.8123L4.20053 16.8123C3.42735 16.8123 2.80057 16.1855 2.80055 15.4123L1.80055 15.4124ZM2.39983 8.2123V9.2123H20.3998V8.2123V7.2123H2.39983V8.2123ZM17.5899 12.7924L17.1427 11.8979L15.7526 12.593L16.1998 13.4874L16.647 14.3818L18.0371 13.6868L17.5899 12.7924ZM16.1998 13.4874H15.1998V16.8324H16.1998H17.1998V13.4874H16.1998ZM16.1998 16.8324H15.1998C15.1998 17.6784 15.6892 18.4033 16.2581 18.9886C16.8475 19.595 17.6744 20.2067 18.6659 20.8329L19.1998 19.9874L19.7338 19.1419C18.793 18.5477 18.1198 18.0344 17.6923 17.5946C17.2443 17.1337 17.1998 16.8914 17.1998 16.8324H16.1998ZM19.1998 19.9874L19.7338 20.8329C20.6861 20.2315 21.5251 19.6793 22.1197 19.1041C22.7417 18.5025 23.1998 17.7762 23.1998 16.8324H22.1998H21.1998C21.1998 17.0436 21.1241 17.2846 20.7292 17.6666C20.3069 18.0751 19.6459 18.523 18.6659 19.1419L19.1998 19.9874ZM22.1998 16.8324H23.1998C23.1998 16.8301 23.1998 16.8279 23.1998 16.8256C23.1998 16.8233 23.1998 16.8211 23.1998 16.8188C23.1998 16.8165 23.1998 16.8142 23.1998 16.812C23.1998 16.8097 23.1998 16.8074 23.1998 16.8051C23.1998 16.8028 23.1998 16.8005 23.1998 16.7982C23.1998 16.796 23.1998 16.7937 23.1998 16.7914C23.1998 16.7891 23.1998 16.7867 23.1998 16.7844C23.1998 16.7821 23.1998 16.7798 23.1998 16.7775C23.1998 16.7752 23.1998 16.7729 23.1998 16.7705C23.1998 16.7682 23.1998 16.7659 23.1998 16.7635C23.1998 16.7612 23.1998 16.7589 23.1998 16.7565C23.1998 16.7542 23.1998 16.7519 23.1998 16.7495C23.1998 16.7472 23.1998 16.7448 23.1998 16.7425C23.1998 16.7401 23.1998 16.7377 23.1998 16.7354C23.1998 16.733 23.1998 16.7307 23.1998 16.7283C23.1998 16.7259 23.1998 16.7235 23.1998 16.7212C23.1998 16.7188 23.1998 16.7164 23.1998 16.714C23.1998 16.7116 23.1998 16.7093 23.1998 16.7069C23.1998 16.7045 23.1998 16.7021 23.1998 16.6997C23.1998 16.6973 23.1998 16.6949 23.1998 16.6925C23.1998 16.6901 23.1998 16.6877 23.1998 16.6853C23.1998 16.6828 23.1998 16.6804 23.1998 16.678C23.1998 16.6756 23.1998 16.6732 23.1998 16.6708C23.1998 16.6683 23.1998 16.6659 23.1998 16.6635C23.1998 16.661 23.1998 16.6586 23.1998 16.6562C23.1998 16.6537 23.1998 16.6513 23.1998 16.6488C23.1998 16.6464 23.1998 16.6439 23.1998 16.6415C23.1998 16.639 23.1998 16.6366 23.1998 16.6341C23.1998 16.6317 23.1998 16.6292 23.1998 16.6267C23.1998 16.6243 23.1998 16.6218 23.1998 16.6193C23.1998 16.6169 23.1998 16.6144 23.1998 16.6119C23.1998 16.6094 23.1998 16.607 23.1998 16.6045C23.1998 16.602 23.1998 16.5995 23.1998 16.597C23.1998 16.5945 23.1998 16.592 23.1998 16.5895C23.1998 16.587 23.1998 16.5845 23.1998 16.582C23.1998 16.5795 23.1998 16.577 23.1998 16.5745C23.1998 16.572 23.1998 16.5695 23.1998 16.567C23.1998 16.5645 23.1998 16.5619 23.1998 16.5594C23.1998 16.5569 23.1998 16.5544 23.1998 16.5519C23.1998 16.5493 23.1998 16.5468 23.1998 16.5443C23.1998 16.5417 23.1998 16.5392 23.1998 16.5367C23.1998 16.5341 23.1998 16.5316 23.1998 16.529C23.1998 16.5265 23.1998 16.5239 23.1998 16.5214C23.1998 16.5188 23.1998 16.5163 23.1998 16.5137C23.1998 16.5112 23.1998 16.5086 23.1998 16.506C23.1998 16.5035 23.1998 16.5009 23.1998 16.4983C23.1998 16.4958 23.1998 16.4932 23.1998 16.4906C23.1998 16.4881 23.1998 16.4855 23.1998 16.4829C23.1998 16.4803 23.1998 16.4777 23.1998 16.4752C23.1998 16.4726 23.1998 16.47 23.1998 16.4674C23.1998 16.4648 23.1998 16.4622 23.1998 16.4596C23.1998 16.457 23.1998 16.4544 23.1998 16.4518C23.1998 16.4492 23.1998 16.4466 23.1998 16.444C23.1998 16.4414 23.1998 16.4388 23.1998 16.4362C23.1998 16.4336 23.1998 16.4309 23.1998 16.4283C23.1998 16.4257 23.1998 16.4231 23.1998 16.4205C23.1998 16.4178 23.1998 16.4152 23.1998 16.4126C23.1998 16.41 23.1998 16.4073 23.1998 16.4047C23.1998 16.4021 23.1998 16.3994 23.1998 16.3968C23.1998 16.3942 23.1998 16.3915 23.1998 16.3889C23.1998 16.3862 23.1998 16.3836 23.1998 16.3809C23.1998 16.3783 23.1998 16.3756 23.1998 16.373C23.1998 16.3703 23.1998 16.3677 23.1998 16.365C23.1998 16.3624 23.1998 16.3597 23.1998 16.357C23.1998 16.3544 23.1998 16.3517 23.1998 16.349C23.1998 16.3464 23.1998 16.3437 23.1998 16.341C23.1998 16.3384 23.1998 16.3357 23.1998 16.333C23.1998 16.3303 23.1998 16.3277 23.1998 16.325C23.1998 16.3223 23.1998 16.3196 23.1998 16.3169C23.1998 16.3142 23.1998 16.3115 23.1998 16.3089C23.1998 16.3062 23.1998 16.3035 23.1998 16.3008C23.1998 16.2981 23.1998 16.2954 23.1998 16.2927C23.1998 16.29 23.1998 16.2873 23.1998 16.2846C23.1998 16.2819 23.1998 16.2792 23.1998 16.2765C23.1998 16.2737 23.1998 16.271 23.1998 16.2683C23.1998 16.2656 23.1998 16.2629 23.1998 16.2602C23.1998 16.2575 23.1998 16.2547 23.1998 16.252C23.1998 16.2493 23.1998 16.2466 23.1998 16.2438C23.1998 16.2411 23.1998 16.2384 23.1998 16.2357C23.1998 16.2329 23.1998 16.2302 23.1998 16.2275C23.1998 16.2247 23.1998 16.222 23.1998 16.2193C23.1998 16.2165 23.1998 16.2138 23.1998 16.211C23.1998 16.2083 23.1998 16.2056 23.1998 16.2028C23.1998 16.2001 23.1998 16.1973 23.1998 16.1946C23.1998 16.1918 23.1998 16.1891 23.1998 16.1863C23.1998 16.1836 23.1998 16.1808 23.1998 16.178C23.1998 16.1753 23.1998 16.1725 23.1998 16.1698C23.1998 16.167 23.1998 16.1642 23.1998 16.1615C23.1998 16.1587 23.1998 16.156 23.1998 16.1532C23.1998 16.1504 23.1998 16.1476 23.1998 16.1449C23.1998 16.1421 23.1998 16.1393 23.1998 16.1366C23.1998 16.1338 23.1998 16.131 23.1998 16.1282C23.1998 16.1254 23.1998 16.1227 23.1998 16.1199C23.1998 16.1171 23.1998 16.1143 23.1998 16.1115C23.1998 16.1087 23.1998 16.106 23.1998 16.1032C23.1998 16.1004 23.1998 16.0976 23.1998 16.0948C23.1998 16.092 23.1998 16.0892 23.1998 16.0864C23.1998 16.0836 23.1998 16.0808 23.1998 16.078C23.1998 16.0752 23.1998 16.0724 23.1998 16.0696C23.1998 16.0668 23.1998 16.064 23.1998 16.0612C23.1998 16.0584 23.1998 16.0556 23.1998 16.0528C23.1998 16.05 23.1998 16.0472 23.1998 16.0444C23.1998 16.0415 23.1998 16.0387 23.1998 16.0359C23.1998 16.0331 23.1998 16.0303 23.1998 16.0275C23.1998 16.0247 23.1998 16.0218 23.1998 16.019C23.1998 16.0162 23.1998 16.0134 23.1998 16.0105C23.1998 16.0077 23.1998 16.0049 23.1998 16.0021C23.1998 15.9992 23.1998 15.9964 23.1998 15.9936C23.1998 15.9908 23.1998 15.9879 23.1998 15.9851C23.1998 15.9823 23.1998 15.9794 23.1998 15.9766C23.1998 15.9738 23.1998 15.9709 23.1998 15.9681C23.1998 15.9653 23.1998 15.9624 23.1998 15.9596C23.1998 15.9568 23.1998 15.9539 23.1998 15.9511C23.1998 15.9482 23.1998 15.9454 23.1998 15.9425C23.1998 15.9397 23.1998 15.9369 23.1998 15.934C23.1998 15.9312 23.1998 15.9283 23.1998 15.9255C23.1998 15.9226 23.1998 15.9198 23.1998 15.9169C23.1998 15.9141 23.1998 15.9112 23.1998 15.9084C23.1998 15.9055 23.1998 15.9027 23.1998 15.8998C23.1998 15.8969 23.1998 15.8941 23.1998 15.8912C23.1998 15.8884 23.1998 15.8855 23.1998 15.8827C23.1998 15.8798 23.1998 15.8769 23.1998 15.8741C23.1998 15.8712 23.1998 15.8683 23.1998 15.8655C23.1998 15.8626 23.1998 15.8598 23.1998 15.8569C23.1998 15.854 23.1998 15.8512 23.1998 15.8483C23.1998 15.8454 23.1998 15.8426 23.1998 15.8397C23.1998 15.8368 23.1998 15.8339 23.1998 15.8311C23.1998 15.8282 23.1998 15.8253 23.1998 15.8225C23.1998 15.8196 23.1998 15.8167 23.1998 15.8138C23.1998 15.811 23.1998 15.8081 23.1998 15.8052C23.1998 15.8023 23.1998 15.7995 23.1998 15.7966C23.1998 15.7937 23.1998 15.7908 23.1998 15.7879C23.1998 15.7851 23.1998 15.7822 23.1998 15.7793C23.1998 15.7764 23.1998 15.7735 23.1998 15.7707C23.1998 15.7678 23.1998 15.7649 23.1998 15.762C23.1998 15.7591 23.1998 15.7562 23.1998 15.7534C23.1998 15.7505 23.1998 15.7476 23.1998 15.7447C23.1998 15.7418 23.1998 15.7389 23.1998 15.736C23.1998 15.7331 23.1998 15.7303 23.1998 15.7274C23.1998 15.7245 23.1998 15.7216 23.1998 15.7187C23.1998 15.7158 23.1998 15.7129 23.1998 15.71C23.1998 15.7071 23.1998 15.7042 23.1998 15.7013C23.1998 15.6985 23.1998 15.6956 23.1998 15.6927C23.1998 15.6898 23.1998 15.6869 23.1998 15.684C23.1998 15.6811 23.1998 15.6782 23.1998 15.6753C23.1998 15.6724 23.1998 15.6695 23.1998 15.6666C23.1998 15.6637 23.1998 15.6608 23.1998 15.6579C23.1998 15.655 23.1998 15.6521 23.1998 15.6492C23.1998 15.6463 23.1998 15.6434 23.1998 15.6405C23.1998 15.6376 23.1998 15.6347 23.1998 15.6318C23.1998 15.6289 23.1998 15.626 23.1998 15.6231C23.1998 15.6202 23.1998 15.6173 23.1998 15.6144C23.1998 15.6115 23.1998 15.6086 23.1998 15.6057C23.1998 15.6028 23.1998 15.5999 23.1998 15.597C23.1998 15.5941 23.1998 15.5912 23.1998 15.5883C23.1998 15.5854 23.1998 15.5825 23.1998 15.5796C23.1998 15.5767 23.1998 15.5738 23.1998 15.5709C23.1998 15.568 23.1998 15.5651 23.1998 15.5622C23.1998 15.5593 23.1998 15.5564 23.1998 15.5535C23.1998 15.5506 23.1998 15.5477 23.1998 15.5448C23.1998 15.5419 23.1998 15.539 23.1998 15.5361C23.1998 15.5331 23.1998 15.5302 23.1998 15.5273C23.1998 15.5244 23.1998 15.5215 23.1998 15.5186C23.1998 15.5157 23.1998 15.5128 23.1998 15.5099C23.1998 15.507 23.1998 15.5041 23.1998 15.5012C23.1998 15.4983 23.1998 15.4954 23.1998 15.4925C23.1998 15.4896 23.1998 15.4867 23.1998 15.4838C23.1998 15.4809 23.1998 15.478 23.1998 15.4751C23.1998 15.4722 23.1998 15.4692 23.1998 15.4663C23.1998 15.4634 23.1998 15.4605 23.1998 15.4576C23.1998 15.4547 23.1998 15.4518 23.1998 15.4489C23.1998 15.446 23.1998 15.4431 23.1998 15.4402C23.1998 15.4373 23.1998 15.4344 23.1998 15.4315C23.1998 15.4286 23.1998 15.4257 23.1998 15.4228C23.1998 15.4199 23.1998 15.417 23.1998 15.4141C23.1998 15.4112 23.1998 15.4083 23.1998 15.4054C23.1998 15.4025 23.1998 15.3996 23.1998 15.3967C23.1998 15.3938 23.1998 15.3909 23.1998 15.388C23.1998 15.3851 23.1998 15.3822 23.1998 15.3793C23.1998 15.3764 23.1998 15.3735 23.1998 15.3706C23.1998 15.3677 23.1998 15.3648 23.1998 15.3619C23.1998 15.359 23.1998 15.3561 23.1998 15.3532C23.1998 15.3503 23.1998 15.3474 23.1998 15.3445C23.1998 15.3416 23.1998 15.3387 23.1998 15.3358C23.1998 15.3329 23.1998 15.33 23.1998 15.3271C23.1998 15.3242 23.1998 15.3213 23.1998 15.3185C23.1998 15.3156 23.1998 15.3127 23.1998 15.3098C23.1998 15.3069 23.1998 15.304 23.1998 15.3011C23.1998 15.2982 23.1998 15.2953 23.1998 15.2924C23.1998 15.2895 23.1998 15.2866 23.1998 15.2838C23.1998 15.2809 23.1998 15.278 23.1998 15.2751C23.1998 15.2722 23.1998 15.2693 23.1998 15.2664C23.1998 15.2635 23.1998 15.2607 23.1998 15.2578C23.1998 15.2549 23.1998 15.252 23.1998 15.2491C23.1998 15.2462 23.1998 15.2434 23.1998 15.2405C23.1998 15.2376 23.1998 15.2347 23.1998 15.2318C23.1998 15.229 23.1998 15.2261 23.1998 15.2232C23.1998 15.2203 23.1998 15.2174 23.1998 15.2146C23.1998 15.2117 23.1998 15.2088 23.1998 15.2059C23.1998 15.2031 23.1998 15.2002 23.1998 15.1973C23.1998 15.1944 23.1998 15.1916 23.1998 15.1887C23.1998 15.1858 23.1998 15.1829 23.1998 15.1801C23.1998 15.1772 23.1998 15.1743 23.1998 15.1715C23.1998 15.1686 23.1998 15.1657 23.1998 15.1629C23.1998 15.16 23.1998 15.1571 23.1998 15.1543C23.1998 15.1514 23.1998 15.1485 23.1998 15.1457C23.1998 15.1428 23.1998 15.1399 23.1998 15.1371C23.1998 15.1342 23.1998 15.1314 23.1998 15.1285C23.1998 15.1256 23.1998 15.1228 23.1998 15.1199C23.1998 15.1171 23.1998 15.1142 23.1998 15.1114C23.1998 15.1085 23.1998 15.1057 23.1998 15.1028C23.1998 15.1 23.1998 15.0971 23.1998 15.0943C23.1998 15.0914 23.1998 15.0886 23.1998 15.0857C23.1998 15.0829 23.1998 15.08 23.1998 15.0772C23.1998 15.0743 23.1998 15.0715 23.1998 15.0686C23.1998 15.0658 23.1998 15.0629 23.1998 15.0601C23.1998 15.0573 23.1998 15.0544 23.1998 15.0516C23.1998 15.0488 23.1998 15.0459 23.1998 15.0431C23.1998 15.0402 23.1998 15.0374 23.1998 15.0346C23.1998 15.0317 23.1998 15.0289 23.1998 15.0261C23.1998 15.0233 23.1998 15.0204 23.1998 15.0176C23.1998 15.0148 23.1998 15.0119 23.1998 15.0091C23.1998 15.0063 23.1998 15.0035 23.1998 15.0006C23.1998 14.9978 23.1998 14.995 23.1998 14.9922C23.1998 14.9894 23.1998 14.9866 23.1998 14.9837C23.1998 14.9809 23.1998 14.9781 23.1998 14.9753C23.1998 14.9725 23.1998 14.9697 23.1998 14.9669C23.1998 14.964 23.1998 14.9612 23.1998 14.9584C23.1998 14.9556 23.1998 14.9528 23.1998 14.95C23.1998 14.9472 23.1998 14.9444 23.1998 14.9416C23.1998 14.9388 23.1998 14.936 23.1998 14.9332C23.1998 14.9304 23.1998 14.9276 23.1998 14.9248C23.1998 14.922 23.1998 14.9192 23.1998 14.9164C23.1998 14.9136 23.1998 14.9109 23.1998 14.9081C23.1998 14.9053 23.1998 14.9025 23.1998 14.8997C23.1998 14.8969 23.1998 14.8941 23.1998 14.8914C23.1998 14.8886 23.1998 14.8858 23.1998 14.883C23.1998 14.8802 23.1998 14.8775 23.1998 14.8747C23.1998 14.8719 23.1998 14.8692 23.1998 14.8664C23.1998 14.8636 23.1998 14.8608 23.1998 14.8581C23.1998 14.8553 23.1998 14.8525 23.1998 14.8498C23.1998 14.847 23.1998 14.8443 23.1998 14.8415C23.1998 14.8387 23.1998 14.836 23.1998 14.8332C23.1998 14.8305 23.1998 14.8277 23.1998 14.825C23.1998 14.8222 23.1998 14.8195 23.1998 14.8167C23.1998 14.814 23.1998 14.8112 23.1998 14.8085C23.1998 14.8057 23.1998 14.803 23.1998 14.8002C23.1998 14.7975 23.1998 14.7948 23.1998 14.792C23.1998 14.7893 23.1998 14.7866 23.1998 14.7838C23.1998 14.7811 23.1998 14.7784 23.1998 14.7756C23.1998 14.7729 23.1998 14.7702 23.1998 14.7675C23.1998 14.7647 23.1998 14.762 23.1998 14.7593C23.1998 14.7566 23.1998 14.7539 23.1998 14.7511C23.1998 14.7484 23.1998 14.7457 23.1998 14.743C23.1998 14.7403 23.1998 14.7376 23.1998 14.7349C23.1998 14.7322 23.1998 14.7295 23.1998 14.7268C23.1998 14.7241 23.1998 14.7214 23.1998 14.7187C23.1998 14.716 23.1998 14.7133 23.1998 14.7106C23.1998 14.7079 23.1998 14.7052 23.1998 14.7025C23.1998 14.6998 23.1998 14.6971 23.1998 14.6944C23.1998 14.6917 23.1998 14.6891 23.1998 14.6864C23.1998 14.6837 23.1998 14.681 23.1998 14.6784C23.1998 14.6757 23.1998 14.673 23.1998 14.6703C23.1998 14.6677 23.1998 14.665 23.1998 14.6623C23.1998 14.6597 23.1998 14.657 23.1998 14.6543C23.1998 14.6517 23.1998 14.649 23.1998 14.6464C23.1998 14.6437 23.1998 14.6411 23.1998 14.6384C23.1998 14.6357 23.1998 14.6331 23.1998 14.6305C23.1998 14.6278 23.1998 14.6252 23.1998 14.6225C23.1998 14.6199 23.1998 14.6172 23.1998 14.6146C23.1998 14.612 23.1998 14.6093 23.1998 14.6067C23.1998 14.6041 23.1998 14.6014 23.1998 14.5988C23.1998 14.5962 23.1998 14.5936 23.1998 14.5909C23.1998 14.5883 23.1998 14.5857 23.1998 14.5831C23.1998 14.5805 23.1998 14.5779 23.1998 14.5753C23.1998 14.5726 23.1998 14.57 23.1998 14.5674C23.1998 14.5648 23.1998 14.5622 23.1998 14.5596C23.1998 14.557 23.1998 14.5544 23.1998 14.5518C23.1998 14.5492 23.1998 14.5466 23.1998 14.5441C23.1998 14.5415 23.1998 14.5389 23.1998 14.5363C23.1998 14.5337 23.1998 14.5311 23.1998 14.5286C23.1998 14.526 23.1998 14.5234 23.1998 14.5208C23.1998 14.5183 23.1998 14.5157 23.1998 14.5131C23.1998 14.5106 23.1998 14.508 23.1998 14.5054C23.1998 14.5029 23.1998 14.5003 23.1998 14.4978C23.1998 14.4952 23.1998 14.4927 23.1998 14.4901C23.1998 14.4876 23.1998 14.485 23.1998 14.4825C23.1998 14.4799 23.1998 14.4774 23.1998 14.4749C23.1998 14.4723 23.1998 14.4698 23.1998 14.4673C23.1998 14.4647 23.1998 14.4622 23.1998 14.4597C23.1998 14.4571 23.1998 14.4546 23.1998 14.4521C23.1998 14.4496 23.1998 14.4471 23.1998 14.4446C23.1998 14.442 23.1998 14.4395 23.1998 14.437C23.1998 14.4345 23.1998 14.432 23.1998 14.4295C23.1998 14.427 23.1998 14.4245 23.1998 14.422C23.1998 14.4195 23.1998 14.417 23.1998 14.4145C23.1998 14.4121 23.1998 14.4096 23.1998 14.4071C23.1998 14.4046 23.1998 14.4021 23.1998 14.3997C23.1998 14.3972 23.1998 14.3947 23.1998 14.3922C23.1998 14.3898 23.1998 14.3873 23.1998 14.3848C23.1998 14.3824 23.1998 14.3799 23.1998 14.3775C23.1998 14.375 23.1998 14.3726 23.1998 14.3701C23.1998 14.3677 23.1998 14.3652 23.1998 14.3628C23.1998 14.3603 23.1998 14.3579 23.1998 14.3555C23.1998 14.353 23.1998 14.3506 23.1998 14.3482C23.1998 14.3457 23.1998 14.3433 23.1998 14.3409C23.1998 14.3385 23.1998 14.336 23.1998 14.3336C23.1998 14.3312 23.1998 14.3288 23.1998 14.3264C23.1998 14.324 23.1998 14.3216 23.1998 14.3192C23.1998 14.3168 23.1998 14.3144 23.1998 14.312C23.1998 14.3096 23.1998 14.3072 23.1998 14.3048C23.1998 14.3024 23.1998 14.3 23.1998 14.2977C23.1998 14.2953 23.1998 14.2929 23.1998 14.2905C23.1998 14.2882 23.1998 14.2858 23.1998 14.2834C23.1998 14.281 23.1998 14.2787 23.1998 14.2763C23.1998 14.274 23.1998 14.2716 23.1998 14.2693C23.1998 14.2669 23.1998 14.2646 23.1998 14.2622C23.1998 14.2599 23.1998 14.2575 23.1998 14.2552C23.1998 14.2529 23.1998 14.2505 23.1998 14.2482C23.1998 14.2459 23.1998 14.2435 23.1998 14.2412C23.1998 14.2389 23.1998 14.2366 23.1998 14.2343C23.1998 14.2319 23.1998 14.2296 23.1998 14.2273C23.1998 14.225 23.1998 14.2227 23.1998 14.2204C23.1998 14.2181 23.1998 14.2158 23.1998 14.2135C23.1998 14.2112 23.1998 14.209 23.1998 14.2067C23.1998 14.2044 23.1998 14.2021 23.1998 14.1998C23.1998 14.1975 23.1998 14.1953 23.1998 14.193C23.1998 14.1907 23.1998 14.1885 23.1998 14.1862C23.1998 14.184 23.1998 14.1817 23.1998 14.1794C23.1998 14.1772 23.1998 14.1749 23.1998 14.1727C23.1998 14.1705 23.1998 14.1682 23.1998 14.166C23.1998 14.1637 23.1998 14.1615 23.1998 14.1593C23.1998 14.157 23.1998 14.1548 23.1998 14.1526C23.1998 14.1504 23.1998 14.1482 23.1998 14.1459C23.1998 14.1437 23.1998 14.1415 23.1998 14.1393C23.1998 14.1371 23.1998 14.1349 23.1998 14.1327C23.1998 14.1305 23.1998 14.1283 23.1998 14.1261C23.1998 14.124 23.1998 14.1218 23.1998 14.1196C23.1998 14.1174 23.1998 14.1152 23.1998 14.1131C23.1998 14.1109 23.1998 14.1087 23.1998 14.1066C23.1998 14.1044 23.1998 14.1022 23.1998 14.1001C23.1998 14.0979 23.1998 14.0958 23.1998 14.0936C23.1998 14.0915 23.1998 14.0893 23.1998 14.0872C23.1998 14.0851 23.1998 14.0829 23.1998 14.0808C23.1998 14.0787 23.1998 14.0766 23.1998 14.0744C23.1998 14.0723 23.1998 14.0702 23.1998 14.0681C23.1998 14.066 23.1998 14.0639 23.1998 14.0618C23.1998 14.0597 23.1998 14.0576 23.1998 14.0555C23.1998 14.0534 23.1998 14.0513 23.1998 14.0492C23.1998 14.0471 23.1998 14.045 23.1998 14.043C23.1998 14.0409 23.1998 14.0388 23.1998 14.0367C23.1998 14.0347 23.1998 14.0326 23.1998 14.0306C23.1998 14.0285 23.1998 14.0265 23.1998 14.0244C23.1998 14.0224 23.1998 14.0203 23.1998 14.0183C23.1998 14.0162 23.1998 14.0142 23.1998 14.0122C23.1998 14.0101 23.1998 14.0081 23.1998 14.0061C23.1998 14.0041 23.1998 14.002 23.1998 14C23.1998 13.998 23.1998 13.996 23.1998 13.994C23.1998 13.992 23.1998 13.99 23.1998 13.988C23.1998 13.986 23.1998 13.984 23.1998 13.982C23.1998 13.9801 23.1998 13.9781 23.1998 13.9761C23.1998 13.9741 23.1998 13.9722 23.1998 13.9702C23.1998 13.9682 23.1998 13.9663 23.1998 13.9643C23.1998 13.9624 23.1998 13.9604 23.1998 13.9585C23.1998 13.9565 23.1998 13.9546 23.1998 13.9526C23.1998 13.9507 23.1998 13.9488 23.1998 13.9468C23.1998 13.9449 23.1998 13.943 23.1998 13.9411C23.1998 13.9391 23.1998 13.9372 23.1998 13.9353C23.1998 13.9334 23.1998 13.9315 23.1998 13.9296C23.1998 13.9277 23.1998 13.9258 23.1998 13.9239C23.1998 13.9221 23.1998 13.9202 23.1998 13.9183C23.1998 13.9164 23.1998 13.9145 23.1998 13.9127C23.1998 13.9108 23.1998 13.9089 23.1998 13.9071C23.1998 13.9052 23.1998 13.9034 23.1998 13.9015C23.1998 13.8997 23.1998 13.8978 23.1998 13.896C23.1998 13.8942 23.1998 13.8923 23.1998 13.8905C23.1998 13.8887 23.1998 13.8868 23.1998 13.885C23.1998 13.8832 23.1998 13.8814 23.1998 13.8796C23.1998 13.8778 23.1998 13.876 23.1998 13.8742C23.1998 13.8724 23.1998 13.8706 23.1998 13.8688C23.1998 13.867 23.1998 13.8652 23.1998 13.8635C23.1998 13.8617 23.1998 13.8599 23.1998 13.8581C23.1998 13.8564 23.1998 13.8546 23.1998 13.8529C23.1998 13.8511 23.1998 13.8494 23.1998 13.8476C23.1998 13.8459 23.1998 13.8441 23.1998 13.8424C23.1998 13.8407 23.1998 13.8389 23.1998 13.8372C23.1998 13.8355 23.1998 13.8338 23.1998 13.8321C23.1998 13.8303 23.1998 13.8286 23.1998 13.8269C23.1998 13.8252 23.1998 13.8235 23.1998 13.8218C23.1998 13.8201 23.1998 13.8185 23.1998 13.8168C23.1998 13.8151 23.1998 13.8134 23.1998 13.8118C23.1998 13.8101 23.1998 13.8084 23.1998 13.8068C23.1998 13.8051 23.1998 13.8034 23.1998 13.8018C23.1998 13.8002 23.1998 13.7985 23.1998 13.7969C23.1998 13.7952 23.1998 13.7936 23.1998 13.792C23.1998 13.7904 23.1998 13.7887 23.1998 13.7871C23.1998 13.7855 23.1998 13.7839 23.1998 13.7823C23.1998 13.7807 23.1998 13.7791 23.1998 13.7775C23.1998 13.7759 23.1998 13.7743 23.1998 13.7727C23.1998 13.7712 23.1998 13.7696 23.1998 13.768C23.1998 13.7664 23.1998 13.7649 23.1998 13.7633C23.1998 13.7618 23.1998 13.7602 23.1998 13.7587C23.1998 13.7571 23.1998 13.7556 23.1998 13.754C23.1998 13.7525 23.1998 13.751 23.1998 13.7494C23.1998 13.7479 23.1998 13.7464 23.1998 13.7449C23.1998 13.7434 23.1998 13.7419 23.1998 13.7404C23.1998 13.7389 23.1998 13.7374 23.1998 13.7359C23.1998 13.7344 23.1998 13.7329 23.1998 13.7314C23.1998 13.7299 23.1998 13.7285 23.1998 13.727C23.1998 13.7255 23.1998 13.7241 23.1998 13.7226C23.1998 13.7212 23.1998 13.7197 23.1998 13.7183C23.1998 13.7168 23.1998 13.7154 23.1998 13.714C23.1998 13.7125 23.1998 13.7111 23.1998 13.7097C23.1998 13.7083 23.1998 13.7069 23.1998 13.7055C23.1998 13.7041 23.1998 13.7027 23.1998 13.7013C23.1998 13.6999 23.1998 13.6985 23.1998 13.6971C23.1998 13.6957 23.1998 13.6943 23.1998 13.693C23.1998 13.6916 23.1998 13.6902 23.1998 13.6889C23.1998 13.6875 23.1998 13.6862 23.1998 13.6848C23.1998 13.6835 23.1998 13.6821 23.1998 13.6808C23.1998 13.6795 23.1998 13.6781 23.1998 13.6768C23.1998 13.6755 23.1998 13.6742 23.1998 13.6729C23.1998 13.6716 23.1998 13.6703 23.1998 13.669C23.1998 13.6677 23.1998 13.6664 23.1998 13.6651C23.1998 13.6638 23.1998 13.6625 23.1998 13.6613C23.1998 13.66 23.1998 13.6587 23.1998 13.6575C23.1998 13.6562 23.1998 13.6549 23.1998 13.6537C23.1998 13.6525 23.1998 13.6512 23.1998 13.65C23.1998 13.6487 23.1998 13.6475 23.1998 13.6463C23.1998 13.6451 23.1998 13.6439 23.1998 13.6427C23.1998 13.6414 23.1998 13.6402 23.1998 13.639C23.1998 13.6378 23.1998 13.6367 23.1998 13.6355C23.1998 13.6343 23.1998 13.6331 23.1998 13.6319C23.1998 13.6308 23.1998 13.6296 23.1998 13.6285C23.1998 13.6273 23.1998 13.6262 23.1998 13.625C23.1998 13.6239 23.1998 13.6227 23.1998 13.6216C23.1998 13.6205 23.1998 13.6193 23.1998 13.6182C23.1998 13.6171 23.1998 13.616 23.1998 13.6149C23.1998 13.6138 23.1998 13.6127 23.1998 13.6116C23.1998 13.6105 23.1998 13.6094 23.1998 13.6083C23.1998 13.6073 23.1998 13.6062 23.1998 13.6051C23.1998 13.6041 23.1998 13.603 23.1998 13.6019C23.1998 13.6009 23.1998 13.5998 23.1998 13.5988C23.1998 13.5978 23.1998 13.5967 23.1998 13.5957C23.1998 13.5947 23.1998 13.5937 23.1998 13.5927C23.1998 13.5916 23.1998 13.5906 23.1998 13.5896C23.1998 13.5886 23.1998 13.5877 23.1998 13.5867C23.1998 13.5857 23.1998 13.5847 23.1998 13.5837C23.1998 13.5828 23.1998 13.5818 23.1998 13.5808C23.1998 13.5799 23.1998 13.5789 23.1998 13.578C23.1998 13.577 23.1998 13.5761 23.1998 13.5752C23.1998 13.5743 23.1998 13.5733 23.1998 13.5724C23.1998 13.5715 23.1998 13.5706 23.1998 13.5697C23.1998 13.5688 23.1998 13.5679 23.1998 13.567C23.1998 13.5661 23.1998 13.5652 23.1998 13.5644C23.1998 13.5635 23.1998 13.5626 23.1998 13.5618C23.1998 13.5609 23.1998 13.56 23.1998 13.5592C23.1998 13.5583 23.1998 13.5575 23.1998 13.5567C23.1998 13.5558 23.1998 13.555 23.1998 13.5542C23.1998 13.5534 23.1998 13.5526 23.1998 13.5518C23.1998 13.551 23.1998 13.5502 23.1998 13.5494C23.1998 13.5486 23.1998 13.5478 23.1998 13.547C23.1998 13.5463 23.1998 13.5455 23.1998 13.5447C23.1998 13.544 23.1998 13.5432 23.1998 13.5425C23.1998 13.5417 23.1998 13.541 23.1998 13.5402C23.1998 13.5395 23.1998 13.5388 23.1998 13.5381C23.1998 13.5374 23.1998 13.5366 23.1998 13.5359C23.1998 13.5352 23.1998 13.5345 23.1998 13.5339C23.1998 13.5332 23.1998 13.5325 23.1998 13.5318C23.1998 13.5311 23.1998 13.5305 23.1998 13.5298C23.1998 13.5292 23.1998 13.5285 23.1998 13.5279C23.1998 13.5272 23.1998 13.5266 23.1998 13.5259C23.1998 13.5253 23.1998 13.5247 23.1998 13.5241C23.1998 13.5235 23.1998 13.5229 23.1998 13.5223C23.1998 13.5217 23.1998 13.5211 23.1998 13.5205C23.1998 13.5199 23.1998 13.5193 23.1998 13.5187C23.1998 13.5182 23.1998 13.5176 23.1998 13.5171C23.1998 13.5165 23.1998 13.5159 23.1998 13.5154C23.1998 13.5149 23.1998 13.5143 23.1998 13.5138C23.1998 13.5133 23.1998 13.5128 23.1998 13.5123C23.1998 13.5117 23.1998 13.5112 23.1998 13.5107C23.1998 13.5103 23.1998 13.5098 23.1998 13.5093C23.1998 13.5088 23.1998 13.5083 23.1998 13.5079C23.1998 13.5074 23.1998 13.5069 23.1998 13.5065C23.1998 13.5061 23.1998 13.5056 23.1998 13.5052C23.1998 13.5047 23.1998 13.5043 23.1998 13.5039C23.1998 13.5035 23.1998 13.5031 23.1998 13.5027C23.1998 13.5023 23.1998 13.5019 23.1998 13.5015C23.1998 13.5011 23.1998 13.5007 23.1998 13.5003C23.1998 13.5 23.1998 13.4996 23.1998 13.4993C23.1998 13.4989 23.1998 13.4985 23.1998 13.4982C23.1998 13.4979 23.1998 13.4975 23.1998 13.4972C23.1998 13.4969 23.1998 13.4966 23.1998 13.4963C23.1998 13.496 23.1998 13.4957 23.1998 13.4954C23.1998 13.4951 23.1998 13.4948 23.1998 13.4945C23.1998 13.4942 23.1998 13.494 23.1998 13.4937C23.1998 13.4934 23.1998 13.4932 23.1998 13.4929C23.1998 13.4927 23.1998 13.4925 23.1998 13.4922C23.1998 13.492 23.1998 13.4918 23.1998 13.4916C23.1998 13.4913 23.1998 13.4911 23.1998 13.4909C23.1998 13.4907 23.1998 13.4906 23.1998 13.4904C23.1998 13.4902 23.1998 13.49 23.1998 13.4899C23.1998 13.4897 23.1998 13.4895 23.1998 13.4894C23.1998 13.4892 23.1998 13.4891 23.1998 13.489C23.1998 13.4888 23.1998 13.4887 23.1998 13.4886C23.1998 13.4885 23.1998 13.4884 23.1998 13.4883C23.1998 13.4882 23.1998 13.4881 23.1998 13.488C23.1998 13.4879 23.1998 13.4878 23.1998 13.4878C23.1998 13.4877 23.1998 13.4877 23.1998 13.4876C23.1998 13.4876 23.1998 13.4875 23.1998 13.4875C23.1998 13.4874 23.1998 13.4874 23.1998 13.4874C23.1998 13.4874 23.1998 13.4874 22.1998 13.4874C21.1998 13.4874 21.1998 13.4874 21.1998 13.4874C21.1998 13.4874 21.1998 13.4874 21.1998 13.4875C21.1998 13.4875 21.1998 13.4876 21.1998 13.4876C21.1998 13.4877 21.1998 13.4877 21.1998 13.4878C21.1998 13.4878 21.1998 13.4879 21.1998 13.488C21.1998 13.4881 21.1998 13.4882 21.1998 13.4883C21.1998 13.4884 21.1998 13.4885 21.1998 13.4886C21.1998 13.4887 21.1998 13.4888 21.1998 13.489C21.1998 13.4891 21.1998 13.4892 21.1998 13.4894C21.1998 13.4895 21.1998 13.4897 21.1998 13.4899C21.1998 13.49 21.1998 13.4902 21.1998 13.4904C21.1998 13.4906 21.1998 13.4907 21.1998 13.4909C21.1998 13.4911 21.1998 13.4913 21.1998 13.4916C21.1998 13.4918 21.1998 13.492 21.1998 13.4922C21.1998 13.4925 21.1998 13.4927 21.1998 13.4929C21.1998 13.4932 21.1998 13.4934 21.1998 13.4937C21.1998 13.494 21.1998 13.4942 21.1998 13.4945C21.1998 13.4948 21.1998 13.4951 21.1998 13.4954C21.1998 13.4957 21.1998 13.496 21.1998 13.4963C21.1998 13.4966 21.1998 13.4969 21.1998 13.4972C21.1998 13.4975 21.1998 13.4979 21.1998 13.4982C21.1998 13.4985 21.1998 13.4989 21.1998 13.4993C21.1998 13.4996 21.1998 13.5 21.1998 13.5003C21.1998 13.5007 21.1998 13.5011 21.1998 13.5015C21.1998 13.5019 21.1998 13.5023 21.1998 13.5027C21.1998 13.5031 21.1998 13.5035 21.1998 13.5039C21.1998 13.5043 21.1998 13.5047 21.1998 13.5052C21.1998 13.5056 21.1998 13.5061 21.1998 13.5065C21.1998 13.5069 21.1998 13.5074 21.1998 13.5079C21.1998 13.5083 21.1998 13.5088 21.1998 13.5093C21.1998 13.5098 21.1998 13.5103 21.1998 13.5107C21.1998 13.5112 21.1998 13.5117 21.1998 13.5123C21.1998 13.5128 21.1998 13.5133 21.1998 13.5138C21.1998 13.5143 21.1998 13.5149 21.1998 13.5154C21.1998 13.5159 21.1998 13.5165 21.1998 13.5171C21.1998 13.5176 21.1998 13.5182 21.1998 13.5187C21.1998 13.5193 21.1998 13.5199 21.1998 13.5205C21.1998 13.5211 21.1998 13.5217 21.1998 13.5223C21.1998 13.5229 21.1998 13.5235 21.1998 13.5241C21.1998 13.5247 21.1998 13.5253 21.1998 13.5259C21.1998 13.5266 21.1998 13.5272 21.1998 13.5279C21.1998 13.5285 21.1998 13.5292 21.1998 13.5298C21.1998 13.5305 21.1998 13.5311 21.1998 13.5318C21.1998 13.5325 21.1998 13.5332 21.1998 13.5339C21.1998 13.5345 21.1998 13.5352 21.1998 13.5359C21.1998 13.5366 21.1998 13.5374 21.1998 13.5381C21.1998 13.5388 21.1998 13.5395 21.1998 13.5402C21.1998 13.541 21.1998 13.5417 21.1998 13.5425C21.1998 13.5432 21.1998 13.544 21.1998 13.5447C21.1998 13.5455 21.1998 13.5463 21.1998 13.547C21.1998 13.5478 21.1998 13.5486 21.1998 13.5494C21.1998 13.5502 21.1998 13.551 21.1998 13.5518C21.1998 13.5526 21.1998 13.5534 21.1998 13.5542C21.1998 13.555 21.1998 13.5558 21.1998 13.5567C21.1998 13.5575 21.1998 13.5583 21.1998 13.5592C21.1998 13.56 21.1998 13.5609 21.1998 13.5618C21.1998 13.5626 21.1998 13.5635 21.1998 13.5644C21.1998 13.5652 21.1998 13.5661 21.1998 13.567C21.1998 13.5679 21.1998 13.5688 21.1998 13.5697C21.1998 13.5706 21.1998 13.5715 21.1998 13.5724C21.1998 13.5733 21.1998 13.5743 21.1998 13.5752C21.1998 13.5761 21.1998 13.577 21.1998 13.578C21.1998 13.5789 21.1998 13.5799 21.1998 13.5808C21.1998 13.5818 21.1998 13.5828 21.1998 13.5837C21.1998 13.5847 21.1998 13.5857 21.1998 13.5867C21.1998 13.5877 21.1998 13.5886 21.1998 13.5896C21.1998 13.5906 21.1998 13.5916 21.1998 13.5927C21.1998 13.5937 21.1998 13.5947 21.1998 13.5957C21.1998 13.5967 21.1998 13.5978 21.1998 13.5988C21.1998 13.5998 21.1998 13.6009 21.1998 13.6019C21.1998 13.603 21.1998 13.6041 21.1998 13.6051C21.1998 13.6062 21.1998 13.6073 21.1998 13.6083C21.1998 13.6094 21.1998 13.6105 21.1998 13.6116C21.1998 13.6127 21.1998 13.6138 21.1998 13.6149C21.1998 13.616 21.1998 13.6171 21.1998 13.6182C21.1998 13.6193 21.1998 13.6205 21.1998 13.6216C21.1998 13.6227 21.1998 13.6239 21.1998 13.625C21.1998 13.6262 21.1998 13.6273 21.1998 13.6285C21.1998 13.6296 21.1998 13.6308 21.1998 13.6319C21.1998 13.6331 21.1998 13.6343 21.1998 13.6355C21.1998 13.6367 21.1998 13.6378 21.1998 13.639C21.1998 13.6402 21.1998 13.6414 21.1998 13.6427C21.1998 13.6439 21.1998 13.6451 21.1998 13.6463C21.1998 13.6475 21.1998 13.6487 21.1998 13.65C21.1998 13.6512 21.1998 13.6525 21.1998 13.6537C21.1998 13.6549 21.1998 13.6562 21.1998 13.6575C21.1998 13.6587 21.1998 13.66 21.1998 13.6613C21.1998 13.6625 21.1998 13.6638 21.1998 13.6651C21.1998 13.6664 21.1998 13.6677 21.1998 13.669C21.1998 13.6703 21.1998 13.6716 21.1998 13.6729C21.1998 13.6742 21.1998 13.6755 21.1998 13.6768C21.1998 13.6781 21.1998 13.6795 21.1998 13.6808C21.1998 13.6821 21.1998 13.6835 21.1998 13.6848C21.1998 13.6862 21.1998 13.6875 21.1998 13.6889C21.1998 13.6902 21.1998 13.6916 21.1998 13.693C21.1998 13.6943 21.1998 13.6957 21.1998 13.6971C21.1998 13.6985 21.1998 13.6999 21.1998 13.7013C21.1998 13.7027 21.1998 13.7041 21.1998 13.7055C21.1998 13.7069 21.1998 13.7083 21.1998 13.7097C21.1998 13.7111 21.1998 13.7125 21.1998 13.714C21.1998 13.7154 21.1998 13.7168 21.1998 13.7183C21.1998 13.7197 21.1998 13.7212 21.1998 13.7226C21.1998 13.7241 21.1998 13.7255 21.1998 13.727C21.1998 13.7285 21.1998 13.7299 21.1998 13.7314C21.1998 13.7329 21.1998 13.7344 21.1998 13.7359C21.1998 13.7374 21.1998 13.7389 21.1998 13.7404C21.1998 13.7419 21.1998 13.7434 21.1998 13.7449C21.1998 13.7464 21.1998 13.7479 21.1998 13.7494C21.1998 13.751 21.1998 13.7525 21.1998 13.754C21.1998 13.7556 21.1998 13.7571 21.1998 13.7587C21.1998 13.7602 21.1998 13.7618 21.1998 13.7633C21.1998 13.7649 21.1998 13.7664 21.1998 13.768C21.1998 13.7696 21.1998 13.7712 21.1998 13.7727C21.1998 13.7743 21.1998 13.7759 21.1998 13.7775C21.1998 13.7791 21.1998 13.7807 21.1998 13.7823C21.1998 13.7839 21.1998 13.7855 21.1998 13.7871C21.1998 13.7887 21.1998 13.7904 21.1998 13.792C21.1998 13.7936 21.1998 13.7952 21.1998 13.7969C21.1998 13.7985 21.1998 13.8002 21.1998 13.8018C21.1998 13.8034 21.1998 13.8051 21.1998 13.8068C21.1998 13.8084 21.1998 13.8101 21.1998 13.8118C21.1998 13.8134 21.1998 13.8151 21.1998 13.8168C21.1998 13.8185 21.1998 13.8201 21.1998 13.8218C21.1998 13.8235 21.1998 13.8252 21.1998 13.8269C21.1998 13.8286 21.1998 13.8303 21.1998 13.8321C21.1998 13.8338 21.1998 13.8355 21.1998 13.8372C21.1998 13.8389 21.1998 13.8407 21.1998 13.8424C21.1998 13.8441 21.1998 13.8459 21.1998 13.8476C21.1998 13.8494 21.1998 13.8511 21.1998 13.8529C21.1998 13.8546 21.1998 13.8564 21.1998 13.8581C21.1998 13.8599 21.1998 13.8617 21.1998 13.8635C21.1998 13.8652 21.1998 13.867 21.1998 13.8688C21.1998 13.8706 21.1998 13.8724 21.1998 13.8742C21.1998 13.876 21.1998 13.8778 21.1998 13.8796C21.1998 13.8814 21.1998 13.8832 21.1998 13.885C21.1998 13.8868 21.1998 13.8887 21.1998 13.8905C21.1998 13.8923 21.1998 13.8942 21.1998 13.896C21.1998 13.8978 21.1998 13.8997 21.1998 13.9015C21.1998 13.9034 21.1998 13.9052 21.1998 13.9071C21.1998 13.9089 21.1998 13.9108 21.1998 13.9127C21.1998 13.9145 21.1998 13.9164 21.1998 13.9183C21.1998 13.9202 21.1998 13.9221 21.1998 13.9239C21.1998 13.9258 21.1998 13.9277 21.1998 13.9296C21.1998 13.9315 21.1998 13.9334 21.1998 13.9353C21.1998 13.9372 21.1998 13.9391 21.1998 13.9411C21.1998 13.943 21.1998 13.9449 21.1998 13.9468C21.1998 13.9488 21.1998 13.9507 21.1998 13.9526C21.1998 13.9546 21.1998 13.9565 21.1998 13.9585C21.1998 13.9604 21.1998 13.9624 21.1998 13.9643C21.1998 13.9663 21.1998 13.9682 21.1998 13.9702C21.1998 13.9722 21.1998 13.9741 21.1998 13.9761C21.1998 13.9781 21.1998 13.9801 21.1998 13.982C21.1998 13.984 21.1998 13.986 21.1998 13.988C21.1998 13.99 21.1998 13.992 21.1998 13.994C21.1998 13.996 21.1998 13.998 21.1998 14C21.1998 14.002 21.1998 14.0041 21.1998 14.0061C21.1998 14.0081 21.1998 14.0101 21.1998 14.0122C21.1998 14.0142 21.1998 14.0162 21.1998 14.0183C21.1998 14.0203 21.1998 14.0224 21.1998 14.0244C21.1998 14.0265 21.1998 14.0285 21.1998 14.0306C21.1998 14.0326 21.1998 14.0347 21.1998 14.0367C21.1998 14.0388 21.1998 14.0409 21.1998 14.043C21.1998 14.045 21.1998 14.0471 21.1998 14.0492C21.1998 14.0513 21.1998 14.0534 21.1998 14.0555C21.1998 14.0576 21.1998 14.0597 21.1998 14.0618C21.1998 14.0639 21.1998 14.066 21.1998 14.0681C21.1998 14.0702 21.1998 14.0723 21.1998 14.0744C21.1998 14.0766 21.1998 14.0787 21.1998 14.0808C21.1998 14.0829 21.1998 14.0851 21.1998 14.0872C21.1998 14.0893 21.1998 14.0915 21.1998 14.0936C21.1998 14.0958 21.1998 14.0979 21.1998 14.1001C21.1998 14.1022 21.1998 14.1044 21.1998 14.1066C21.1998 14.1087 21.1998 14.1109 21.1998 14.1131C21.1998 14.1152 21.1998 14.1174 21.1998 14.1196C21.1998 14.1218 21.1998 14.124 21.1998 14.1261C21.1998 14.1283 21.1998 14.1305 21.1998 14.1327C21.1998 14.1349 21.1998 14.1371 21.1998 14.1393C21.1998 14.1415 21.1998 14.1437 21.1998 14.1459C21.1998 14.1482 21.1998 14.1504 21.1998 14.1526C21.1998 14.1548 21.1998 14.157 21.1998 14.1593C21.1998 14.1615 21.1998 14.1637 21.1998 14.166C21.1998 14.1682 21.1998 14.1705 21.1998 14.1727C21.1998 14.1749 21.1998 14.1772 21.1998 14.1794C21.1998 14.1817 21.1998 14.184 21.1998 14.1862C21.1998 14.1885 21.1998 14.1907 21.1998 14.193C21.1998 14.1953 21.1998 14.1975 21.1998 14.1998C21.1998 14.2021 21.1998 14.2044 21.1998 14.2067C21.1998 14.209 21.1998 14.2112 21.1998 14.2135C21.1998 14.2158 21.1998 14.2181 21.1998 14.2204C21.1998 14.2227 21.1998 14.225 21.1998 14.2273C21.1998 14.2296 21.1998 14.2319 21.1998 14.2343C21.1998 14.2366 21.1998 14.2389 21.1998 14.2412C21.1998 14.2435 21.1998 14.2459 21.1998 14.2482C21.1998 14.2505 21.1998 14.2529 21.1998 14.2552C21.1998 14.2575 21.1998 14.2599 21.1998 14.2622C21.1998 14.2646 21.1998 14.2669 21.1998 14.2693C21.1998 14.2716 21.1998 14.274 21.1998 14.2763C21.1998 14.2787 21.1998 14.281 21.1998 14.2834C21.1998 14.2858 21.1998 14.2882 21.1998 14.2905C21.1998 14.2929 21.1998 14.2953 21.1998 14.2977C21.1998 14.3 21.1998 14.3024 21.1998 14.3048C21.1998 14.3072 21.1998 14.3096 21.1998 14.312C21.1998 14.3144 21.1998 14.3168 21.1998 14.3192C21.1998 14.3216 21.1998 14.324 21.1998 14.3264C21.1998 14.3288 21.1998 14.3312 21.1998 14.3336C21.1998 14.336 21.1998 14.3385 21.1998 14.3409C21.1998 14.3433 21.1998 14.3457 21.1998 14.3482C21.1998 14.3506 21.1998 14.353 21.1998 14.3555C21.1998 14.3579 21.1998 14.3603 21.1998 14.3628C21.1998 14.3652 21.1998 14.3677 21.1998 14.3701C21.1998 14.3726 21.1998 14.375 21.1998 14.3775C21.1998 14.3799 21.1998 14.3824 21.1998 14.3848C21.1998 14.3873 21.1998 14.3898 21.1998 14.3922C21.1998 14.3947 21.1998 14.3972 21.1998 14.3997C21.1998 14.4021 21.1998 14.4046 21.1998 14.4071C21.1998 14.4096 21.1998 14.4121 21.1998 14.4145C21.1998 14.417 21.1998 14.4195 21.1998 14.422C21.1998 14.4245 21.1998 14.427 21.1998 14.4295C21.1998 14.432 21.1998 14.4345 21.1998 14.437C21.1998 14.4395 21.1998 14.442 21.1998 14.4446C21.1998 14.4471 21.1998 14.4496 21.1998 14.4521C21.1998 14.4546 21.1998 14.4571 21.1998 14.4597C21.1998 14.4622 21.1998 14.4647 21.1998 14.4673C21.1998 14.4698 21.1998 14.4723 21.1998 14.4749C21.1998 14.4774 21.1998 14.4799 21.1998 14.4825C21.1998 14.485 21.1998 14.4876 21.1998 14.4901C21.1998 14.4927 21.1998 14.4952 21.1998 14.4978C21.1998 14.5003 21.1998 14.5029 21.1998 14.5054C21.1998 14.508 21.1998 14.5106 21.1998 14.5131C21.1998 14.5157 21.1998 14.5183 21.1998 14.5208C21.1998 14.5234 21.1998 14.526 21.1998 14.5286C21.1998 14.5311 21.1998 14.5337 21.1998 14.5363C21.1998 14.5389 21.1998 14.5415 21.1998 14.5441C21.1998 14.5466 21.1998 14.5492 21.1998 14.5518C21.1998 14.5544 21.1998 14.557 21.1998 14.5596C21.1998 14.5622 21.1998 14.5648 21.1998 14.5674C21.1998 14.57 21.1998 14.5726 21.1998 14.5753C21.1998 14.5779 21.1998 14.5805 21.1998 14.5831C21.1998 14.5857 21.1998 14.5883 21.1998 14.5909C21.1998 14.5936 21.1998 14.5962 21.1998 14.5988C21.1998 14.6014 21.1998 14.6041 21.1998 14.6067C21.1998 14.6093 21.1998 14.612 21.1998 14.6146C21.1998 14.6172 21.1998 14.6199 21.1998 14.6225C21.1998 14.6252 21.1998 14.6278 21.1998 14.6305C21.1998 14.6331 21.1998 14.6357 21.1998 14.6384C21.1998 14.6411 21.1998 14.6437 21.1998 14.6464C21.1998 14.649 21.1998 14.6517 21.1998 14.6543C21.1998 14.657 21.1998 14.6597 21.1998 14.6623C21.1998 14.665 21.1998 14.6677 21.1998 14.6703C21.1998 14.673 21.1998 14.6757 21.1998 14.6784C21.1998 14.681 21.1998 14.6837 21.1998 14.6864C21.1998 14.6891 21.1998 14.6917 21.1998 14.6944C21.1998 14.6971 21.1998 14.6998 21.1998 14.7025C21.1998 14.7052 21.1998 14.7079 21.1998 14.7106C21.1998 14.7133 21.1998 14.716 21.1998 14.7187C21.1998 14.7214 21.1998 14.7241 21.1998 14.7268C21.1998 14.7295 21.1998 14.7322 21.1998 14.7349C21.1998 14.7376 21.1998 14.7403 21.1998 14.743C21.1998 14.7457 21.1998 14.7484 21.1998 14.7511C21.1998 14.7539 21.1998 14.7566 21.1998 14.7593C21.1998 14.762 21.1998 14.7647 21.1998 14.7675C21.1998 14.7702 21.1998 14.7729 21.1998 14.7756C21.1998 14.7784 21.1998 14.7811 21.1998 14.7838C21.1998 14.7866 21.1998 14.7893 21.1998 14.792C21.1998 14.7948 21.1998 14.7975 21.1998 14.8002C21.1998 14.803 21.1998 14.8057 21.1998 14.8085C21.1998 14.8112 21.1998 14.814 21.1998 14.8167C21.1998 14.8195 21.1998 14.8222 21.1998 14.825C21.1998 14.8277 21.1998 14.8305 21.1998 14.8332C21.1998 14.836 21.1998 14.8387 21.1998 14.8415C21.1998 14.8443 21.1998 14.847 21.1998 14.8498C21.1998 14.8525 21.1998 14.8553 21.1998 14.8581C21.1998 14.8608 21.1998 14.8636 21.1998 14.8664C21.1998 14.8692 21.1998 14.8719 21.1998 14.8747C21.1998 14.8775 21.1998 14.8802 21.1998 14.883C21.1998 14.8858 21.1998 14.8886 21.1998 14.8914C21.1998 14.8941 21.1998 14.8969 21.1998 14.8997C21.1998 14.9025 21.1998 14.9053 21.1998 14.9081C21.1998 14.9109 21.1998 14.9136 21.1998 14.9164C21.1998 14.9192 21.1998 14.922 21.1998 14.9248C21.1998 14.9276 21.1998 14.9304 21.1998 14.9332C21.1998 14.936 21.1998 14.9388 21.1998 14.9416C21.1998 14.9444 21.1998 14.9472 21.1998 14.95C21.1998 14.9528 21.1998 14.9556 21.1998 14.9584C21.1998 14.9612 21.1998 14.964 21.1998 14.9669C21.1998 14.9697 21.1998 14.9725 21.1998 14.9753C21.1998 14.9781 21.1998 14.9809 21.1998 14.9837C21.1998 14.9866 21.1998 14.9894 21.1998 14.9922C21.1998 14.995 21.1998 14.9978 21.1998 15.0006C21.1998 15.0035 21.1998 15.0063 21.1998 15.0091C21.1998 15.0119 21.1998 15.0148 21.1998 15.0176C21.1998 15.0204 21.1998 15.0233 21.1998 15.0261C21.1998 15.0289 21.1998 15.0317 21.1998 15.0346C21.1998 15.0374 21.1998 15.0402 21.1998 15.0431C21.1998 15.0459 21.1998 15.0488 21.1998 15.0516C21.1998 15.0544 21.1998 15.0573 21.1998 15.0601C21.1998 15.0629 21.1998 15.0658 21.1998 15.0686C21.1998 15.0715 21.1998 15.0743 21.1998 15.0772C21.1998 15.08 21.1998 15.0829 21.1998 15.0857C21.1998 15.0886 21.1998 15.0914 21.1998 15.0943C21.1998 15.0971 21.1998 15.1 21.1998 15.1028C21.1998 15.1057 21.1998 15.1085 21.1998 15.1114C21.1998 15.1142 21.1998 15.1171 21.1998 15.1199C21.1998 15.1228 21.1998 15.1256 21.1998 15.1285C21.1998 15.1314 21.1998 15.1342 21.1998 15.1371C21.1998 15.1399 21.1998 15.1428 21.1998 15.1457C21.1998 15.1485 21.1998 15.1514 21.1998 15.1543C21.1998 15.1571 21.1998 15.16 21.1998 15.1629C21.1998 15.1657 21.1998 15.1686 21.1998 15.1715C21.1998 15.1743 21.1998 15.1772 21.1998 15.1801C21.1998 15.1829 21.1998 15.1858 21.1998 15.1887C21.1998 15.1916 21.1998 15.1944 21.1998 15.1973C21.1998 15.2002 21.1998 15.2031 21.1998 15.2059C21.1998 15.2088 21.1998 15.2117 21.1998 15.2146C21.1998 15.2174 21.1998 15.2203 21.1998 15.2232C21.1998 15.2261 21.1998 15.229 21.1998 15.2318C21.1998 15.2347 21.1998 15.2376 21.1998 15.2405C21.1998 15.2434 21.1998 15.2462 21.1998 15.2491C21.1998 15.252 21.1998 15.2549 21.1998 15.2578C21.1998 15.2607 21.1998 15.2635 21.1998 15.2664C21.1998 15.2693 21.1998 15.2722 21.1998 15.2751C21.1998 15.278 21.1998 15.2809 21.1998 15.2838C21.1998 15.2866 21.1998 15.2895 21.1998 15.2924C21.1998 15.2953 21.1998 15.2982 21.1998 15.3011C21.1998 15.304 21.1998 15.3069 21.1998 15.3098C21.1998 15.3127 21.1998 15.3156 21.1998 15.3185C21.1998 15.3213 21.1998 15.3242 21.1998 15.3271C21.1998 15.33 21.1998 15.3329 21.1998 15.3358C21.1998 15.3387 21.1998 15.3416 21.1998 15.3445C21.1998 15.3474 21.1998 15.3503 21.1998 15.3532C21.1998 15.3561 21.1998 15.359 21.1998 15.3619C21.1998 15.3648 21.1998 15.3677 21.1998 15.3706C21.1998 15.3735 21.1998 15.3764 21.1998 15.3793C21.1998 15.3822 21.1998 15.3851 21.1998 15.388C21.1998 15.3909 21.1998 15.3938 21.1998 15.3967C21.1998 15.3996 21.1998 15.4025 21.1998 15.4054C21.1998 15.4083 21.1998 15.4112 21.1998 15.4141C21.1998 15.417 21.1998 15.4199 21.1998 15.4228C21.1998 15.4257 21.1998 15.4286 21.1998 15.4315C21.1998 15.4344 21.1998 15.4373 21.1998 15.4402C21.1998 15.4431 21.1998 15.446 21.1998 15.4489C21.1998 15.4518 21.1998 15.4547 21.1998 15.4576C21.1998 15.4605 21.1998 15.4634 21.1998 15.4663C21.1998 15.4692 21.1998 15.4722 21.1998 15.4751C21.1998 15.478 21.1998 15.4809 21.1998 15.4838C21.1998 15.4867 21.1998 15.4896 21.1998 15.4925C21.1998 15.4954 21.1998 15.4983 21.1998 15.5012C21.1998 15.5041 21.1998 15.507 21.1998 15.5099C21.1998 15.5128 21.1998 15.5157 21.1998 15.5186C21.1998 15.5215 21.1998 15.5244 21.1998 15.5273C21.1998 15.5302 21.1998 15.5331 21.1998 15.5361C21.1998 15.539 21.1998 15.5419 21.1998 15.5448C21.1998 15.5477 21.1998 15.5506 21.1998 15.5535C21.1998 15.5564 21.1998 15.5593 21.1998 15.5622C21.1998 15.5651 21.1998 15.568 21.1998 15.5709C21.1998 15.5738 21.1998 15.5767 21.1998 15.5796C21.1998 15.5825 21.1998 15.5854 21.1998 15.5883C21.1998 15.5912 21.1998 15.5941 21.1998 15.597C21.1998 15.5999 21.1998 15.6028 21.1998 15.6057C21.1998 15.6086 21.1998 15.6115 21.1998 15.6144C21.1998 15.6173 21.1998 15.6202 21.1998 15.6231C21.1998 15.626 21.1998 15.6289 21.1998 15.6318C21.1998 15.6347 21.1998 15.6376 21.1998 15.6405C21.1998 15.6434 21.1998 15.6463 21.1998 15.6492C21.1998 15.6521 21.1998 15.655 21.1998 15.6579C21.1998 15.6608 21.1998 15.6637 21.1998 15.6666C21.1998 15.6695 21.1998 15.6724 21.1998 15.6753C21.1998 15.6782 21.1998 15.6811 21.1998 15.684C21.1998 15.6869 21.1998 15.6898 21.1998 15.6927C21.1998 15.6956 21.1998 15.6985 21.1998 15.7013C21.1998 15.7042 21.1998 15.7071 21.1998 15.71C21.1998 15.7129 21.1998 15.7158 21.1998 15.7187C21.1998 15.7216 21.1998 15.7245 21.1998 15.7274C21.1998 15.7303 21.1998 15.7331 21.1998 15.736C21.1998 15.7389 21.1998 15.7418 21.1998 15.7447C21.1998 15.7476 21.1998 15.7505 21.1998 15.7534C21.1998 15.7562 21.1998 15.7591 21.1998 15.762C21.1998 15.7649 21.1998 15.7678 21.1998 15.7707C21.1998 15.7735 21.1998 15.7764 21.1998 15.7793C21.1998 15.7822 21.1998 15.7851 21.1998 15.7879C21.1998 15.7908 21.1998 15.7937 21.1998 15.7966C21.1998 15.7995 21.1998 15.8023 21.1998 15.8052C21.1998 15.8081 21.1998 15.811 21.1998 15.8138C21.1998 15.8167 21.1998 15.8196 21.1998 15.8225C21.1998 15.8253 21.1998 15.8282 21.1998 15.8311C21.1998 15.8339 21.1998 15.8368 21.1998 15.8397C21.1998 15.8426 21.1998 15.8454 21.1998 15.8483C21.1998 15.8512 21.1998 15.854 21.1998 15.8569C21.1998 15.8598 21.1998 15.8626 21.1998 15.8655C21.1998 15.8683 21.1998 15.8712 21.1998 15.8741C21.1998 15.8769 21.1998 15.8798 21.1998 15.8827C21.1998 15.8855 21.1998 15.8884 21.1998 15.8912C21.1998 15.8941 21.1998 15.8969 21.1998 15.8998C21.1998 15.9027 21.1998 15.9055 21.1998 15.9084C21.1998 15.9112 21.1998 15.9141 21.1998 15.9169C21.1998 15.9198 21.1998 15.9226 21.1998 15.9255C21.1998 15.9283 21.1998 15.9312 21.1998 15.934C21.1998 15.9369 21.1998 15.9397 21.1998 15.9425C21.1998 15.9454 21.1998 15.9482 21.1998 15.9511C21.1998 15.9539 21.1998 15.9568 21.1998 15.9596C21.1998 15.9624 21.1998 15.9653 21.1998 15.9681C21.1998 15.9709 21.1998 15.9738 21.1998 15.9766C21.1998 15.9794 21.1998 15.9823 21.1998 15.9851C21.1998 15.9879 21.1998 15.9908 21.1998 15.9936C21.1998 15.9964 21.1998 15.9992 21.1998 16.0021C21.1998 16.0049 21.1998 16.0077 21.1998 16.0105C21.1998 16.0134 21.1998 16.0162 21.1998 16.019C21.1998 16.0218 21.1998 16.0247 21.1998 16.0275C21.1998 16.0303 21.1998 16.0331 21.1998 16.0359C21.1998 16.0387 21.1998 16.0415 21.1998 16.0444C21.1998 16.0472 21.1998 16.05 21.1998 16.0528C21.1998 16.0556 21.1998 16.0584 21.1998 16.0612C21.1998 16.064 21.1998 16.0668 21.1998 16.0696C21.1998 16.0724 21.1998 16.0752 21.1998 16.078C21.1998 16.0808 21.1998 16.0836 21.1998 16.0864C21.1998 16.0892 21.1998 16.092 21.1998 16.0948C21.1998 16.0976 21.1998 16.1004 21.1998 16.1032C21.1998 16.106 21.1998 16.1087 21.1998 16.1115C21.1998 16.1143 21.1998 16.1171 21.1998 16.1199C21.1998 16.1227 21.1998 16.1254 21.1998 16.1282C21.1998 16.131 21.1998 16.1338 21.1998 16.1366C21.1998 16.1393 21.1998 16.1421 21.1998 16.1449C21.1998 16.1476 21.1998 16.1504 21.1998 16.1532C21.1998 16.156 21.1998 16.1587 21.1998 16.1615C21.1998 16.1642 21.1998 16.167 21.1998 16.1698C21.1998 16.1725 21.1998 16.1753 21.1998 16.178C21.1998 16.1808 21.1998 16.1836 21.1998 16.1863C21.1998 16.1891 21.1998 16.1918 21.1998 16.1946C21.1998 16.1973 21.1998 16.2001 21.1998 16.2028C21.1998 16.2056 21.1998 16.2083 21.1998 16.211C21.1998 16.2138 21.1998 16.2165 21.1998 16.2193C21.1998 16.222 21.1998 16.2247 21.1998 16.2275C21.1998 16.2302 21.1998 16.2329 21.1998 16.2357C21.1998 16.2384 21.1998 16.2411 21.1998 16.2438C21.1998 16.2466 21.1998 16.2493 21.1998 16.252C21.1998 16.2547 21.1998 16.2575 21.1998 16.2602C21.1998 16.2629 21.1998 16.2656 21.1998 16.2683C21.1998 16.271 21.1998 16.2737 21.1998 16.2765C21.1998 16.2792 21.1998 16.2819 21.1998 16.2846C21.1998 16.2873 21.1998 16.29 21.1998 16.2927C21.1998 16.2954 21.1998 16.2981 21.1998 16.3008C21.1998 16.3035 21.1998 16.3062 21.1998 16.3089C21.1998 16.3115 21.1998 16.3142 21.1998 16.3169C21.1998 16.3196 21.1998 16.3223 21.1998 16.325C21.1998 16.3277 21.1998 16.3303 21.1998 16.333C21.1998 16.3357 21.1998 16.3384 21.1998 16.341C21.1998 16.3437 21.1998 16.3464 21.1998 16.349C21.1998 16.3517 21.1998 16.3544 21.1998 16.357C21.1998 16.3597 21.1998 16.3624 21.1998 16.365C21.1998 16.3677 21.1998 16.3703 21.1998 16.373C21.1998 16.3756 21.1998 16.3783 21.1998 16.3809C21.1998 16.3836 21.1998 16.3862 21.1998 16.3889C21.1998 16.3915 21.1998 16.3942 21.1998 16.3968C21.1998 16.3994 21.1998 16.4021 21.1998 16.4047C21.1998 16.4073 21.1998 16.41 21.1998 16.4126C21.1998 16.4152 21.1998 16.4178 21.1998 16.4205C21.1998 16.4231 21.1998 16.4257 21.1998 16.4283C21.1998 16.4309 21.1998 16.4336 21.1998 16.4362C21.1998 16.4388 21.1998 16.4414 21.1998 16.444C21.1998 16.4466 21.1998 16.4492 21.1998 16.4518C21.1998 16.4544 21.1998 16.457 21.1998 16.4596C21.1998 16.4622 21.1998 16.4648 21.1998 16.4674C21.1998 16.47 21.1998 16.4726 21.1998 16.4752C21.1998 16.4777 21.1998 16.4803 21.1998 16.4829C21.1998 16.4855 21.1998 16.4881 21.1998 16.4906C21.1998 16.4932 21.1998 16.4958 21.1998 16.4983C21.1998 16.5009 21.1998 16.5035 21.1998 16.506C21.1998 16.5086 21.1998 16.5112 21.1998 16.5137C21.1998 16.5163 21.1998 16.5188 21.1998 16.5214C21.1998 16.5239 21.1998 16.5265 21.1998 16.529C21.1998 16.5316 21.1998 16.5341 21.1998 16.5367C21.1998 16.5392 21.1998 16.5417 21.1998 16.5443C21.1998 16.5468 21.1998 16.5493 21.1998 16.5519C21.1998 16.5544 21.1998 16.5569 21.1998 16.5594C21.1998 16.5619 21.1998 16.5645 21.1998 16.567C21.1998 16.5695 21.1998 16.572 21.1998 16.5745C21.1998 16.577 21.1998 16.5795 21.1998 16.582C21.1998 16.5845 21.1998 16.587 21.1998 16.5895C21.1998 16.592 21.1998 16.5945 21.1998 16.597C21.1998 16.5995 21.1998 16.602 21.1998 16.6045C21.1998 16.607 21.1998 16.6094 21.1998 16.6119C21.1998 16.6144 21.1998 16.6169 21.1998 16.6193C21.1998 16.6218 21.1998 16.6243 21.1998 16.6267C21.1998 16.6292 21.1998 16.6317 21.1998 16.6341C21.1998 16.6366 21.1998 16.639 21.1998 16.6415C21.1998 16.6439 21.1998 16.6464 21.1998 16.6488C21.1998 16.6513 21.1998 16.6537 21.1998 16.6562C21.1998 16.6586 21.1998 16.661 21.1998 16.6635C21.1998 16.6659 21.1998 16.6683 21.1998 16.6708C21.1998 16.6732 21.1998 16.6756 21.1998 16.678C21.1998 16.6804 21.1998 16.6828 21.1998 16.6853C21.1998 16.6877 21.1998 16.6901 21.1998 16.6925C21.1998 16.6949 21.1998 16.6973 21.1998 16.6997C21.1998 16.7021 21.1998 16.7045 21.1998 16.7069C21.1998 16.7093 21.1998 16.7116 21.1998 16.714C21.1998 16.7164 21.1998 16.7188 21.1998 16.7212C21.1998 16.7235 21.1998 16.7259 21.1998 16.7283C21.1998 16.7307 21.1998 16.733 21.1998 16.7354C21.1998 16.7377 21.1998 16.7401 21.1998 16.7425C21.1998 16.7448 21.1998 16.7472 21.1998 16.7495C21.1998 16.7519 21.1998 16.7542 21.1998 16.7565C21.1998 16.7589 21.1998 16.7612 21.1998 16.7635C21.1998 16.7659 21.1998 16.7682 21.1998 16.7705C21.1998 16.7729 21.1998 16.7752 21.1998 16.7775C21.1998 16.7798 21.1998 16.7821 21.1998 16.7844C21.1998 16.7867 21.1998 16.7891 21.1998 16.7914C21.1998 16.7937 21.1998 16.796 21.1998 16.7982C21.1998 16.8005 21.1998 16.8028 21.1998 16.8051C21.1998 16.8074 21.1998 16.8097 21.1998 16.812C21.1998 16.8142 21.1998 16.8165 21.1998 16.8188C21.1998 16.8211 21.1998 16.8233 21.1998 16.8256C21.1998 16.8279 21.1998 16.8301 21.1998 16.8324H22.1998ZM22.1998 13.4874L22.647 12.593L21.257 11.8979L20.8098 12.7924L20.3626 13.6868L21.7526 14.3818L22.1998 13.4874ZM17.5899 12.7924L18.0371 13.6868C18.769 13.3208 19.6306 13.3208 20.3626 13.6868L20.8098 12.7924L21.257 11.8979C19.962 11.2504 18.4377 11.2504 17.1427 11.8979L17.5899 12.7924Z" fill="#1D1D20" style="fill:#1D1D20;fill:color(display-p3 0.1148 0.1148 0.1252);fill-opacity:1;"/>
</svg>
