<svg width="24" height="24" viewBox="0 0 24 24" fill="none" xmlns="http://www.w3.org/2000/svg">
<path d="M1.50075 15.6599L0.500745 15.66L1.50075 15.6599ZM1.50049 6.66008L2.50049 6.66005L1.50049 6.66008ZM11.7004 19.06C12.2527 19.06 12.7004 18.6123 12.7004 18.06C12.7004 17.5077 12.2527 17.06 11.7004 17.06L11.7004 18.06L11.7004 19.06ZM3.9007 18.0599L3.90072 17.0599H3.90072L3.9007 18.0599ZM20.7 6.65885L19.7 6.65886V6.65887L20.7 6.65885ZM2.10003 7.45986C1.54774 7.45986 1.10003 7.90758 1.10003 8.45986C1.10003 9.01215 1.54774 9.45986 2.10003 9.45986V8.45986V7.45986ZM20.1 9.45986C20.6523 9.45986 21.1 9.01215 21.1 8.45986C21.1 7.90758 20.6523 7.45986 20.1 7.45986V8.45986V9.45986ZM15.2991 16.8599L14.592 16.1528C14.4044 16.3403 14.2991 16.5946 14.2991 16.8599H15.2991ZM19.6191 12.5399L20.3262 11.8328C19.9356 11.4422 19.3025 11.4422 18.912 11.8328L19.6191 12.5399ZM22.4991 15.4199L23.2062 16.127C23.3937 15.9394 23.4991 15.6851 23.4991 15.4199C23.4991 15.1546 23.3937 14.9003 23.2062 14.7128L22.4991 15.4199ZM18.1791 19.7399V20.7399C18.4443 20.7399 18.6986 20.6345 18.8862 20.447L18.1791 19.7399ZM15.2991 19.7399H14.2991C14.2991 20.2921 14.7468 20.7399 15.2991 20.7399V19.7399ZM3.90049 4.26001V5.26001H18.2998V4.26001V3.26001H3.90049V4.26001ZM1.50075 15.6599L2.50075 15.6599L2.50049 6.66005L1.50049 6.66008L0.500488 6.66011L0.500745 15.66L1.50075 15.6599ZM11.7004 18.06L11.7004 17.06L3.90072 17.0599L3.9007 18.0599L3.90068 19.0599L11.7004 19.06L11.7004 18.06ZM20.7 6.65885L19.7 6.65887L19.7 9.06003L20.7 9.06001L21.7 9.05999L21.7 6.65883L20.7 6.65885ZM3.90049 4.26001V3.26001C2.02268 3.26001 0.500435 4.7823 0.500488 6.66011L1.50049 6.66008L2.50049 6.66005C2.50047 5.88683 3.12727 5.26001 3.90049 5.26001V4.26001ZM18.2998 4.26001V5.26001C19.0738 5.26001 19.7 5.88629 19.7 6.65886L20.7 6.65885L21.7 6.65884C21.7 4.78025 20.1769 3.26001 18.2998 3.26001V4.26001ZM1.50075 15.6599L0.500745 15.66C0.500799 17.5377 2.02298 19.0598 3.90068 19.0599L3.9007 18.0599L3.90072 17.0599C3.12755 17.0598 2.50077 16.4331 2.50075 15.6599L1.50075 15.6599ZM2.10003 8.45986V9.45986H20.1V8.45986V7.45986H2.10003V8.45986ZM15.2991 16.8599L16.0062 17.567L20.3262 13.247L19.6191 12.5399L18.912 11.8328L14.592 16.1528L15.2991 16.8599ZM19.6191 12.5399L18.912 13.247L21.792 16.127L22.4991 15.4199L23.2062 14.7128L20.3262 11.8328L19.6191 12.5399ZM22.4991 15.4199L21.792 14.7128L17.472 19.0328L18.1791 19.7399L18.8862 20.447L23.2062 16.127L22.4991 15.4199ZM18.1791 19.7399V18.7399H15.2991V19.7399V20.7399H18.1791V19.7399ZM15.2991 19.7399H16.2991V16.8599H15.2991H14.2991V19.7399H15.2991Z" fill="#1D1D20" style="fill:#1D1D20;fill:color(display-p3 0.1148 0.1148 0.1252);fill-opacity:1;"/>
</svg>
