<svg width="24" height="24" viewBox="0 0 24 24" fill="none" xmlns="http://www.w3.org/2000/svg">
<path d="M15.5588 15.1987C16.0827 15.3733 16.649 15.0902 16.8237 14.5662C16.9983 14.0423 16.7152 13.476 16.1912 13.3013L15.875 14.25L15.5588 15.1987ZM12.5 13.125H11.5C11.5 13.5554 11.7754 13.9376 12.1838 14.0737L12.5 13.125ZM13.5 8.42087C13.5 7.86858 13.0523 7.42087 12.5 7.42087C11.9477 7.42087 11.5 7.86858 11.5 8.42087H12.5H13.5ZM15.875 14.25L16.1912 13.3013L12.8162 12.1763L12.5 13.125L12.1838 14.0737L15.5588 15.1987L15.875 14.25ZM12.5 13.125H13.5V8.42087H12.5H11.5V13.125H12.5ZM21.5 12H20.5C20.5 16.4183 16.9183 20 12.5 20V21V22C18.0228 22 22.5 17.5228 22.5 12H21.5ZM12.5 21V20C8.08172 20 4.5 16.4183 4.5 12H3.5H2.5C2.5 17.5228 6.97715 22 12.5 22V21ZM3.5 12H4.5C4.5 7.58172 8.08172 4 12.5 4V3V2C6.97715 2 2.5 6.47715 2.5 12H3.5ZM12.5 3V4C16.9183 4 20.5 7.58172 20.5 12H21.5H22.5C22.5 6.47715 18.0228 2 12.5 2V3Z" fill="#1D1D20" style="fill:#1D1D20;fill:color(display-p3 0.1148 0.1148 0.1252);fill-opacity:1;"/>
</svg>
