<svg width="24" height="24" viewBox="0 0 24 24" fill="none" xmlns="http://www.w3.org/2000/svg">
<path d="M10.1998 7.79995C10.7455 5.39516 12.8961 3.59995 15.466 3.59995C18.4483 3.59995 20.866 6.01761 20.866 8.99995C20.866 11.7625 18.7916 14.0405 16.1155 14.3613M6.5998 5.99995L8.9998 3.59995L6.5998 1.19995M1.7998 8.39995V6.79995C1.7998 5.03264 3.23249 3.59995 4.9998 3.59995H7.39981M17.3998 18L14.9998 20.3999L17.3998 22.7999M22.1998 15.6V17.1999C22.1998 18.9673 20.7671 20.4 18.9998 20.4H16.5998M12.5998 16.2C12.5998 19.1823 10.1821 21.5999 7.1998 21.5999C4.21747 21.5999 1.7998 19.1823 1.7998 16.2C1.7998 13.2176 4.21747 10.8 7.1998 10.8C10.1821 10.8 12.5998 13.2176 12.5998 16.2Z" stroke="#1D1D20" style="stroke:#1D1D20;stroke:color(display-p3 0.1148 0.1148 0.1252);stroke-opacity:1;" stroke-width="2" stroke-linecap="round" stroke-linejoin="round"/>
</svg>
