<svg width="24" height="24" viewBox="0 0 24 24" fill="none" xmlns="http://www.w3.org/2000/svg">
<path d="M5.89081 18.0198H7.05445M16.3635 13.3653H19.2726C20.5579 13.3653 21.5999 14.4072 21.5999 15.6926V19.1835C21.5999 20.4688 20.5579 21.5107 19.2726 21.5107H7.05445M11.1272 6.74824L14.7043 3.17114C15.6131 2.26229 17.0867 2.26229 17.9955 3.17114L20.464 5.63959C21.3728 6.54845 21.3728 8.02199 20.464 8.93085L10.5454 18.8495M4.72717 21.5107H8.21808C9.5034 21.5107 10.5454 20.4688 10.5454 19.1835V5.21983C10.5454 3.93451 9.5034 2.89256 8.21808 2.89256H4.72717C3.44186 2.89256 2.3999 3.93451 2.3999 5.21983V19.1835C2.3999 20.4688 3.44186 21.5107 4.72717 21.5107Z" stroke="#1D1D20" style="stroke:#1D1D20;stroke:color(display-p3 0.1148 0.1148 0.1252);stroke-opacity:1;" stroke-width="2" stroke-linecap="round" stroke-linejoin="round"/>
</svg>
