<svg width="24" height="24" viewBox="0 0 24 24" fill="none" xmlns="http://www.w3.org/2000/svg">
<path d="M5.2001 9.44326C3.06871 10.4819 1.6001 12.6694 1.6001 15.1999C1.6001 18.7345 4.46547 21.5999 8.0001 21.5999C11.5347 21.5999 14.4001 18.7345 14.4001 15.1999C14.4001 14.9289 14.3833 14.6619 14.3506 14.3999M12.4001 20.4922C13.4258 21.1912 14.6652 21.5999 16.0001 21.5999C19.5347 21.5999 22.4001 18.7345 22.4001 15.1999C22.4001 12.4503 20.6662 10.1058 18.2322 9.1999M18.4001 8.7999C18.4001 12.3345 15.5347 15.1999 12.0001 15.1999C8.46547 15.1999 5.6001 12.3345 5.6001 8.7999C5.6001 5.26528 8.46547 2.3999 12.0001 2.3999C15.5347 2.3999 18.4001 5.26528 18.4001 8.7999Z" stroke="#1D1D20" style="stroke:#1D1D20;stroke:color(display-p3 0.1148 0.1148 0.1252);stroke-opacity:1;" stroke-width="2"/>
</svg>
