<svg width="24" height="24" viewBox="0 0 24 24" fill="none" xmlns="http://www.w3.org/2000/svg">
<path d="M17.7604 4.3199C17.7604 5.38029 18.62 6.2399 19.6804 6.2399C20.7408 6.2399 21.6004 5.38029 21.6004 4.3199C21.6004 3.25952 20.7408 2.3999 19.6804 2.3999C18.62 2.3999 17.7604 3.25952 17.7604 4.3199ZM17.7604 4.3199H6.5999M17.7604 19.6799C17.7604 20.7403 18.62 21.5999 19.6804 21.5999C20.7408 21.5999 21.6004 20.7403 21.6004 19.6799C21.6004 18.6195 20.7408 17.7599 19.6804 17.7599C18.62 17.7599 17.7604 18.6195 17.7604 19.6799ZM17.7604 19.6799H12.2404C11.7102 19.6799 11.2804 19.2501 11.2804 18.7199V5.2799M17.4004 11.9999H11.4004M21.6004 11.9999C21.6004 13.0603 20.7408 13.9199 19.6804 13.9199C18.62 13.9199 17.7604 13.0603 17.7604 11.9999C17.7604 10.9395 18.62 10.0799 19.6804 10.0799C20.7408 10.0799 21.6004 10.9395 21.6004 11.9999ZM6.2399 4.3199C6.2399 5.38029 5.38029 6.2399 4.3199 6.2399C3.25952 6.2399 2.3999 5.38029 2.3999 4.3199C2.3999 3.25952 3.25952 2.3999 4.3199 2.3999C5.38029 2.3999 6.2399 3.25952 6.2399 4.3199Z" stroke="#1D1D20" style="stroke:#1D1D20;stroke:color(display-p3 0.1148 0.1148 0.1252);stroke-opacity:1;" stroke-width="2" stroke-linecap="round"/>
</svg>
