<svg width="24" height="24" viewBox="0 0 24 24" fill="none" xmlns="http://www.w3.org/2000/svg">
<path d="M5.67639 16.1212C6.07161 16.507 6.70473 16.4994 7.0905 16.1041C7.47628 15.7089 7.46862 15.0758 7.0734 14.69L6.3749 15.4056L5.67639 16.1212ZM3 12.1114L2.3015 11.3958C2.10871 11.584 2 11.842 2 12.1114C2 12.3808 2.10871 12.6388 2.3015 12.827L3 12.1114ZM7.0734 9.53278C7.46862 9.14701 7.47628 8.51389 7.0905 8.11867C6.70473 7.72345 6.07161 7.71579 5.67639 8.10156L6.3749 8.81717L7.0734 9.53278ZM18.3236 8.10156C17.9284 7.71579 17.2953 7.72345 16.9095 8.11867C16.5237 8.51389 16.5314 9.14701 16.9266 9.53278L17.6251 8.81717L18.3236 8.10156ZM21 12.1114L21.6985 12.827C21.8913 12.6388 22 12.3808 22 12.1114C22 11.842 21.8913 11.584 21.6985 11.3958L21 12.1114ZM16.9266 14.69C16.5314 15.0758 16.5237 15.7089 16.9095 16.1041C17.2953 16.4994 17.9284 16.507 18.3236 16.1212L17.6251 15.4056L16.9266 14.69ZM9.42671 17.7365C9.2812 18.2693 9.59515 18.8192 10.1279 18.9647C10.6607 19.1102 11.2105 18.7962 11.356 18.2635L10.3914 18L9.42671 17.7365ZM11.9997 12.1109L11.0357 11.8449L11.0351 11.8474L11.9997 12.1109ZM14.6495 6.26593C14.7964 5.73353 14.4838 5.18288 13.9514 5.03601C13.419 4.88914 12.8684 5.20167 12.7215 5.73407L13.6855 6L14.6495 6.26593ZM6.3749 15.4056L7.0734 14.69L3.6985 11.3958L3 12.1114L2.3015 12.827L5.67639 16.1212L6.3749 15.4056ZM3 12.1114L3.6985 12.827L7.0734 9.53278L6.3749 8.81717L5.67639 8.10156L2.3015 11.3958L3 12.1114ZM17.6251 8.81717L16.9266 9.53278L20.3015 12.827L21 12.1114L21.6985 11.3958L18.3236 8.10156L17.6251 8.81717ZM21 12.1114L20.3015 11.3958L16.9266 14.69L17.6251 15.4056L18.3236 16.1212L21.6985 12.827L21 12.1114ZM10.3914 18L11.356 18.2635L12.9644 12.3743L11.9997 12.1109L11.0351 11.8474L9.42671 17.7365L10.3914 18ZM11.9997 12.1109L12.9637 12.3768L14.6495 6.26593L13.6855 6L12.7215 5.73407L11.0357 11.8449L11.9997 12.1109Z" fill="#1D1D20" style="fill:#1D1D20;fill:color(display-p3 0.1148 0.1148 0.1252);fill-opacity:1;"/>
</svg>
