<svg width="24" height="24" viewBox="0 0 24 24" fill="none" xmlns="http://www.w3.org/2000/svg">
<path d="M10.2002 21.5999H7.8002C5.81197 21.5999 4.2002 19.9881 4.2002 17.9999V5.9999C4.2002 4.01168 5.81197 2.3999 7.8002 2.3999H16.2002C18.1884 2.3999 19.8002 4.01168 19.8002 5.9999V8.9999M15.6002 7.1999H7.8002M12.0002 10.7999H7.8002M10.2002 14.3999H7.8002M13.8002 14.6999L15.1902 14.0049C16.2037 13.4981 17.3967 13.4981 18.4102 14.0049L19.8002 14.6999C19.8002 14.6999 19.8002 16.8899 19.8002 18.0449C19.8002 19.1999 18.7325 19.9796 16.8002 21.1999C14.8679 19.9796 13.8002 18.9499 13.8002 18.0449V14.6999Z" stroke="#1D1D20" style="stroke:#1D1D20;stroke:color(display-p3 0.1148 0.1148 0.1252);stroke-opacity:1;" stroke-width="2" stroke-linecap="round" stroke-linejoin="round"/>
</svg>
