<svg width="24" height="24" viewBox="0 0 24 24" fill="none" xmlns="http://www.w3.org/2000/svg">
<path d="M8.70077 9.91755V13.6058C8.70077 15.4283 10.1782 16.9058 12.0008 16.9058C13.8233 16.9058 15.3008 15.4283 15.3008 13.6058V8.94696C15.3008 7.98209 14.5186 7.1999 13.5537 7.1999C12.5888 7.1999 11.8067 7.98209 11.8067 8.94696V13.4117M6.5998 2.3999H17.4C18.7255 2.3999 19.8 3.47445 19.8 4.79995L19.7998 19.2C19.7997 20.5254 18.7252 21.5999 17.3997 21.5999L6.5997 21.5998C5.27421 21.5998 4.1997 20.5253 4.19971 19.1998L4.1998 4.79989C4.19981 3.47441 5.27432 2.3999 6.5998 2.3999Z" stroke="#1D1D20" style="stroke:#1D1D20;stroke:color(display-p3 0.1148 0.1148 0.1252);stroke-opacity:1;" stroke-width="2" stroke-linecap="round"/>
</svg>
