<svg width="24" height="24" viewBox="0 0 24 24" fill="none" xmlns="http://www.w3.org/2000/svg">
<path d="M16.5621 2.78718L15.8373 3.47611V3.47611L16.5621 2.78718ZM18.0003 4.1999L18.6671 3.45466V3.45466L18.0003 4.1999ZM19.4703 5.65503L18.7503 6.34908V6.34908L19.4703 5.65503ZM19.8003 6.47773L18.8003 6.47771V6.47773H19.8003ZM4.19999 4.79989L3.19999 4.79988V4.79989H4.19999ZM2.3999 13.9999C1.84762 13.9999 1.3999 14.4476 1.3999 14.9999C1.3999 15.5522 1.84762 15.9999 2.3999 15.9999V14.9999V13.9999ZM21.5999 15.9999C22.1522 15.9999 22.5999 15.5522 22.5999 14.9999C22.5999 14.4476 22.1522 13.9999 21.5999 13.9999V14.9999V15.9999ZM3.19999 10.1999C3.19999 10.7522 3.64771 11.1999 4.19999 11.1999C4.75228 11.1999 5.19999 10.7522 5.19999 10.1999H4.19999H3.19999ZM18.8003 10.1999C18.8003 10.7522 19.248 11.1999 19.8003 11.1999C20.3525 11.1999 20.8003 10.7522 20.8003 10.1999H19.8003H18.8003ZM5.20028 19.1999C5.20028 18.6476 4.75256 18.1999 4.20028 18.1999C3.64799 18.1999 3.20028 18.6476 3.20028 19.1999H4.20028H5.20028ZM3.20028 21.5999C3.20028 22.1522 3.64799 22.5999 4.20028 22.5999C4.75256 22.5999 5.20028 22.1522 5.20028 21.5999H4.20028H3.20028ZM13.6003 19.1999C13.6003 18.6476 13.1526 18.1999 12.6003 18.1999C12.048 18.1999 11.6003 18.6476 11.6003 19.1999H12.6003H13.6003ZM11.6003 21.5999C11.6003 22.1522 12.048 22.5999 12.6003 22.5999C13.1526 22.5999 13.6003 22.1522 13.6003 21.5999H12.6003H11.6003ZM22.0003 19.1999C22.0003 18.6476 21.5526 18.1999 21.0003 18.1999C20.448 18.1999 20.0003 18.6476 20.0003 19.1999H21.0003H22.0003ZM20.0003 21.5999C20.0003 22.1522 20.448 22.5999 21.0003 22.5999C21.5526 22.5999 22.0003 22.1522 22.0003 21.5999H21.0003H20.0003ZM9.40028 19.1999C9.40028 18.6476 8.95256 18.1999 8.40028 18.1999C7.84799 18.1999 7.40028 18.6476 7.40028 19.1999H8.40028H9.40028ZM7.40028 20.3999C7.40028 20.9522 7.84799 21.3999 8.40028 21.3999C8.95256 21.3999 9.40028 20.9522 9.40028 20.3999H8.40028H7.40028ZM17.8003 19.1999C17.8003 18.6476 17.3526 18.1999 16.8003 18.1999C16.248 18.1999 15.8003 18.6476 15.8003 19.1999H16.8003H17.8003ZM15.8003 20.3999C15.8003 20.9522 16.248 21.3999 16.8003 21.3999C17.3526 21.3999 17.8003 20.9522 17.8003 20.3999H16.8003H15.8003ZM6.59999 2.3999V3.3999H15.0003V2.3999V1.3999H6.59999V2.3999ZM15.0003 2.3999V3.3999H15.6697V2.3999V1.3999H15.0003V2.3999ZM16.5621 2.78718L15.8373 3.47611C16.1933 3.85066 16.7693 4.44033 17.3335 4.94514L18.0003 4.1999L18.6671 3.45466C18.1631 3.00376 17.6307 2.4599 17.2869 2.09825L16.5621 2.78718ZM18.0003 4.1999L17.3335 4.94514C17.7199 5.29091 18.3521 5.93606 18.7503 6.34908L19.4703 5.65503L20.1902 4.96099C19.8008 4.55704 19.1178 3.85793 18.6671 3.45466L18.0003 4.1999ZM19.8003 6.47773L20.8003 6.47776C20.8003 5.91641 20.5858 5.3714 20.1902 4.96099L19.4703 5.65503L18.7503 6.34908C18.7806 6.38048 18.8003 6.42538 18.8003 6.47771L19.8003 6.47773ZM15.6697 2.3999V3.3999C15.725 3.3999 15.7873 3.42349 15.8373 3.47611L16.5621 2.78718L17.287 2.09825C16.8713 1.66098 16.2902 1.3999 15.6697 1.3999V2.3999ZM6.59999 2.3999V1.3999C4.72223 1.3999 3.20001 2.92212 3.19999 4.79988L4.19999 4.79989L5.19999 4.7999C5.2 4.0267 5.8268 3.3999 6.59999 3.3999V2.3999ZM15.0003 2.3999H14.0003V5.9999H15.0003H16.0003V2.3999H15.0003ZM16.2003 7.1999V8.1999H19.8003V7.1999V6.1999H16.2003V7.1999ZM15.0003 5.9999H14.0003C14.0003 7.21493 14.9852 8.1999 16.2003 8.1999V7.1999V6.1999C16.0898 6.1999 16.0003 6.11036 16.0003 5.9999H15.0003ZM2.3999 14.9999V15.9999H21.5999V14.9999V13.9999H2.3999V14.9999ZM4.19999 4.79989H3.19999V10.1999H4.19999H5.19999V4.79989H4.19999ZM19.8003 6.47773H18.8003V7.1999H19.8003H20.8003V6.47773H19.8003ZM19.8003 7.1999H18.8003V10.1999H19.8003H20.8003V7.1999H19.8003ZM4.20028 19.1999H3.20028V21.5999H4.20028H5.20028V19.1999H4.20028ZM12.6003 19.1999H11.6003V21.5999H12.6003H13.6003V19.1999H12.6003ZM21.0003 19.1999H20.0003V21.5999H21.0003H22.0003V19.1999H21.0003ZM8.40028 19.1999H7.40028V20.3999H8.40028H9.40028V19.1999H8.40028ZM16.8003 19.1999H15.8003V20.3999H16.8003H17.8003V19.1999H16.8003Z" fill="#1D1D20" style="fill:#1D1D20;fill:color(display-p3 0.1148 0.1148 0.1252);fill-opacity:1;"/>
</svg>
