<svg width="24" height="24" viewBox="0 0 24 24" fill="none" xmlns="http://www.w3.org/2000/svg">
<path d="M10.4996 21.5998H4.4996C3.17411 21.5998 2.0996 20.5253 2.09961 19.1998L2.0997 4.79989C2.09971 3.47441 3.17422 2.3999 4.4997 2.3999H15.3C16.6255 2.3999 17.7 3.47442 17.7 4.7999V9.5999M6.29998 7.1999H13.5M6.29998 10.7999H13.5M6.29998 14.3999H9.89998M15.3426 20.3999L12.9 17.9456M12.9 17.9456L15.2321 15.5999M12.9 17.9456H20.1271C21.1062 17.9456 21.9 17.1519 21.9 16.1728C21.9 15.1936 21.1062 14.3999 20.1271 14.3999H17.7" stroke="#1D1D20" style="stroke:#1D1D20;stroke:color(display-p3 0.1148 0.1148 0.1252);stroke-opacity:1;" stroke-width="2" stroke-linecap="round" stroke-linejoin="round"/>
</svg>
