<svg width="24" height="24" viewBox="0 0 24 24" fill="none" xmlns="http://www.w3.org/2000/svg">
<path d="M10.2002 10.1999V8.9999C10.2002 8.00579 11.0061 7.1999 12.0002 7.1999C12.9943 7.1999 13.8002 8.00579 13.8002 8.9999V10.7999M4.2002 17.9999V5.9999C4.2002 4.01168 5.81197 2.3999 7.8002 2.3999H16.2002C18.1884 2.3999 19.8002 4.01168 19.8002 5.9999V17.9999C19.8002 19.9881 18.1884 21.5999 16.2002 21.5999H7.8002C5.81197 21.5999 4.2002 19.9881 4.2002 17.9999ZM9.60019 16.7999H14.4002C15.0629 16.7999 15.6002 16.2626 15.6002 15.5999V11.9999C15.6002 11.3372 15.0629 10.7999 14.4002 10.7999H9.60019C8.93745 10.7999 8.4002 11.3372 8.4002 11.9999V15.5999C8.4002 16.2626 8.93745 16.7999 9.60019 16.7999Z" stroke="#1D1D20" style="stroke:#1D1D20;stroke:color(display-p3 0.1148 0.1148 0.1252);stroke-opacity:1;" stroke-width="2" stroke-linecap="round" stroke-linejoin="round"/>
</svg>
