<svg width="24" height="24" viewBox="0 0 24 24" fill="none" xmlns="http://www.w3.org/2000/svg">
<path d="M4.2002 5.9999V17.9999C4.2002 19.9881 5.81197 21.5999 7.8002 21.5999H16.2002C18.1884 21.5999 19.8002 19.9881 19.8002 17.9999V5.9999C19.8002 4.01168 18.1884 2.3999 16.2002 2.3999H7.8002C5.81197 2.3999 4.2002 4.01168 4.2002 5.9999Z" stroke="#1D1D20" style="stroke:#1D1D20;stroke:color(display-p3 0.1148 0.1148 0.1252);stroke-opacity:1;" stroke-width="2" stroke-linejoin="round"/>
<path d="M13.6102 8.60469C12.5967 8.09794 11.4037 8.09794 10.3902 8.60469L9.0002 9.2997V12.6447C9.0002 13.5497 10.0679 14.5794 12.0002 15.7997C13.9325 14.5794 15.0002 13.7997 15.0002 12.6447C15.0002 11.4897 15.0002 9.2997 15.0002 9.2997L13.6102 8.60469Z" stroke="#1D1D20" style="stroke:#1D1D20;stroke:color(display-p3 0.1148 0.1148 0.1252);stroke-opacity:1;" stroke-width="2" stroke-linejoin="round"/>
</svg>
