<svg width="24" height="24" viewBox="0 0 24 24" fill="none" xmlns="http://www.w3.org/2000/svg">
<path d="M11.4 21.5998H5.39999C4.0745 21.5998 2.99999 20.5253 3 19.1998L3.00009 4.79989C3.0001 3.47441 4.07462 2.3999 5.40009 2.3999H16.2004C17.5258 2.3999 18.6004 3.47442 18.6004 4.7999V9.5999M19.8 19.7999L21 20.9999M7.20037 7.1999H14.4004M7.20037 10.7999H14.4004M7.20037 14.3999H10.8004M20.4 17.3999C20.4 19.0568 19.0569 20.3999 17.4 20.3999C15.7431 20.3999 14.4 19.0568 14.4 17.3999C14.4 15.743 15.7431 14.3999 17.4 14.3999C19.0569 14.3999 20.4 15.743 20.4 17.3999Z" stroke="#1D1D20" style="stroke:#1D1D20;stroke:color(display-p3 0.1148 0.1148 0.1252);stroke-opacity:1;" stroke-width="2" stroke-linecap="round" stroke-linejoin="round"/>
</svg>
