<svg width="24" height="24" viewBox="0 0 24 24" fill="none" xmlns="http://www.w3.org/2000/svg">
<path d="M10.7999 21.5998H4.79989C3.47441 21.5998 2.39989 20.5253 2.3999 19.1998L2.4 4.79989C2.4 3.47441 3.47452 2.3999 4.79999 2.3999H15.6003C16.9257 2.3999 18.0003 3.47442 18.0003 4.7999V9.5999M17.3999 17.3489V17.2857M6.60028 7.1999H13.8003M6.60028 10.7999H13.8003M6.60028 14.3999H10.2003M21.5999 17.3999C21.5999 17.3999 20.6037 20.3396 17.3999 20.2882C14.1961 20.2369 13.1999 17.3999 13.1999 17.3999C13.1999 17.3999 14.1557 14.4089 17.3999 14.4089C20.6441 14.4089 21.5999 17.3999 21.5999 17.3999Z" stroke="#1D1D20" style="stroke:#1D1D20;stroke:color(display-p3 0.1148 0.1148 0.1252);stroke-opacity:1;" stroke-width="2" stroke-linecap="round" stroke-linejoin="round"/>
</svg>
