<svg width="24" height="24" viewBox="0 0 24 24" fill="none" xmlns="http://www.w3.org/2000/svg">
<path d="M15.1028 3.10285L15.8099 2.39574V2.39574L15.1028 3.10285ZM18.4969 6.49696L17.7898 7.20407V7.20407L18.4969 6.49696ZM9.6927 16.707C10.0832 17.0975 10.7164 17.0975 11.1069 16.707C11.4974 16.3165 11.4974 15.6833 11.1069 15.2928L10.3998 15.9999L9.6927 16.707ZM8.39981 13.9999L7.6927 13.2928C7.50516 13.4803 7.39981 13.7347 7.39981 13.9999C7.39981 14.2651 7.50516 14.5195 7.6927 14.707L8.39981 13.9999ZM11.1069 12.707C11.4974 12.3165 11.4974 11.6833 11.1069 11.2928C10.7164 10.9023 10.0832 10.9023 9.6927 11.2928L10.3998 11.9999L11.1069 12.707ZM14.3069 11.2928C13.9164 10.9023 13.2832 10.9023 12.8927 11.2928C12.5022 11.6833 12.5022 12.3165 12.8927 12.707L13.5998 11.9999L14.3069 11.2928ZM15.5998 13.9999L16.3069 14.707C16.4944 14.5195 16.5998 14.2651 16.5998 13.9999C16.5998 13.7347 16.4944 13.4803 16.3069 13.2928L15.5998 13.9999ZM12.8927 15.2928C12.5022 15.6833 12.5022 16.3165 12.8927 16.707C13.2832 17.0975 13.9164 17.0975 14.3069 16.707L13.5998 15.9999L12.8927 15.2928ZM16.7998 21.5999V20.5999H7.19981V21.5999V22.5999H16.7998V21.5999ZM4.7998 19.1999H5.7998V4.7999H4.7998H3.7998V19.1999H4.7998ZM7.19981 2.3999V3.3999H13.4057V2.3999V1.3999H7.19981V2.3999ZM19.1998 8.19401H18.1998V19.1999H19.1998H20.1998V8.19401H19.1998ZM13.4057 2.3999V3.3999C13.777 3.3999 14.1331 3.5474 14.3956 3.80995L15.1028 3.10285L15.8099 2.39574C15.1722 1.75812 14.3074 1.3999 13.4057 1.3999V2.3999ZM7.19981 21.5999V20.5999C6.42661 20.5999 5.7998 19.9731 5.7998 19.1999H4.7998H3.7998C3.7998 21.0777 5.32204 22.5999 7.19981 22.5999V21.5999ZM16.7998 21.5999V22.5999C18.6776 22.5999 20.1998 21.0777 20.1998 19.1999H19.1998H18.1998C18.1998 19.9731 17.573 20.5999 16.7998 20.5999V21.5999ZM18.4969 6.49696L17.7898 7.20407C18.0523 7.46662 18.1998 7.82271 18.1998 8.19401H19.1998H20.1998C20.1998 7.29228 19.8416 6.42748 19.204 5.78985L18.4969 6.49696ZM4.7998 4.7999H5.7998C5.7998 4.0267 6.42661 3.3999 7.19981 3.3999V2.3999V1.3999C5.32204 1.3999 3.7998 2.92213 3.7998 4.7999H4.7998ZM13.1998 2.3999H12.1998V7.1999H13.1998H14.1998V2.3999H13.1998ZM14.3998 8.3999V9.3999H19.1998V8.3999V7.3999H14.3998V8.3999ZM13.1998 7.1999H12.1998C12.1998 8.41493 13.1848 9.3999 14.3998 9.3999V8.3999V7.3999C14.2893 7.3999 14.1998 7.31036 14.1998 7.1999H13.1998ZM15.1028 3.10285L14.3956 3.80995L17.7898 7.20407L18.4969 6.49696L19.204 5.78985L15.8099 2.39574L15.1028 3.10285ZM10.3998 15.9999L11.1069 15.2928L9.10691 13.2928L8.39981 13.9999L7.6927 14.707L9.6927 16.707L10.3998 15.9999ZM8.39981 13.9999L9.10691 14.707L11.1069 12.707L10.3998 11.9999L9.6927 11.2928L7.6927 13.2928L8.39981 13.9999ZM13.5998 11.9999L12.8927 12.707L14.8927 14.707L15.5998 13.9999L16.3069 13.2928L14.3069 11.2928L13.5998 11.9999ZM15.5998 13.9999L14.8927 13.2928L12.8927 15.2928L13.5998 15.9999L14.3069 16.707L16.3069 14.707L15.5998 13.9999Z" fill="#1D1D20" style="fill:#1D1D20;fill:color(display-p3 0.1148 0.1148 0.1252);fill-opacity:1;"/>
</svg>
