<svg width="24" height="24" viewBox="0 0 24 24" fill="none" xmlns="http://www.w3.org/2000/svg">
<path d="M5.72955 6.25876C4.98668 7.45395 4.59986 8.81562 4.59986 10.2029C4.59986 10.4804 4.65701 12.2561 4.65701 12.2561C4.65701 13.5921 4.29656 14.9068 3.60645 16.0679M16.2064 10.2029C16.2021 8.39303 15.0064 6.25876 12.525 6.25876C10.0436 6.25876 8.59091 8.29476 8.58651 10.1004V11.1931C8.58651 13.7926 8.28732 16.2813 6.67851 18.36M9.53598 21.5999C11.4964 18.8595 12.547 15.6026 12.547 12.2646V10.062M14.2943 20.585C15.0064 19.7999 16.2064 16.1999 16.2064 13.7999M19.4262 18.4838C20.0768 16.3623 20.3933 12.2517 20.3933 10.0406C20.3933 5.83181 16.8855 2.41271 12.547 2.3999H12.525C11.1448 2.3999 9.78653 2.75419 8.58651 3.42435" stroke="#1D1D20" style="stroke:#1D1D20;stroke:color(display-p3 0.1148 0.1148 0.1252);stroke-opacity:1;" stroke-width="2" stroke-linecap="round" stroke-linejoin="round"/>
</svg>
