<svg width="24" height="24" viewBox="0 0 24 24" fill="none" xmlns="http://www.w3.org/2000/svg">
<path d="M8.15825 6.50034C7.37423 7.13527 6.74138 7.94094 6.30665 8.85756C5.87192 9.7742 5.64649 10.7783 5.64708 11.7952C5.65021 14.2754 5.08739 16.7227 4.00257 18.946M13.359 22.7999C14.9616 19.3593 16.0158 13.3495 15.7792 11.7952C15.4866 9.87281 14.5655 8.33665 12.3438 8.33665C9.79815 8.33665 9.02245 10.9232 9.02245 12.0222M22.1753 18.3062C22.5897 16.1613 22.799 13.9809 22.8001 11.7952C22.8001 8.98521 21.6984 6.29021 19.7374 4.30322C17.7764 2.31623 15.1167 1.19995 12.3434 1.19995C9.57015 1.19995 6.91045 2.31623 4.94944 4.30322C2.98843 6.29021 1.88674 8.98515 1.88674 11.7952C1.88784 13.1887 1.6557 14.5724 1.2002 15.8873M6.56623 21.2386C7.62615 19.3957 8.37981 17.3888 8.79705 15.2982M18.8155 15.5019C18.9673 14.2727 19.0423 13.0338 19.0398 11.7949C19.0398 9.99551 18.3342 8.2698 17.0785 6.99741C15.8228 5.72506 14.1197 5.01011 12.3438 5.01011C12.0641 5.00816 11.7846 5.02436 11.5069 5.0586M18.1194 19.2072C17.9425 19.8883 17.7417 20.5703 17.5297 21.2386M9.81212 22.2962C11.1458 19.8871 12.3489 15.8951 12.3489 11.8321" stroke="#1D1D20" style="stroke:#1D1D20;stroke:color(display-p3 0.1148 0.1148 0.1252);stroke-opacity:1;" stroke-width="2" stroke-linecap="round" stroke-linejoin="round"/>
</svg>
