<svg width="24" height="24" viewBox="0 0 24 24" fill="none" xmlns="http://www.w3.org/2000/svg">
<path d="M14.1483 18.3205L12.0933 21.3199C11.7405 21.8284 10.9102 21.6001 10.9102 20.9878L10.8998 15.1343C10.8998 14.4597 10.329 13.9201 9.6233 13.9097L5.4408 13.8578C4.93226 13.8474 4.63129 13.3181 4.91151 12.9134L6.60319 10.4537M8.35714 7.86947L11.9065 2.68028C12.2594 2.17174 13.0897 2.40007 13.0897 3.01239L13.1 8.86581C13.1 9.54041 13.6709 10.0801 14.3766 10.0905L18.5591 10.1423C19.0676 10.1527 19.3686 10.682 19.0884 11.0868L15.8296 15.8401M20.4001 20.3998L3.6001 3.5998" stroke="#1D1D20" style="stroke:#1D1D20;stroke:color(display-p3 0.1148 0.1148 0.1252);stroke-opacity:1;" stroke-width="2" stroke-linecap="round" stroke-linejoin="round"/>
</svg>
