<svg width="24" height="24" viewBox="0 0 24 24" fill="none" xmlns="http://www.w3.org/2000/svg">
<path d="M9.69279 16.5075C10.0833 16.898 10.7165 16.898 11.107 16.5075C11.4975 16.117 11.4975 15.4838 11.107 15.0933L10.3999 15.8004L9.69279 16.5075ZM8.3999 13.8004L7.69279 13.0933C7.30227 13.4838 7.30227 14.117 7.69279 14.5075L8.3999 13.8004ZM11.107 12.5075C11.4975 12.117 11.4975 11.4838 11.107 11.0933C10.7165 10.7028 10.0833 10.7028 9.69279 11.0933L10.3999 11.8004L11.107 12.5075ZM14.307 11.0933C13.9165 10.7028 13.2833 10.7028 12.8928 11.0933C12.5023 11.4838 12.5023 12.117 12.8928 12.5075L13.5999 11.8004L14.307 11.0933ZM15.5999 13.8004L16.307 14.5075C16.6975 14.117 16.6975 13.4838 16.307 13.0933L15.5999 13.8004ZM12.8928 15.0933C12.5023 15.4838 12.5023 16.117 12.8928 16.5075C13.2833 16.898 13.9165 16.898 14.307 16.5075L13.5999 15.8004L12.8928 15.0933ZM3.77133 4.2002V5.2002H9.25704V4.2002V3.2002H3.77133V4.2002ZM10.6285 5.6002H9.62847V8.0002H10.6285H11.6285V5.6002H10.6285ZM10.6285 8.0002H9.62847V8.2002H10.6285H11.6285V8.0002H10.6285ZM9.25704 4.2002V5.2002C9.44284 5.2002 9.62847 5.35974 9.62847 5.6002H10.6285H11.6285C11.6285 4.29425 10.5861 3.2002 9.25704 3.2002V4.2002ZM3.77133 4.2002V3.2002C2.44229 3.2002 1.3999 4.29425 1.3999 5.6002H2.3999H3.3999C3.3999 5.35974 3.58553 5.2002 3.77133 5.2002V4.2002ZM2.3999 8.0002V9.0002H10.6285V8.0002V7.0002H2.3999V8.0002ZM10.6285 8.0002V9.0002H20.2285V8.0002V7.0002H10.6285V8.0002ZM21.5999 9.40019H20.5999V18.4002H21.5999H22.5999V9.40019H21.5999ZM20.2285 19.8002V18.8002H3.77133V19.8002V20.8002H20.2285V19.8002ZM2.3999 18.4002H3.3999V8.0002H2.3999H1.3999V18.4002H2.3999ZM3.77133 19.8002V18.8002C3.58554 18.8002 3.3999 18.6406 3.3999 18.4002H2.3999H1.3999C1.3999 19.7061 2.44229 20.8002 3.77133 20.8002V19.8002ZM21.5999 18.4002H20.5999C20.5999 18.6406 20.4143 18.8002 20.2285 18.8002V19.8002V20.8002C21.5575 20.8002 22.5999 19.7061 22.5999 18.4002H21.5999ZM20.2285 8.0002V9.0002C20.4143 9.0002 20.5999 9.15974 20.5999 9.40019H21.5999H22.5999C22.5999 8.09425 21.5575 7.0002 20.2285 7.0002V8.0002ZM10.3999 15.8004L11.107 15.0933L9.10701 13.0933L8.3999 13.8004L7.69279 14.5075L9.69279 16.5075L10.3999 15.8004ZM8.3999 13.8004L9.10701 14.5075L11.107 12.5075L10.3999 11.8004L9.69279 11.0933L7.69279 13.0933L8.3999 13.8004ZM13.5999 11.8004L12.8928 12.5075L14.8928 14.5075L15.5999 13.8004L16.307 13.0933L14.307 11.0933L13.5999 11.8004ZM15.5999 13.8004L14.8928 13.0933L12.8928 15.0933L13.5999 15.8004L14.307 16.5075L16.307 14.5075L15.5999 13.8004ZM2.3999 8.0002H3.3999V5.6002H2.3999H1.3999V8.0002H2.3999Z" fill="#1D1D20" style="fill:#1D1D20;fill:color(display-p3 0.1148 0.1148 0.1252);fill-opacity:1;"/>
</svg>
