<svg width="24" height="24" viewBox="0 0 24 24" fill="none" xmlns="http://www.w3.org/2000/svg">
<path d="M19.5788 10.4841V7.44195C19.5788 6.88967 19.1311 6.44195 18.5788 6.44195H11.9089C11.6436 6.44195 11.3893 6.33659 11.2017 6.14906L9.76648 4.71379C9.57894 4.52626 9.32459 4.4209 9.05937 4.4209H3.3999C2.84762 4.4209 2.3999 4.86861 2.3999 5.4209V18.5788C2.3999 19.1311 2.84762 19.5788 3.3999 19.5788H4.57607C5.0485 19.5788 5.43148 19.1958 5.43148 18.7234C5.43148 18.6208 5.44993 18.5191 5.48595 18.423L8.21973 11.1329C8.36609 10.7426 8.73922 10.4841 9.15606 10.4841H20.2125C20.895 10.4841 21.377 11.1528 21.1612 11.8003L18.7962 18.895C18.6601 19.3034 18.278 19.5788 17.8476 19.5788H4.42095" stroke="#1D1D20" style="stroke:#1D1D20;stroke:color(display-p3 0.1148 0.1148 0.1252);stroke-opacity:1;" stroke-width="2" stroke-linecap="round" stroke-linejoin="round"/>
</svg>
