<svg width="24" height="24" viewBox="0 0 24 24" fill="none" xmlns="http://www.w3.org/2000/svg">
<path d="M9.1199 11.9996H8.1199C8.1199 13.303 7.06329 14.3596 5.7599 14.3596V15.3596V16.3596C8.16786 16.3596 10.1199 14.4076 10.1199 11.9996H9.1199ZM5.7599 15.3596V14.3596C4.45651 14.3596 3.3999 13.303 3.3999 11.9996H2.3999H1.3999C1.3999 14.4076 3.35194 16.3596 5.7599 16.3596V15.3596ZM2.3999 11.9996H3.3999C3.3999 10.6963 4.45651 9.63965 5.7599 9.63965V8.63965V7.63965C3.35194 7.63965 1.3999 9.59169 1.3999 11.9996H2.3999ZM5.7599 8.63965V9.63965C7.06329 9.63965 8.1199 10.6963 8.1199 11.9996H9.1199H10.1199C10.1199 9.59169 8.16786 7.63965 5.7599 7.63965V8.63965ZM9.08943 11.2796L9.95504 11.7804C10.3646 11.0724 11.1277 10.5996 11.9999 10.5996V9.59965V8.59965C10.3848 8.59965 8.97618 9.47833 8.22383 10.7789L9.08943 11.2796ZM11.9999 9.59965V10.5996C12.8722 10.5996 13.6352 11.0724 14.0448 11.7804L14.9104 11.2796L15.776 10.7789C15.0237 9.47833 13.615 8.59965 11.9999 8.59965V9.59965ZM21.5999 11.9996H20.5999C20.5999 13.303 19.5433 14.3596 18.2399 14.3596V15.3596V16.3596C20.6479 16.3596 22.5999 14.4076 22.5999 11.9996H21.5999ZM18.2399 15.3596V14.3596C16.9365 14.3596 15.8799 13.303 15.8799 11.9996H14.8799H13.8799C13.8799 14.4076 15.8319 16.3596 18.2399 16.3596V15.3596ZM14.8799 11.9996H15.8799C15.8799 10.6963 16.9365 9.63965 18.2399 9.63965V8.63965V7.63965C15.8319 7.63965 13.8799 9.59169 13.8799 11.9996H14.8799ZM18.2399 8.63965V9.63965C19.5433 9.63965 20.5999 10.6963 20.5999 11.9996H21.5999H22.5999C22.5999 9.59169 20.6479 7.63965 18.2399 7.63965V8.63965Z" fill="#1D1D20" style="fill:#1D1D20;fill:color(display-p3 0.1148 0.1148 0.1252);fill-opacity:1;"/>
</svg>
