<svg width="24" height="24" viewBox="0 0 24 24" fill="none" xmlns="http://www.w3.org/2000/svg">
<path d="M1.40627 15.9672C1.34406 16.516 1.7385 17.0113 2.28727 17.0735C2.83604 17.1357 3.33134 16.7412 3.39354 16.1925L2.3999 16.0798L1.40627 15.9672ZM3.5199 6.19897L2.8772 5.43286C2.68077 5.59764 2.55514 5.83158 2.52627 6.08634L3.5199 6.19897ZM6.4026 5.08594C6.82572 4.73099 6.88097 4.10024 6.52602 3.67712C6.17107 3.25401 5.54032 3.19875 5.1172 3.55371L5.7599 4.31982L6.4026 5.08594ZM20.6063 16.1925C20.6685 16.7412 21.1638 17.1357 21.7125 17.0735C22.2613 17.0113 22.6557 16.516 22.5935 15.9672L21.5999 16.0798L20.6063 16.1925ZM20.4799 6.19897L21.4735 6.08634C21.4447 5.83158 21.319 5.59764 21.1226 5.43286L20.4799 6.19897ZM18.8826 3.55371C18.4595 3.19875 17.8287 3.25401 17.4738 3.67712C17.1188 4.10024 17.1741 4.73099 17.5972 5.08594L18.2399 4.31982L18.8826 3.55371ZM9.1199 16.3198H8.1199C8.1199 17.6232 7.06329 18.6798 5.7599 18.6798V19.6798V20.6798C8.16786 20.6798 10.1199 18.7278 10.1199 16.3198H9.1199ZM5.7599 19.6798V18.6798C4.45651 18.6798 3.3999 17.6232 3.3999 16.3198H2.3999H1.3999C1.3999 18.7278 3.35194 20.6798 5.7599 20.6798V19.6798ZM2.3999 16.3198H3.3999C3.3999 15.0164 4.45651 13.9598 5.7599 13.9598V12.9598V11.9598C3.35194 11.9598 1.3999 13.9119 1.3999 16.3198H2.3999ZM5.7599 12.9598V13.9598C7.06329 13.9598 8.1199 15.0164 8.1199 16.3198H9.1199H10.1199C10.1199 13.9119 8.16786 11.9598 5.7599 11.9598V12.9598ZM9.08943 15.5998L9.95504 16.1006C10.3646 15.3925 11.1276 14.9198 11.9999 14.9198V13.9198V12.9198C10.3848 12.9198 8.97618 13.7985 8.22383 15.0991L9.08943 15.5998ZM11.9999 13.9198V14.9198C12.8722 14.9198 13.6352 15.3925 14.0448 16.1006L14.9104 15.5998L15.776 15.0991C15.0237 13.7985 13.615 12.9198 11.9999 12.9198V13.9198ZM21.5999 16.3198H20.5999C20.5999 17.6232 19.5433 18.6798 18.2399 18.6798V19.6798V20.6798C20.6479 20.6798 22.5999 18.7278 22.5999 16.3198H21.5999ZM18.2399 19.6798V18.6798C16.9365 18.6798 15.8799 17.6232 15.8799 16.3198H14.8799H13.8799C13.8799 18.7278 15.8319 20.6798 18.2399 20.6798V19.6798ZM14.8799 16.3198H15.8799C15.8799 15.0164 16.9365 13.9598 18.2399 13.9598V12.9598V11.9598C15.8319 11.9598 13.8799 13.9119 13.8799 16.3198H14.8799ZM18.2399 12.9598V13.9598C19.5433 13.9598 20.5999 15.0164 20.5999 16.3198H21.5999H22.5999C22.5999 13.9119 20.6479 11.9598 18.2399 11.9598V12.9598ZM2.3999 16.0798L3.39354 16.1925L4.51354 6.3116L3.5199 6.19897L2.52627 6.08634L1.40627 15.9672L2.3999 16.0798ZM3.5199 6.19897L4.1626 6.96509L6.4026 5.08594L5.7599 4.31982L5.1172 3.55371L2.8772 5.43286L3.5199 6.19897ZM21.5999 16.0798L22.5935 15.9672L21.4735 6.08634L20.4799 6.19897L19.4863 6.3116L20.6063 16.1925L21.5999 16.0798ZM20.4799 6.19897L21.1226 5.43286L18.8826 3.55371L18.2399 4.31982L17.5972 5.08594L19.8372 6.96509L20.4799 6.19897Z" fill="#1D1D20" style="fill:#1D1D20;fill:color(display-p3 0.1148 0.1148 0.1252);fill-opacity:1;"/>
</svg>
