<svg width="24" height="24" viewBox="0 0 24 24" fill="none" xmlns="http://www.w3.org/2000/svg">
<path d="M9.1199 12.0001H8.1199C8.1199 13.3035 7.06329 14.3601 5.7599 14.3601V15.3601V16.3601C8.16786 16.3601 10.1199 14.4081 10.1199 12.0001H9.1199ZM5.7599 15.3601V14.3601C4.45651 14.3601 3.3999 13.3035 3.3999 12.0001H2.3999H1.3999C1.3999 14.4081 3.35194 16.3601 5.7599 16.3601V15.3601ZM2.3999 12.0001H3.3999C3.3999 10.6967 4.45651 9.64014 5.7599 9.64014V8.64014V7.64014C3.35194 7.64014 1.3999 9.59218 1.3999 12.0001H2.3999ZM5.7599 8.64014V9.64014C7.06329 9.64014 8.1199 10.6967 8.1199 12.0001H9.1199H10.1199C10.1199 9.59218 8.16786 7.64014 5.7599 7.64014V8.64014ZM9.08943 11.2801L9.95504 11.7809C10.3646 11.0728 11.1277 10.6001 11.9999 10.6001V9.60014V8.60014C10.3848 8.60014 8.97618 9.47881 8.22383 10.7794L9.08943 11.2801ZM11.9999 9.60014V10.6001C12.8722 10.6001 13.6352 11.0728 14.0448 11.7809L14.9104 11.2801L15.776 10.7794C15.0237 9.47881 13.615 8.60014 11.9999 8.60014V9.60014ZM21.5999 12.0001H20.5999C20.5999 13.3035 19.5433 14.3601 18.2399 14.3601V15.3601V16.3601C20.6479 16.3601 22.5999 14.4081 22.5999 12.0001H21.5999ZM18.2399 15.3601V14.3601C16.9365 14.3601 15.8799 13.3035 15.8799 12.0001H14.8799H13.8799C13.8799 14.4081 15.8319 16.3601 18.2399 16.3601V15.3601ZM14.8799 12.0001H15.8799C15.8799 10.6967 16.9365 9.64014 18.2399 9.64014V8.64014V7.64014C15.8319 7.64014 13.8799 9.59218 13.8799 12.0001H14.8799ZM18.2399 8.64014V9.64014C19.5433 9.64014 20.5999 10.6967 20.5999 12.0001H21.5999H22.5999C22.5999 9.59218 20.6479 7.64014 18.2399 7.64014V8.64014Z" fill="#1D1D20" style="fill:#1D1D20;fill:color(display-p3 0.1148 0.1148 0.1252);fill-opacity:1;"/>
</svg>
