<svg width="24" height="24" viewBox="0 0 24 24" fill="none" xmlns="http://www.w3.org/2000/svg">
<path d="M1.40627 15.9677C1.34406 16.5165 1.7385 17.0117 2.28727 17.074C2.83604 17.1362 3.33134 16.7417 3.39354 16.1929L2.3999 16.0803L1.40627 15.9677ZM3.5199 6.19946L2.8772 5.43334C2.68077 5.59813 2.55514 5.83207 2.52627 6.08683L3.5199 6.19946ZM6.4026 5.08643C6.82572 4.73148 6.88097 4.10073 6.52602 3.67761C6.17107 3.2545 5.54032 3.19924 5.1172 3.55419L5.7599 4.32031L6.4026 5.08643ZM20.6063 16.1929C20.6685 16.7417 21.1638 17.1362 21.7125 17.074C22.2613 17.0117 22.6557 16.5165 22.5935 15.9677L21.5999 16.0803L20.6063 16.1929ZM20.4799 6.19946L21.4735 6.08683C21.4447 5.83207 21.319 5.59813 21.1226 5.43334L20.4799 6.19946ZM18.8826 3.55419C18.4595 3.19924 17.8287 3.2545 17.4738 3.67761C17.1188 4.10073 17.1741 4.73148 17.5972 5.08643L18.2399 4.32031L18.8826 3.55419ZM9.1199 16.3203H8.1199C8.1199 17.6237 7.06329 18.6803 5.7599 18.6803V19.6803V20.6803C8.16786 20.6803 10.1199 18.7283 10.1199 16.3203H9.1199ZM5.7599 19.6803V18.6803C4.45651 18.6803 3.3999 17.6237 3.3999 16.3203H2.3999H1.3999C1.3999 18.7283 3.35194 20.6803 5.7599 20.6803V19.6803ZM2.3999 16.3203H3.3999C3.3999 15.0169 4.45651 13.9603 5.7599 13.9603V12.9603V11.9603C3.35194 11.9603 1.3999 13.9124 1.3999 16.3203H2.3999ZM5.7599 12.9603V13.9603C7.06329 13.9603 8.1199 15.0169 8.1199 16.3203H9.1199H10.1199C10.1199 13.9124 8.16786 11.9603 5.7599 11.9603V12.9603ZM9.08943 15.6003L9.95504 16.101C10.3646 15.393 11.1276 14.9203 11.9999 14.9203V13.9203V12.9203C10.3848 12.9203 8.97618 13.799 8.22383 15.0996L9.08943 15.6003ZM11.9999 13.9203V14.9203C12.8722 14.9203 13.6352 15.393 14.0448 16.101L14.9104 15.6003L15.776 15.0996C15.0237 13.799 13.615 12.9203 11.9999 12.9203V13.9203ZM21.5999 16.3203H20.5999C20.5999 17.6237 19.5433 18.6803 18.2399 18.6803V19.6803V20.6803C20.6479 20.6803 22.5999 18.7283 22.5999 16.3203H21.5999ZM18.2399 19.6803V18.6803C16.9365 18.6803 15.8799 17.6237 15.8799 16.3203H14.8799H13.8799C13.8799 18.7283 15.8319 20.6803 18.2399 20.6803V19.6803ZM14.8799 16.3203H15.8799C15.8799 15.0169 16.9365 13.9603 18.2399 13.9603V12.9603V11.9603C15.8319 11.9603 13.8799 13.9124 13.8799 16.3203H14.8799ZM18.2399 12.9603V13.9603C19.5433 13.9603 20.5999 15.0169 20.5999 16.3203H21.5999H22.5999C22.5999 13.9124 20.6479 11.9603 18.2399 11.9603V12.9603ZM2.3999 16.0803L3.39354 16.1929L4.51354 6.31209L3.5199 6.19946L2.52627 6.08683L1.40627 15.9677L2.3999 16.0803ZM3.5199 6.19946L4.1626 6.96558L6.4026 5.08643L5.7599 4.32031L5.1172 3.55419L2.8772 5.43334L3.5199 6.19946ZM21.5999 16.0803L22.5935 15.9677L21.4735 6.08683L20.4799 6.19946L19.4863 6.31209L20.6063 16.1929L21.5999 16.0803ZM20.4799 6.19946L21.1226 5.43334L18.8826 3.55419L18.2399 4.32031L17.5972 5.08643L19.8372 6.96558L20.4799 6.19946Z" fill="#1D1D20" style="fill:#1D1D20;fill:color(display-p3 0.1148 0.1148 0.1252);fill-opacity:1;"/>
</svg>
