<svg width="24" height="24" viewBox="0 0 24 24" fill="none" xmlns="http://www.w3.org/2000/svg">
<path d="M18.4475 18.2537L17.939 17.3926L18.4475 18.2537ZM18.939 17.3926H17.939V17.3926H18.939ZM10.9657 21.4033L10.4292 22.2473V22.2473L10.9657 21.4033ZM13.0555 21.4376L13.564 22.2987L13.0555 21.4376ZM1.90419 8.13662L1.39226 7.27759L1.90419 8.13662ZM1.90419 8.99565L1.39226 9.85468V9.85468L1.90419 8.99565ZM12.512 14.7071L13.024 15.5661L12.512 14.7071ZM11.4882 14.7071L12.0001 13.8481V13.8481L11.4882 14.7071ZM22.096 8.13662L22.6079 7.27759L22.096 8.13662ZM22.096 8.99565L21.5841 8.13662V8.13662L22.096 8.99565ZM6.01768 18.2581L6.55413 17.4142V17.4142L6.01768 18.2581ZM12.512 2.42515L12.0001 3.28418V3.28418L12.512 2.42515ZM11.4882 2.42515L12.0001 3.28418V3.28418L11.4882 2.42515ZM23.2001 8.54949C23.2001 7.9972 22.7524 7.54949 22.2001 7.54949C21.6478 7.54949 21.2001 7.9972 21.2001 8.54949H22.2001H23.2001ZM21.2001 13.9495C21.2001 14.5018 21.6478 14.9495 22.2001 14.9495C22.7524 14.9495 23.2001 14.5018 23.2001 13.9495H22.2001H21.2001ZM12.512 2.42515L12.0001 3.28418L21.5841 8.99565L22.096 8.13662L22.6079 7.27759L13.024 1.56612L12.512 2.42515ZM22.096 8.99565L21.5841 8.13662L12.0001 13.8481L12.512 14.7071L13.024 15.5661L22.6079 9.85468L22.096 8.99565ZM1.90419 8.13662L2.41612 8.99565L12.0001 3.28418L11.4882 2.42515L10.9762 1.56612L1.39226 7.27759L1.90419 8.13662ZM11.4882 14.7071L12.0001 13.8481L6.06606 10.3118L5.55413 11.1708L5.0422 12.0298L10.9762 15.5661L11.4882 14.7071ZM5.55413 11.1708L6.06606 10.3118L2.41612 8.13662L1.90419 8.99565L1.39226 9.85468L5.0422 12.0298L5.55413 11.1708ZM5.55413 11.1708H4.55413V17.4142H5.55413H6.55413V11.1708H5.55413ZM6.01768 18.2581L5.48123 19.102L10.4292 22.2473L10.9657 21.4033L11.5021 20.5594L6.55413 17.4142L6.01768 18.2581ZM13.0555 21.4376L13.564 22.2987L18.956 19.1148L18.4475 18.2537L17.939 17.3926L12.5471 20.5766L13.0555 21.4376ZM18.939 17.3926H19.939L19.939 11.1708H18.939H17.939L17.939 17.3926H18.939ZM18.4475 18.2537L18.956 19.1148C19.5652 18.755 19.939 18.1001 19.939 17.3926H18.939H17.939V17.3926L18.4475 18.2537ZM10.9657 21.4033L10.4292 22.2473C11.3814 22.8525 12.5925 22.8724 13.564 22.2987L13.0555 21.4376L12.5471 20.5766C12.2232 20.7678 11.8195 20.7611 11.5021 20.5594L10.9657 21.4033ZM1.90419 8.13662L1.39226 7.27759C0.416118 7.85931 0.416123 9.27296 1.39226 9.85468L1.90419 8.99565L2.41612 8.13662C2.7415 8.33053 2.7415 8.80174 2.41612 8.99565L1.90419 8.13662ZM12.512 14.7071L12.0001 13.8481L12.0001 13.8481L11.4882 14.7071L10.9762 15.5661C11.6071 15.9421 12.3931 15.9421 13.024 15.5661L12.512 14.7071ZM22.096 8.13662L21.5841 8.99565C21.2587 8.80174 21.2587 8.33053 21.5841 8.13662L22.096 8.99565L22.6079 9.85468C23.5841 9.27295 23.5841 7.85931 22.6079 7.27759L22.096 8.13662ZM5.55413 17.4142H4.55413C4.55413 18.0983 4.90384 18.735 5.48123 19.102L6.01768 18.2581L6.55413 17.4142V17.4142H5.55413ZM12.512 2.42515L13.024 1.56612C12.3931 1.1902 11.6071 1.1902 10.9762 1.56612L11.4882 2.42515L12.0001 3.28418L12.0001 3.28418L12.512 2.42515ZM22.2001 8.54949H21.2001V13.9495H22.2001H23.2001V8.54949H22.2001Z" fill="#1D1D20" style="fill:#1D1D20;fill:color(display-p3 0.1148 0.1148 0.1252);fill-opacity:1;"/>
</svg>
