<svg width="24" height="24" viewBox="0 0 24 24" fill="none" xmlns="http://www.w3.org/2000/svg">
<path d="M8.26133 16.7997V11.8151M8.26133 16.7997H6.59979M8.26133 16.7997H9.92287M8.26133 11.8151V6.83049M8.26133 11.8151H15.7383M8.26133 6.83049H6.59979M8.26133 6.83049H9.92287M15.7383 11.8151V16.7997M15.7383 11.8151V6.83049M15.7383 16.7997H14.0767M15.7383 16.7997H17.3998M15.7383 6.83049H14.0767M15.7383 6.83049H17.3998M4.7999 21.5999H19.1999C20.5254 21.5999 21.5999 20.5254 21.5999 19.1999V4.7999C21.5999 3.47442 20.5254 2.3999 19.1999 2.3999H4.7999C3.47442 2.3999 2.3999 3.47442 2.3999 4.7999V19.1999C2.3999 20.5254 3.47442 21.5999 4.7999 21.5999Z" stroke="#1D1D20" style="stroke:#1D1D20;stroke:color(display-p3 0.1148 0.1148 0.1252);stroke-opacity:1;" stroke-width="2" stroke-linecap="round" stroke-linejoin="round"/>
</svg>
