<svg width="24" height="24" viewBox="0 0 24 24" fill="none" xmlns="http://www.w3.org/2000/svg">
<path d="M5.10539 16.9179C4.71487 17.3084 4.71487 17.9416 5.10539 18.3321C5.49592 18.7226 6.12908 18.7226 6.51961 18.3321L5.8125 17.625L5.10539 16.9179ZM8.625 14.8125L9.33211 14.1054C8.94158 13.7149 8.30842 13.7149 7.91789 14.1054L8.625 14.8125ZM10.875 17.0625L10.1679 17.7696C10.5584 18.1601 11.1916 18.1601 11.5821 17.7696L10.875 17.0625ZM15.9375 12L16.6446 11.2929C16.2541 10.9024 15.6209 10.9024 15.2304 11.2929L15.9375 12ZM19.1679 16.6446C19.5584 17.0351 20.1916 17.0351 20.5821 16.6446C20.9726 16.2541 20.9726 15.6209 20.5821 15.2304L19.875 15.9375L19.1679 16.6446ZM5.8125 17.625L6.51961 18.3321L9.33211 15.5196L8.625 14.8125L7.91789 14.1054L5.10539 16.9179L5.8125 17.625ZM8.625 14.8125L7.91789 15.5196L10.1679 17.7696L10.875 17.0625L11.5821 16.3554L9.33211 14.1054L8.625 14.8125ZM10.875 17.0625L11.5821 17.7696L16.6446 12.7071L15.9375 12L15.2304 11.2929L10.1679 16.3554L10.875 17.0625ZM15.9375 12L15.2304 12.7071L19.1679 16.6446L19.875 15.9375L20.5821 15.2304L16.6446 11.2929L15.9375 12ZM12 21V20C7.58172 20 4 16.4183 4 12H3H2C2 17.5228 6.47715 22 12 22V21ZM21 12H20C20 16.4183 16.4183 20 12 20V21V22C17.5228 22 22 17.5228 22 12H21ZM12 3V4C16.4183 4 20 7.58172 20 12H21H22C22 6.47715 17.5228 2 12 2V3ZM12 3V2C6.47715 2 2 6.47715 2 12H3H4C4 7.58172 7.58172 4 12 4V3ZM10.875 9.1875H9.875C9.875 9.5672 9.5672 9.875 9.1875 9.875V10.875V11.875C10.6718 11.875 11.875 10.6718 11.875 9.1875H10.875ZM9.1875 10.875V9.875C8.8078 9.875 8.5 9.5672 8.5 9.1875H7.5H6.5C6.5 10.6718 7.70323 11.875 9.1875 11.875V10.875ZM7.5 9.1875H8.5C8.5 8.8078 8.8078 8.5 9.1875 8.5V7.5V6.5C7.70323 6.5 6.5 7.70323 6.5 9.1875H7.5ZM9.1875 7.5V8.5C9.5672 8.5 9.875 8.8078 9.875 9.1875H10.875H11.875C11.875 7.70323 10.6718 6.5 9.1875 6.5V7.5Z" fill="#1D1D20" style="fill:#1D1D20;fill:color(display-p3 0.1148 0.1148 0.1252);fill-opacity:1;"/>
</svg>
