<svg width="24" height="24" viewBox="0 0 24 24" fill="none" xmlns="http://www.w3.org/2000/svg">
<path d="M2.3999 20.4001L1.61903 19.7754C1.3789 20.0756 1.33208 20.4868 1.4986 20.8333C1.66512 21.1798 2.0155 21.4001 2.3999 21.4001V20.4001ZM7.6799 13.8001L8.46077 13.1754C8.271 12.9382 7.98369 12.8001 7.6799 12.8001C7.37612 12.8001 7.0888 12.9382 6.89903 13.1754L7.6799 13.8001ZM9.5999 16.2001L8.81903 16.8248C9.0088 17.062 9.29612 17.2001 9.5999 17.2001C9.90369 17.2001 10.191 17.062 10.3808 16.8248L9.5999 16.2001ZM13.9199 10.8001L14.7008 10.1754C14.511 9.93819 14.2237 9.8001 13.9199 9.8001C13.6161 9.8001 13.3288 9.93819 13.139 10.1754L13.9199 10.8001ZM21.5999 20.4001V21.4001C21.9843 21.4001 22.3347 21.1798 22.5012 20.8333C22.6677 20.4868 22.6209 20.0756 22.3808 19.7754L21.5999 20.4001ZM8.3999 5.4001H7.3999C7.3999 5.84193 7.04173 6.2001 6.5999 6.2001V7.2001V8.2001C8.1463 8.2001 9.3999 6.94649 9.3999 5.4001H8.3999ZM6.5999 7.2001V6.2001C6.15807 6.2001 5.7999 5.84193 5.7999 5.4001H4.7999H3.7999C3.7999 6.94649 5.0535 8.2001 6.5999 8.2001V7.2001ZM4.7999 5.4001H5.7999C5.7999 4.95827 6.15807 4.6001 6.5999 4.6001V3.6001V2.6001C5.0535 2.6001 3.7999 3.8537 3.7999 5.4001H4.7999ZM6.5999 3.6001V4.6001C7.04173 4.6001 7.3999 4.95827 7.3999 5.4001H8.3999H9.3999C9.3999 3.8537 8.1463 2.6001 6.5999 2.6001V3.6001ZM2.3999 20.4001L3.18077 21.0248L8.46077 14.4248L7.6799 13.8001L6.89903 13.1754L1.61903 19.7754L2.3999 20.4001ZM7.6799 13.8001L6.89903 14.4248L8.81903 16.8248L9.5999 16.2001L10.3808 15.5754L8.46077 13.1754L7.6799 13.8001ZM9.5999 16.2001L10.3808 16.8248L14.7008 11.4248L13.9199 10.8001L13.139 10.1754L8.81903 15.5754L9.5999 16.2001ZM13.9199 10.8001L13.139 11.4248L20.819 21.0248L21.5999 20.4001L22.3808 19.7754L14.7008 10.1754L13.9199 10.8001ZM21.5999 20.4001V19.4001H2.3999V20.4001V21.4001H21.5999V20.4001Z" fill="#1D1D20" style="fill:#1D1D20;fill:color(display-p3 0.1148 0.1148 0.1252);fill-opacity:1;"/>
</svg>
