<svg width="24" height="24" viewBox="0 0 24 24" fill="none" xmlns="http://www.w3.org/2000/svg">
<path d="M5.69714 20.4999L14.7557 11.9742L19.0186 16.237M5.69714 20.4999H16.3543C18.12 20.4999 19.5514 19.0685 19.5514 17.3027V11.9742M5.69714 20.4999C3.93141 20.4999 2.5 19.0685 2.5 17.3027V6.6456C2.5 4.87987 3.93141 3.44846 5.69714 3.44846H12.6243M15.4714 6.6456H21.5M8.89428 8.24417C8.89428 9.12704 8.17858 9.84274 7.29571 9.84274C6.41285 9.84274 5.69714 9.12704 5.69714 8.24417C5.69714 7.36131 6.41285 6.6456 7.29571 6.6456C8.17858 6.6456 8.89428 7.36131 8.89428 8.24417Z" stroke="#1D1D20" style="stroke:#1D1D20;stroke:color(display-p3 0.1148 0.1148 0.1252);stroke-opacity:1;" stroke-width="2" stroke-linecap="round" stroke-linejoin="round"/>
</svg>
