<svg width="24" height="24" viewBox="0 0 24 24" fill="none" xmlns="http://www.w3.org/2000/svg">
<path d="M19.3999 15.6C19.3999 16.1522 19.8476 16.6 20.3999 16.6C20.9522 16.6 21.3999 16.1522 21.3999 15.6H20.3999H19.3999ZM2.5999 15.6C2.5999 16.1522 3.04762 16.6 3.5999 16.6C4.15219 16.6 4.5999 16.1522 4.5999 15.6H3.5999H2.5999ZM5.6999 4.19995V5.19995H18.2999V4.19995V3.19995H5.6999V4.19995ZM20.3999 6.23072H19.3999V15.6H20.3999H21.3999V6.23072H20.3999ZM3.5999 15.6H4.5999V6.23072H3.5999H2.5999V15.6H3.5999ZM18.2999 4.19995V5.19995C18.9393 5.19995 19.3999 5.69278 19.3999 6.23072H20.3999H21.3999C21.3999 4.52554 19.9801 3.19995 18.2999 3.19995V4.19995ZM5.6999 4.19995V3.19995C4.01968 3.19995 2.5999 4.52554 2.5999 6.23072H3.5999H4.5999C4.5999 5.69278 5.06053 5.19995 5.6999 5.19995V4.19995ZM3.5999 16.2V17.2H20.3999V16.2V15.2H3.5999V16.2ZM21.5999 17.4H20.5999V18.6H21.5999H22.5999V17.4H21.5999ZM20.3999 19.8V18.8H3.5999V19.8V20.7999H20.3999V19.8ZM2.3999 18.6H3.3999V17.4H2.3999H1.3999V18.6H2.3999ZM3.5999 19.8V18.8C3.48945 18.8 3.3999 18.7104 3.3999 18.6H2.3999H1.3999C1.3999 19.815 2.38488 20.7999 3.5999 20.7999V19.8ZM21.5999 18.6H20.5999C20.5999 18.7104 20.5104 18.8 20.3999 18.8V19.8V20.7999C21.6149 20.7999 22.5999 19.815 22.5999 18.6H21.5999ZM20.3999 16.2V17.2C20.5104 17.2 20.5999 17.2895 20.5999 17.4H21.5999H22.5999C22.5999 16.1849 21.6149 15.2 20.3999 15.2V16.2ZM3.5999 16.2V15.2C2.38488 15.2 1.3999 16.1849 1.3999 17.4H2.3999H3.3999C3.3999 17.2895 3.48945 17.2 3.5999 17.2V16.2Z" fill="#1D1D20" style="fill:#1D1D20;fill:color(display-p3 0.1148 0.1148 0.1252);fill-opacity:1;"/>
</svg>
