<svg width="24" height="24" viewBox="0 0 24 24" fill="none" xmlns="http://www.w3.org/2000/svg">
<path d="M11.1999 2.3999C11.1999 1.84762 10.7522 1.3999 10.1999 1.3999C9.64762 1.3999 9.1999 1.84762 9.1999 2.3999H10.1999H11.1999ZM9.1999 21.5999C9.1999 22.1522 9.64762 22.5999 10.1999 22.5999C10.7522 22.5999 11.1999 22.1522 11.1999 21.5999H10.1999H9.1999ZM5.9999 2.3999V3.3999H17.9999V2.3999V1.3999H5.9999V2.3999ZM21.5999 5.9999H20.5999V17.9999H21.5999H22.5999V5.9999H21.5999ZM17.9999 21.5999V20.5999H5.9999V21.5999V22.5999H17.9999V21.5999ZM2.3999 17.9999H3.3999V5.9999H2.3999H1.3999V17.9999H2.3999ZM5.9999 21.5999V20.5999C4.56396 20.5999 3.3999 19.4358 3.3999 17.9999H2.3999H1.3999C1.3999 20.5404 3.45939 22.5999 5.9999 22.5999V21.5999ZM21.5999 17.9999H20.5999C20.5999 19.4358 19.4358 20.5999 17.9999 20.5999V21.5999V22.5999C20.5404 22.5999 22.5999 20.5404 22.5999 17.9999H21.5999ZM17.9999 2.3999V3.3999C19.4358 3.3999 20.5999 4.56396 20.5999 5.9999H21.5999H22.5999C22.5999 3.45939 20.5404 1.3999 17.9999 1.3999V2.3999ZM5.9999 2.3999V1.3999C3.45939 1.3999 1.3999 3.45939 1.3999 5.9999H2.3999H3.3999C3.3999 4.56396 4.56396 3.3999 5.9999 3.3999V2.3999ZM10.1999 2.3999H9.1999V21.5999H10.1999H11.1999V2.3999H10.1999ZM10.1999 11.9999V12.9999H20.9999V11.9999V10.9999H10.1999V11.9999Z" fill="#1D1D20" style="fill:#1D1D20;fill:color(display-p3 0.1148 0.1148 0.1252);fill-opacity:1;"/>
</svg>
