<svg width="24" height="24" viewBox="0 0 24 24" fill="none" xmlns="http://www.w3.org/2000/svg">
<path d="M7.47096 10.2831L5.2375 12.5166C4.40337 13.3507 3.92369 14.4857 3.93245 15.6785C3.94122 16.8713 4.4104 18.0132 5.28412 18.8599C6.1308 19.7337 7.27293 20.2028 8.46555 20.2116C9.68538 20.2206 10.7935 19.7679 11.6277 18.9338L13.8611 16.7003M16.7139 13.9021L18.9474 11.6686C19.7815 10.8345 20.2612 9.69951 20.2524 8.5067C20.2437 7.31389 19.7745 6.172 18.9008 5.32527C18.0543 4.47878 16.9124 4.00957 15.7195 4.00081C14.5267 3.99204 13.3916 4.44449 12.5574 5.27865L10.324 7.5121M8.70555 15.4198L15.4059 8.71941M5.33611 5.2171L4.2298 4.11079M9.17761 3.26835L9.3586 1.44482M1.72168 9.08141L3.61234 8.89376M18.9407 18.5057L20.0471 19.612M15.0992 20.4545L14.9183 22.278M22.5552 14.6414L20.6645 14.8291" stroke="#1D1D20" style="stroke:#1D1D20;stroke:color(display-p3 0.1148 0.1148 0.1252);stroke-opacity:1;" stroke-width="2" stroke-linecap="round" stroke-linejoin="round"/>
</svg>
