<svg width="24" height="24" viewBox="0 0 24 24" fill="none" xmlns="http://www.w3.org/2000/svg">
<path d="M9.35294 16.2V18.3C9.35294 18.8569 9.57605 19.3911 9.97319 19.7849C10.3703 20.1787 10.909 20.4 11.4706 20.4L18.8824 20.4C19.444 20.4 19.9826 20.1787 20.3798 19.7849C20.7769 19.3911 21 18.8569 21 18.3L21 5.69998C21 5.14302 20.7769 4.60888 20.3798 4.21505C19.9826 3.82123 19.444 3.59998 18.8824 3.59998L11.4706 3.59998C10.909 3.59998 10.3703 3.82123 9.97319 4.21505C9.57605 4.60888 9.35294 5.14302 9.35294 5.69998V7.79998M15.7059 12L3 12M3 12L6.17647 15.15M3 12L6.17647 8.84998" stroke="#1D1D20" style="stroke:#1D1D20;stroke:color(display-p3 0.1148 0.1148 0.1252);stroke-opacity:1;" stroke-width="2" stroke-linecap="round" stroke-linejoin="round"/>
</svg>
