<svg width="24" height="24" viewBox="0 0 24 24" fill="none" xmlns="http://www.w3.org/2000/svg">
<path d="M14.6471 7.79998V5.69998C14.6471 5.14302 14.424 4.60888 14.0268 4.21505C13.6297 3.82122 13.091 3.59998 12.5294 3.59998H5.11765C4.55601 3.59998 4.01738 3.82122 3.62024 4.21505C3.22311 4.60888 3 5.14302 3 5.69998V18.3C3 18.8569 3.22311 19.3911 3.62024 19.7849C4.01738 20.1787 4.55601 20.4 5.11765 20.4H12.5294C13.091 20.4 13.6297 20.1787 14.0268 19.7849C14.424 19.3911 14.6471 18.8569 14.6471 18.3V16.2M8.29412 12H21M21 12L17.8235 8.84998M21 12L17.8235 15.15" stroke="#1D1D20" style="stroke:#1D1D20;stroke:color(display-p3 0.1148 0.1148 0.1252);stroke-opacity:1;" stroke-width="2" stroke-linecap="round" stroke-linejoin="round"/>
</svg>
