<svg width="24" height="24" viewBox="0 0 24 24" fill="none" xmlns="http://www.w3.org/2000/svg">
<path d="M15.25 8.49568L14.8676 9.41969V9.41969L15.25 8.49568ZM19.4927 19.1115C20.003 19.3227 20.5879 19.0802 20.799 18.5699C21.0102 18.0595 20.7677 17.4747 20.2574 17.2635L19.875 18.1875L19.4927 19.1115ZM3.94485 10.5135C3.43453 10.3023 2.84965 10.5448 2.63848 11.0552C2.42732 11.5655 2.66983 12.1504 3.18015 12.3615L3.5625 11.4375L3.94485 10.5135ZM6.17647 3V4H17.8235V3V2H6.17647V3ZM17.8235 21V20H6.17647V21V22H17.8235V21ZM3 17.8235H4V6.17647H3H2V17.8235H3ZM6.17647 21V20C4.97444 20 4 19.0256 4 17.8235H3H2C2 20.1301 3.86987 22 6.17647 22V21ZM21 17.8235H20C20 19.0256 19.0256 20 17.8235 20V21V22C20.1301 22 22 20.1301 22 17.8235H21ZM17.8235 3V4C19.0256 4 20 4.97444 20 6.17647H21H22C22 3.86987 20.1301 2 17.8235 2V3ZM6.17647 3V2C3.86987 2 2 3.86987 2 6.17647H3H4C4 4.97444 4.97444 4 6.17647 4V3ZM21 10.875H20V17.8235H21H22V10.875H21ZM4.6875 4.125L4.30515 5.04902L14.8676 9.41969L15.25 8.49568L15.6323 7.57166L5.06985 3.20098L4.6875 4.125ZM15.25 8.49568L14.8676 9.41969L20.6176 11.799L21 10.875L21.3824 9.95098L15.6323 7.57166L15.25 8.49568ZM17.8235 3.5625L16.9369 3.09997L14.3634 8.03315L15.25 8.49568L16.1366 8.9582L18.7101 4.02503L17.8235 3.5625ZM19.875 18.1875L20.2574 17.2635L3.94485 10.5135L3.5625 11.4375L3.18015 12.3615L19.4927 19.1115L19.875 18.1875ZM21 6.17647H20V10.875H21H22V6.17647H21Z" fill="#1D1D20" style="fill:#1D1D20;fill:color(display-p3 0.1148 0.1148 0.1252);fill-opacity:1;"/>
</svg>
