<svg width="24" height="24" viewBox="0 0 24 24" fill="none" xmlns="http://www.w3.org/2000/svg">
<path d="M11.9999 14.3999L11.3437 15.1545C11.72 15.4817 12.2798 15.4817 12.6561 15.1545L11.9999 14.3999ZM6.87308 15.2542C7.40436 15.1033 7.71274 14.5503 7.56186 14.0191C7.41099 13.4878 6.858 13.1794 6.32672 13.3303L6.5999 14.2922L6.87308 15.2542ZM17.6731 13.3303C17.1418 13.1794 16.5888 13.4878 16.4379 14.0191C16.2871 14.5503 16.5954 15.1033 17.1267 15.2542L17.3999 14.2922L17.6731 13.3303ZM16.7999 7.09555H15.7999C15.7999 7.64012 15.5846 8.31631 15.1704 9.08156C14.7635 9.83343 14.2084 10.5919 13.6328 11.2801C13.06 11.9649 12.4844 12.5597 12.0506 12.984C11.8343 13.1955 11.6549 13.3633 11.5306 13.4771C11.4686 13.534 11.4204 13.5773 11.3884 13.6058C11.3725 13.62 11.3606 13.6305 11.353 13.6372C11.3492 13.6405 11.3465 13.6428 11.345 13.6442C11.3442 13.6449 11.3437 13.6453 11.3435 13.6455C11.3434 13.6456 11.3434 13.6456 11.3434 13.6456C11.3434 13.6456 11.3435 13.6455 11.3435 13.6455C11.3436 13.6454 11.3437 13.6453 11.9999 14.3999C12.6561 15.1545 12.6562 15.1544 12.6564 15.1542C12.6565 15.1542 12.6567 15.154 12.6568 15.1538C12.6572 15.1536 12.6576 15.1532 12.6581 15.1528C12.659 15.152 12.6602 15.1509 12.6618 15.1495C12.6648 15.1469 12.669 15.1432 12.6743 15.1385C12.6849 15.1292 12.7 15.1159 12.7192 15.0988C12.7575 15.0646 12.8125 15.0152 12.8817 14.9518C13.0199 14.8251 13.2155 14.6423 13.4492 14.4136C13.9154 13.9575 14.5398 13.3131 15.167 12.5632C15.7914 11.8166 16.4363 10.9446 16.9294 10.0335C17.4152 9.13567 17.7999 8.1162 17.7999 7.09555H16.7999ZM11.9999 14.3999C12.6561 13.6453 12.6562 13.6454 12.6563 13.6455C12.6563 13.6455 12.6564 13.6456 12.6564 13.6456C12.6564 13.6456 12.6564 13.6456 12.6563 13.6455C12.6561 13.6453 12.6556 13.6449 12.6548 13.6442C12.6533 13.6428 12.6506 13.6405 12.6468 13.6372C12.6392 13.6305 12.6273 13.62 12.6114 13.6058C12.5794 13.5773 12.5312 13.534 12.4692 13.4771C12.3449 13.3633 12.1655 13.1955 11.9492 12.984C11.5154 12.5597 10.9398 11.9649 10.367 11.2801C9.79141 10.5919 9.23627 9.83343 8.82938 9.08156C8.41524 8.31631 8.1999 7.64012 8.1999 7.09555H7.1999H6.1999C6.1999 8.1162 6.58457 9.13567 7.07043 10.0335C7.56354 10.9446 8.20839 11.8166 8.83283 12.5632C9.46004 13.3131 10.0844 13.9575 10.5506 14.4136C10.7843 14.6423 10.9799 14.8251 11.1181 14.9518C11.1873 15.0152 11.2423 15.0646 11.2806 15.0988C11.2998 15.1159 11.3149 15.1292 11.3255 15.1385C11.3308 15.1432 11.335 15.1469 11.338 15.1495C11.3396 15.1509 11.3408 15.152 11.3417 15.1528C11.3422 15.1532 11.3426 15.1536 11.343 15.1538C11.3431 15.154 11.3433 15.1542 11.3434 15.1542C11.3436 15.1544 11.3437 15.1545 11.9999 14.3999ZM7.1999 7.09555H8.1999C8.1999 5.07511 9.88039 3.3999 11.9999 3.3999V2.3999V1.3999C8.81749 1.3999 6.1999 3.92933 6.1999 7.09555H7.1999ZM11.9999 2.3999V3.3999C14.1194 3.3999 15.7999 5.07511 15.7999 7.09555H16.7999H17.7999C17.7999 3.92933 15.1823 1.3999 11.9999 1.3999V2.3999ZM21.5999 17.5999H20.5999C20.5999 17.8038 20.5049 18.0886 20.1437 18.4445C19.7789 18.8038 19.1998 19.1735 18.4035 19.5053C16.8153 20.167 14.5518 20.5999 11.9999 20.5999V21.5999V22.5999C14.7499 22.5999 17.2865 22.1374 19.1727 21.3514C20.1137 20.9593 20.9405 20.467 21.5473 19.8693C22.1576 19.268 22.5999 18.5005 22.5999 17.5999H21.5999ZM11.9999 21.5999V20.5999C9.44796 20.5999 7.18453 20.167 5.59629 19.5053C4.79999 19.1735 4.22087 18.8038 3.8561 18.4445C3.49486 18.0886 3.3999 17.8038 3.3999 17.5999H2.3999H1.3999C1.3999 18.5005 1.8422 19.268 2.45253 19.8693C3.05934 20.467 3.88611 20.9593 4.82706 21.3514C6.71334 22.1374 9.2499 22.5999 11.9999 22.5999V21.5999ZM2.3999 17.5999H3.3999C3.3999 17.3489 3.55094 16.9617 4.15965 16.4925C4.75833 16.0311 5.67851 15.5934 6.87308 15.2542L6.5999 14.2922L6.32672 13.3303C4.98597 13.711 3.80615 14.2398 2.93866 14.9085C2.0812 15.5694 1.3999 16.476 1.3999 17.5999H2.3999ZM17.3999 14.2922L17.1267 15.2542C18.3213 15.5934 19.2415 16.0311 19.8402 16.4925C20.4489 16.9617 20.5999 17.3489 20.5999 17.5999H21.5999H22.5999C22.5999 16.476 21.9186 15.5694 21.0611 14.9085C20.1936 14.2398 19.0138 13.711 17.6731 13.3303L17.3999 14.2922Z" fill="#1D1D20" style="fill:#1D1D20;fill:color(display-p3 0.1148 0.1148 0.1252);fill-opacity:1;"/>
</svg>
