<svg width="24" height="24" viewBox="0 0 24 24" fill="none" xmlns="http://www.w3.org/2000/svg">
<path d="M11.6869 17.1911V16.1911C11.4216 16.1911 11.1673 16.2965 10.9798 16.484L11.6869 17.1911ZM6.67816 22.1998H5.67816C5.67816 22.6043 5.9218 22.9689 6.29548 23.1237C6.66915 23.2785 7.09927 23.1929 7.38527 22.9069L6.67816 22.1998ZM6.67816 17.1911H7.67816C7.67816 16.6388 7.23045 16.1911 6.67816 16.1911V17.1911ZM10.7999 3.9998C11.3522 3.9998 11.7999 3.55209 11.7999 2.9998C11.7999 2.44752 11.3522 1.9998 10.7999 1.9998V2.9998V3.9998ZM22.5999 11.9998C22.5999 11.4475 22.1522 10.9998 21.5999 10.9998C21.0476 10.9998 20.5999 11.4475 20.5999 11.9998H21.5999H22.5999ZM11.6869 17.1911L10.9798 16.484L5.97106 21.4927L6.67816 22.1998L7.38527 22.9069L12.394 17.8982L11.6869 17.1911ZM6.67816 22.1998H7.67816V17.1911H6.67816H5.67816V22.1998H6.67816ZM6.67816 17.1911V16.1911H4.7999V17.1911V18.1911H6.67816V17.1911ZM2.3999 14.7911H3.3999V5.39981H2.3999H1.3999V14.7911H2.3999ZM19.1999 17.1911V16.1911H11.6869V17.1911V18.1911H19.1999V17.1911ZM4.7999 2.9998V3.9998H10.7999V2.9998V1.9998H4.7999V2.9998ZM21.5999 11.9998H20.5999V14.7911H21.5999H22.5999V11.9998H21.5999ZM19.1999 17.1911V18.1911C21.0777 18.1911 22.5999 16.6689 22.5999 14.7911H21.5999H20.5999C20.5999 15.5643 19.9731 16.1911 19.1999 16.1911V17.1911ZM2.3999 5.39981H3.3999C3.3999 4.62661 4.0267 3.9998 4.7999 3.9998V2.9998V1.9998C2.92213 1.9998 1.3999 3.52204 1.3999 5.39981H2.3999ZM4.7999 17.1911V16.1911C4.0267 16.1911 3.3999 15.5643 3.3999 14.7911H2.3999H1.3999C1.3999 16.6689 2.92214 18.1911 4.7999 18.1911V17.1911ZM21.5999 5.3998H20.5999C20.5999 6.83575 19.4358 7.9998 17.9999 7.9998V8.9998V9.99981C20.5404 9.99981 22.5999 7.94031 22.5999 5.3998H21.5999ZM17.9999 8.9998V7.9998C16.564 7.9998 15.3999 6.83575 15.3999 5.3998H14.3999H13.3999C13.3999 7.94031 15.4594 9.99981 17.9999 9.99981V8.9998ZM14.3999 5.3998H15.3999C15.3999 3.96386 16.564 2.7998 17.9999 2.7998V1.7998V0.799805C15.4594 0.799805 13.3999 2.8593 13.3999 5.3998H14.3999ZM17.9999 1.7998V2.7998C19.4358 2.7998 20.5999 3.96386 20.5999 5.3998H21.5999H22.5999C22.5999 2.8593 20.5404 0.799805 17.9999 0.799805V1.7998Z" fill="#1D1D20" style="fill:#1D1D20;fill:color(display-p3 0.1148 0.1148 0.1252);fill-opacity:1;"/>
</svg>
