<svg width="24" height="24" viewBox="0 0 24 24" fill="none" xmlns="http://www.w3.org/2000/svg">
<path d="M22.5989 12.5998C22.5989 12.0475 22.1512 11.5998 21.5989 11.5998C21.0466 11.5998 20.5989 12.0475 20.5989 12.5998H21.5989H22.5989ZM20.7834 16.4778L19.8688 16.0734C19.7931 16.2447 19.767 16.4338 19.7935 16.6192L20.7834 16.4778ZM16.6978 20.9732L16.9404 20.003C16.6925 19.9411 16.4303 19.9763 16.2076 20.1015L16.6978 20.9732ZM21.6007 22.1989L21.3582 23.169C21.6812 23.2498 22.0232 23.1645 22.2705 22.9415C22.5177 22.7185 22.6378 22.3871 22.5907 22.0575L21.6007 22.1989ZM10.3853 4.15076C10.9279 4.04783 11.2843 3.52452 11.1814 2.98191C11.0785 2.4393 10.5552 2.08287 10.0126 2.1858L10.1989 3.16828L10.3853 4.15076ZM21.5989 12.5998H20.5989C20.5989 13.8379 20.3379 15.0124 19.8688 16.0734L20.7834 16.4778L21.698 16.8821C22.2776 15.5713 22.5989 14.1217 22.5989 12.5998H21.5989ZM11.9989 22.1998V21.1998C7.24928 21.1998 3.39893 17.3495 3.39893 12.5998H2.39893H1.39893C1.39893 18.454 6.14471 23.1998 11.9989 23.1998V22.1998ZM16.6978 20.9732L16.2076 20.1015C14.9645 20.8007 13.5298 21.1998 11.9989 21.1998V22.1998V23.1998C13.882 23.1998 15.6533 22.7079 17.188 21.8448L16.6978 20.9732ZM21.6007 22.1989L21.8433 21.2288L16.9404 20.003L16.6978 20.9732L16.4553 21.9433L21.3582 23.169L21.6007 22.1989ZM20.7834 16.4778L19.7935 16.6192L20.6108 22.3403L21.6007 22.1989L22.5907 22.0575L21.7734 16.3363L20.7834 16.4778ZM2.39893 12.5998H3.39893C3.39893 8.4024 6.40697 4.90542 10.3853 4.15076L10.1989 3.16828L10.0126 2.1858C5.10779 3.1162 1.39893 7.4238 1.39893 12.5998H2.39893ZM21.5989 5.3998H20.5989C20.5989 6.83575 19.4349 7.9998 17.9989 7.9998V8.9998V9.99981C20.5394 9.99981 22.5989 7.94031 22.5989 5.3998H21.5989ZM17.9989 8.9998V7.9998C16.563 7.9998 15.3989 6.83575 15.3989 5.3998H14.3989H13.3989C13.3989 7.94031 15.4584 9.99981 17.9989 9.99981V8.9998ZM14.3989 5.3998H15.3989C15.3989 3.96386 16.563 2.7998 17.9989 2.7998V1.7998V0.799805C15.4584 0.799805 13.3989 2.8593 13.3989 5.3998H14.3989ZM17.9989 1.7998V2.7998C19.4349 2.7998 20.5989 3.96386 20.5989 5.3998H21.5989H22.5989C22.5989 2.8593 20.5394 0.799805 17.9989 0.799805V1.7998Z" fill="#1D1D20" style="fill:#1D1D20;fill:color(display-p3 0.1148 0.1148 0.1252);fill-opacity:1;"/>
</svg>
