<svg width="24" height="24" viewBox="0 0 24 24" fill="none" xmlns="http://www.w3.org/2000/svg">
<path d="M9.17561 3.36394C9.79288 2.74668 10.6301 2.3999 11.503 2.3999C12.3759 2.3999 13.2131 2.74668 13.8304 3.36394C14.4477 3.9812 14.7944 4.81839 14.7944 5.69133V8.9999M3.8998 11.177C4.16563 13.0035 5.08019 14.6733 6.47615 15.8808C7.87212 17.0883 9.65616 17.7528 11.5019 17.7528M11.5019 17.7528C13.3477 17.7528 15.1317 17.0883 16.5277 15.8808C17.9236 14.6733 18.8382 13.0035 19.104 11.177M11.5019 17.7528V21.5999M8.21158 7.7999V10.0799C8.21158 10.9528 8.55835 11.79 9.17561 12.4073C9.79288 13.0246 10.6301 13.3713 11.503 13.3713C12.0615 13.3713 12.6054 13.2294 13.0864 12.9655M3.2998 2.3999L20.6998 19.7999" stroke="#1D1D20" style="stroke:#1D1D20;stroke:color(display-p3 0.1148 0.1148 0.1252);stroke-opacity:1;" stroke-width="2" stroke-linecap="round" stroke-linejoin="round"/>
</svg>
