<svg width="24" height="24" viewBox="0 0 24 24" fill="none" xmlns="http://www.w3.org/2000/svg">
<path d="M2.49316 13.3764C2.8256 15.6606 3.96932 17.7487 5.71508 19.2588C7.46084 20.7688 9.69192 21.5999 12.0002 21.5999C14.3084 21.5999 16.5395 20.7688 18.2853 19.2588C20.031 17.7487 21.1747 15.6606 21.5072 13.3764M12.0015 2.3999C10.9099 2.3999 9.86289 2.83357 9.09096 3.6055C8.31903 4.37744 7.88536 5.4244 7.88536 6.51608V12.0043C7.88536 13.096 8.31903 14.143 9.09096 14.9149C9.86289 15.6868 10.9099 16.1205 12.0015 16.1205C13.0932 16.1205 14.1402 15.6868 14.9121 14.9149C15.6841 14.143 16.1177 13.096 16.1177 12.0043V6.51608C16.1177 5.4244 15.6841 4.37744 14.9121 3.6055C14.1402 2.83357 13.0932 2.3999 12.0015 2.3999Z" stroke="#1D1D20" style="stroke:#1D1D20;stroke:color(display-p3 0.1148 0.1148 0.1252);stroke-opacity:1;" stroke-width="2" stroke-linecap="round" stroke-linejoin="round"/>
</svg>
