<svg width="24" height="24" viewBox="0 0 24 24" fill="none" xmlns="http://www.w3.org/2000/svg">
<path d="M18.9001 11.7001V8.7001M18.9001 8.7001V5.7001M18.9001 8.7001L21.9001 8.7001M18.9001 8.7001H15.9001M14.1001 5.7001V3.9001M14.1001 3.9001V2.1001M14.1001 3.9001L15.9001 3.9001M14.1001 3.9001L12.3001 3.9001M21.3 14.9395C20.3977 15.2132 19.4404 15.3603 18.4488 15.3603C13.0308 15.3603 8.63863 10.9681 8.63863 5.55013C8.63863 4.55891 8.78564 3.60203 9.05904 2.7001C5.03161 3.92148 2.1001 7.66314 2.1001 12.0895C2.1001 17.5075 6.49226 21.8996 11.9103 21.8996C16.337 21.8996 20.079 18.9676 21.3 14.9395Z" stroke="#1D1D20" style="stroke:#1D1D20;stroke:color(display-p3 0.1148 0.1148 0.1252);stroke-opacity:1;" stroke-width="2" stroke-linecap="round" stroke-linejoin="round"/>
</svg>
