<svg width="24" height="24" viewBox="0 0 24 24" fill="none" xmlns="http://www.w3.org/2000/svg">
<path d="M12.0002 5.9999V6.03313M6.03313 12.0002H5.9999M16.2429 7.75745L16.2194 7.78095M7.78108 16.2192L7.75758 16.2427M7.78108 7.78057L7.75758 7.75707M11.9999 21.5999C6.69797 21.5999 2.3999 17.3018 2.3999 11.9999C2.3999 6.69797 6.69797 2.3999 11.9999 2.3999C17.3018 2.3999 21.5999 6.69797 21.5999 11.9999C21.5999 13.614 20.1085 14.6879 18.4945 14.6879H17.8679C17.5443 14.6879 17.2252 14.7632 16.9359 14.9079C15.9064 15.4226 15.4892 16.6744 16.0039 17.7039C16.1486 17.9932 16.2239 18.3123 16.2239 18.6359V18.825C16.2239 19.9256 15.6063 20.9678 14.5449 21.2589C13.7344 21.4812 12.881 21.5999 11.9999 21.5999Z" stroke="#1D1D20" style="stroke:#1D1D20;stroke:color(display-p3 0.1148 0.1148 0.1252);stroke-opacity:1;" stroke-width="2" stroke-linecap="round" stroke-linejoin="round"/>
</svg>
