<svg width="24" height="24" viewBox="0 0 24 24" fill="none" xmlns="http://www.w3.org/2000/svg">
<path d="M9.5998 16.7999H14.3998M6.79981 21.5999H17.1998C18.3044 21.5999 19.1998 20.7045 19.1998 19.5999V4.3999C19.1998 3.29533 18.3044 2.3999 17.1998 2.3999H6.7998C5.69524 2.3999 4.7998 3.29533 4.7998 4.3999V19.5999C4.7998 20.7045 5.69524 21.5999 6.79981 21.5999ZM14.3998 8.3999C14.3998 9.72539 13.3253 10.7999 11.9998 10.7999C10.6743 10.7999 9.5998 9.72539 9.5998 8.3999C9.5998 7.07442 10.6743 5.9999 11.9998 5.9999C13.3253 5.9999 14.3998 7.07442 14.3998 8.3999Z" stroke="#1D1D20" style="stroke:#1D1D20;stroke:color(display-p3 0.1148 0.1148 0.1252);stroke-opacity:1;" stroke-width="2" stroke-linecap="round" stroke-linejoin="round"/>
</svg>
