<svg width="24" height="24" viewBox="0 0 24 24" fill="none" xmlns="http://www.w3.org/2000/svg">
<path d="M19.5824 13.8978C19.7671 13.3773 19.4949 12.8056 18.9744 12.6209C18.4539 12.4363 17.8823 12.7085 17.6976 13.229L18.64 13.5634L19.5824 13.8978ZM16.6065 19.294L17.549 19.6284V19.6284L16.6065 19.294ZM15.2351 20.4814L15.4312 21.462V21.462L15.2351 20.4814ZM3.26387 22.8757L2.27974 22.6982C2.221 23.024 2.32725 23.3577 2.5635 23.5895C2.79976 23.8213 3.13542 23.9212 3.45998 23.8563L3.26387 22.8757ZM5.44849 10.761L6.43262 10.9384V10.9384L5.44849 10.761ZM6.70882 9.33309L7.0071 10.2876H7.0071L6.70882 9.33309ZM12.8744 8.45403C13.4016 8.28929 13.6954 7.72842 13.5307 7.20127C13.3659 6.67413 12.805 6.38033 12.2779 6.54507L12.5762 7.49955L12.8744 8.45403ZM2.77333 21.952C2.3828 22.3425 2.3828 22.9757 2.77333 23.3662C3.16385 23.7568 3.79701 23.7568 4.18754 23.3662L3.48043 22.6591L2.77333 21.952ZM9.38511 18.1687C9.77563 17.7781 9.77563 17.145 9.38511 16.7544C8.99458 16.3639 8.36142 16.3639 7.97089 16.7544L8.678 17.4616L9.38511 18.1687ZM22.105 9.23207L22.8122 8.52496V8.52496L22.105 9.23207ZM22.105 10.9646L22.8122 11.6717V11.6717L22.105 10.9646ZM15.175 4.0345L14.4678 3.32739V3.32739L15.175 4.0345ZM16.9075 4.0345L16.2004 4.74161V4.74161L16.9075 4.0345ZM13.0093 7.93268L12.3022 8.63978V8.63978L13.0093 7.93268ZM13.0093 6.20015L13.7164 6.90726V6.90726L13.0093 6.20015ZM18.2069 13.1302L18.914 12.4231V12.4231L18.2069 13.1302ZM19.9394 13.1302L19.2323 12.4231V12.4231L19.9394 13.1302ZM2.84438 6.60038C2.84438 7.15266 3.29209 7.60038 3.84438 7.60038C4.39666 7.60038 4.84438 7.15266 4.84438 6.60038H3.84438L2.84438 6.60038ZM4.84438 1.31201C4.84438 0.759727 4.39666 0.312012 3.84438 0.312012C3.29209 0.312012 2.84438 0.759727 2.84438 1.31201L3.84438 1.31201L4.84438 1.31201ZM1.2002 2.95619C0.64791 2.95619 0.200195 3.40391 0.200195 3.95619C0.200195 4.50848 0.647911 4.95619 1.2002 4.95619L1.2002 3.95619L1.2002 2.95619ZM6.48856 4.95619C7.04084 4.95619 7.48856 4.50848 7.48856 3.95619C7.48856 3.40391 7.04084 2.95619 6.48856 2.95619V3.95619V4.95619ZM18.64 13.5634L17.6976 13.229L15.6641 18.9596L16.6065 19.294L17.549 19.6284L19.5824 13.8978L18.64 13.5634ZM15.2351 20.4814L15.039 19.5009L3.06775 21.8951L3.26387 22.8757L3.45998 23.8563L15.4312 21.462L15.2351 20.4814ZM3.26387 22.8757L4.24799 23.0532L6.43262 10.9384L5.44849 10.761L4.46436 10.5835L2.27974 22.6982L3.26387 22.8757ZM6.70882 9.33309L7.0071 10.2876L12.8744 8.45403L12.5762 7.49955L12.2779 6.54507L6.41055 8.37861L6.70882 9.33309ZM5.44849 10.761L6.43262 10.9384C6.48798 10.6314 6.70935 10.3806 7.0071 10.2876L6.70882 9.33309L6.41055 8.37861C5.40186 8.69383 4.65191 9.54347 4.46436 10.5835L5.44849 10.761ZM16.6065 19.294L15.6641 18.9596C15.5655 19.2375 15.3281 19.443 15.039 19.5009L15.2351 20.4814L15.4312 21.462C16.4107 21.2661 17.215 20.5697 17.549 19.6284L16.6065 19.294ZM3.48043 22.6591L4.18754 23.3662L9.38511 18.1687L8.678 17.4616L7.97089 16.7544L2.77333 21.952L3.48043 22.6591ZM18.2069 13.1302L18.914 12.4231L13.7164 7.22557L13.0093 7.93268L12.3022 8.63978L17.4998 13.8374L18.2069 13.1302ZM13.0093 6.20015L13.7164 6.90726L15.8821 4.74161L15.175 4.0345L14.4678 3.32739L12.3022 5.49305L13.0093 6.20015ZM16.9075 4.0345L16.2004 4.74161L21.3979 9.93918L22.105 9.23207L22.8122 8.52496L17.6146 3.32739L16.9075 4.0345ZM22.105 10.9646L21.3979 10.2575L19.2323 12.4231L19.9394 13.1302L20.6465 13.8374L22.8122 11.6717L22.105 10.9646ZM22.105 9.23207L21.3979 9.93918C21.4858 10.0271 21.4858 10.1696 21.3979 10.2575L22.105 10.9646L22.8122 11.6717C23.6811 10.8028 23.6811 9.39391 22.8122 8.52496L22.105 9.23207ZM15.175 4.0345L15.8821 4.74161C15.97 4.65371 16.1125 4.65371 16.2004 4.74161L16.9075 4.0345L17.6146 3.32739C16.7456 2.45845 15.3368 2.45845 14.4678 3.32739L15.175 4.0345ZM13.0093 7.93268L13.7164 7.22557C13.6285 7.13767 13.6285 6.99516 13.7164 6.90726L13.0093 6.20015L12.3022 5.49305C11.4333 6.362 11.4332 7.77084 12.3022 8.63978L13.0093 7.93268ZM18.2069 13.1302L17.4998 13.8374C18.3687 14.7063 19.7776 14.7063 20.6465 13.8374L19.9394 13.1302L19.2323 12.4231C19.1444 12.511 19.0019 12.511 18.914 12.4231L18.2069 13.1302ZM9.11113 13.5634L9.81824 14.2705C10.3846 13.7042 11.3027 13.7042 11.8691 14.2705L12.5762 13.5634L13.2833 12.8563C11.9359 11.5089 9.75139 11.5089 8.40402 12.8563L9.11113 13.5634ZM12.5762 13.5634L11.8691 14.2705C12.4354 14.8368 12.4354 15.755 11.8691 16.3213L12.5762 17.0284L13.2833 17.7355C14.6307 16.3882 14.6307 14.2036 13.2833 12.8563L12.5762 13.5634ZM12.5762 17.0284L11.8691 16.3213C11.3027 16.8876 10.3846 16.8876 9.81824 16.3213L9.11113 17.0284L8.40402 17.7355C9.75139 19.0829 11.9359 19.0829 13.2833 17.7355L12.5762 17.0284ZM9.11113 17.0284L9.81824 16.3213C9.25191 15.755 9.25191 14.8368 9.81824 14.2705L9.11113 13.5634L8.40402 12.8563C7.05665 14.2036 7.05665 16.3882 8.40402 17.7355L9.11113 17.0284ZM3.84438 6.60038H4.84438L4.84438 3.95619H3.84438L2.84438 3.95619L2.84438 6.60038L3.84438 6.60038ZM3.84438 3.95619H4.84438L4.84438 1.31201L3.84438 1.31201L2.84438 1.31201L2.84438 3.95619L3.84438 3.95619ZM1.2002 3.95619L1.2002 4.95619L3.84438 4.95619L3.84438 3.95619V2.95619L1.2002 2.95619L1.2002 3.95619ZM3.84438 3.95619L3.84438 4.95619L6.48856 4.95619V3.95619V2.95619L3.84438 2.95619V3.95619Z" fill="#1D1D20" style="fill:#1D1D20;fill:color(display-p3 0.1148 0.1148 0.1252);fill-opacity:1;"/>
</svg>
