<svg width="24" height="24" viewBox="0 0 24 24" fill="none" xmlns="http://www.w3.org/2000/svg">
<path d="M6.14413 11.4535C5.95944 11.974 6.23166 12.5456 6.75215 12.7303C7.27263 12.915 7.84429 12.6428 8.02898 12.1223L7.08656 11.7879L6.14413 11.4535ZM9.12001 6.05725L8.17758 5.72284V5.72284L9.12001 6.05725ZM10.4914 4.86984L10.2953 3.88926L10.2953 3.88926L10.4914 4.86984ZM22.4627 2.47559L23.4468 2.65305C23.5056 2.32731 23.3993 1.99361 23.1631 1.7618C22.9268 1.52998 22.5911 1.43009 22.2666 1.49501L22.4627 2.47559ZM20.2781 14.5903L19.2939 14.4129V14.4129L20.2781 14.5903ZM19.0177 16.0182L18.7195 15.0637L18.7195 15.0637L19.0177 16.0182ZM12.8521 16.8972C12.325 17.062 12.0312 17.6229 12.1959 18.15C12.3606 18.6771 12.9215 18.9709 13.4487 18.8062L13.1504 17.8517L12.8521 16.8972ZM22.9532 3.39926C23.3438 3.00874 23.3438 2.37557 22.9532 1.98505C22.5627 1.59452 21.9295 1.59452 21.539 1.98505L22.2461 2.69215L22.9532 3.39926ZM16.3415 7.18261C15.9509 7.57314 15.9509 8.2063 16.3415 8.59683C16.732 8.98735 17.3651 8.98735 17.7557 8.59683L17.0486 7.88972L16.3415 7.18261ZM3.62151 16.1192L2.91441 16.8263H2.91441L3.62151 16.1192ZM3.62151 14.3867L4.32862 15.0938H4.32862L3.62151 14.3867ZM10.5516 21.3168L11.2587 22.0239V22.0239L10.5516 21.3168ZM8.81908 21.3168L9.52619 20.6097V20.6097L8.81908 21.3168ZM12.7173 17.4186L12.0101 18.1257V18.1257L12.7173 17.4186ZM12.7173 19.1511L12.0101 18.444V18.444L12.7173 19.1511ZM7.51969 12.221L8.22679 11.5139V11.5139L7.51969 12.221ZM5.78717 12.221L5.08006 11.5139H5.08006L5.78717 12.221ZM7.08656 11.7879L8.02898 12.1223L10.0624 6.39166L9.12001 6.05725L8.17758 5.72284L6.14413 11.4535L7.08656 11.7879ZM10.4914 4.86984L10.6876 5.85042L22.6588 3.45617L22.4627 2.47559L22.2666 1.49501L10.2953 3.88926L10.4914 4.86984ZM22.4627 2.47559L21.4786 2.29812L19.2939 14.4129L20.2781 14.5903L21.2622 14.7678L23.4468 2.65305L22.4627 2.47559ZM19.0177 16.0182L18.7195 15.0637L12.8521 16.8972L13.1504 17.8517L13.4487 18.8062L19.316 16.9727L19.0177 16.0182ZM20.2781 14.5903L19.2939 14.4129C19.2386 14.7199 19.0172 14.9706 18.7195 15.0637L19.0177 16.0182L19.316 16.9727C20.3247 16.6574 21.0746 15.8078 21.2622 14.7678L20.2781 14.5903ZM9.12001 6.05725L10.0624 6.39166C10.161 6.1138 10.3985 5.90824 10.6876 5.85042L10.4914 4.86984L10.2953 3.88926C9.31591 4.08514 8.5116 4.78153 8.17758 5.72284L9.12001 6.05725ZM22.2461 2.69215L21.539 1.98505L16.3415 7.18261L17.0486 7.88972L17.7557 8.59683L22.9532 3.39926L22.2461 2.69215ZM7.51969 12.221L6.81258 12.9281L12.0101 18.1257L12.7173 17.4186L13.4244 16.7115L8.22679 11.5139L7.51969 12.221ZM12.7173 19.1511L12.0101 18.444L9.84449 20.6097L10.5516 21.3168L11.2587 22.0239L13.4244 19.8582L12.7173 19.1511ZM8.81908 21.3168L9.52619 20.6097L4.32862 15.4121L3.62151 16.1192L2.91441 16.8263L8.11197 22.0239L8.81908 21.3168ZM3.62151 14.3867L4.32862 15.0938L6.49427 12.9281L5.78717 12.221L5.08006 11.5139L2.91441 13.6796L3.62151 14.3867ZM3.62151 16.1192L4.32862 15.4121C4.24072 15.3242 4.24072 15.1817 4.32862 15.0938L3.62151 14.3867L2.91441 13.6796C2.04546 14.5485 2.04546 15.9574 2.91441 16.8263L3.62151 16.1192ZM10.5516 21.3168L9.84449 20.6097C9.7566 20.6976 9.61408 20.6976 9.52619 20.6097L8.81908 21.3168L8.11197 22.0239C8.98092 22.8928 10.3898 22.8928 11.2587 22.0239L10.5516 21.3168ZM12.7173 17.4186L12.0101 18.1257C12.098 18.2136 12.098 18.3561 12.0101 18.444L12.7173 19.1511L13.4244 19.8582C14.2933 18.9893 14.2933 17.5804 13.4244 16.7115L12.7173 17.4186ZM7.51969 12.221L8.22679 11.5139C7.35785 10.645 5.94901 10.645 5.08006 11.5139L5.78717 12.221L6.49427 12.9281C6.58217 12.8402 6.72468 12.8402 6.81258 12.9281L7.51969 12.221ZM16.6154 11.7879L15.9083 11.0808C15.342 11.6471 14.4238 11.6471 13.8575 11.0808L13.1504 11.7879L12.4433 12.495C13.7906 13.8424 15.9752 13.8424 17.3225 12.495L16.6154 11.7879ZM13.1504 11.7879L13.8575 11.0808C13.2912 10.5145 13.2912 9.59628 13.8575 9.02996L13.1504 8.32285L12.4433 7.61574C11.0959 8.96311 11.0959 11.1476 12.4433 12.495L13.1504 11.7879ZM13.1504 8.32285L13.8575 9.02996C14.4238 8.46364 15.342 8.46364 15.9083 9.02996L16.6154 8.32285L17.3225 7.61574C15.9752 6.26837 13.7906 6.26837 12.4433 7.61574L13.1504 8.32285ZM16.6154 8.32285L15.9083 9.02996C16.4746 9.59628 16.4746 10.5145 15.9083 11.0808L16.6154 11.7879L17.3225 12.495C18.6699 11.1476 18.6699 8.96311 17.3225 7.61574L16.6154 8.32285Z" fill="#1D1D20" style="fill:#1D1D20;fill:color(display-p3 0.1148 0.1148 0.1252);fill-opacity:1;"/>
</svg>
