<svg width="24" height="24" viewBox="0 0 24 24" fill="none" xmlns="http://www.w3.org/2000/svg">
<path d="M19.5813 12.6977C19.7659 12.1772 19.4937 11.6055 18.9732 11.4208C18.4528 11.2362 17.8811 11.5084 17.6964 12.0289L18.6388 12.3633L19.5813 12.6977ZM16.6054 18.0939L17.5478 18.4283V18.4283L16.6054 18.0939ZM15.2339 19.2813L15.4301 20.2619V20.2619L15.2339 19.2813ZM3.2627 21.6756L2.27857 21.4981C2.21983 21.8239 2.32607 22.1576 2.56233 22.3894C2.79859 22.6212 3.13425 22.7211 3.45881 22.6562L3.2627 21.6756ZM5.44732 9.56085L6.43144 9.73832H6.43145L5.44732 9.56085ZM6.70765 8.13299L7.00593 9.08747H7.00593L6.70765 8.13299ZM12.8733 7.25393C13.4004 7.08919 13.6942 6.52832 13.5295 6.00117C13.3647 5.47403 12.8039 5.18023 12.2767 5.34497L12.575 6.29945L12.8733 7.25393ZM2.77215 20.7519C2.38163 21.1424 2.38163 21.7756 2.77215 22.1661C3.16268 22.5566 3.79584 22.5566 4.18637 22.1661L3.47926 21.459L2.77215 20.7519ZM9.38393 16.9686C9.77446 16.578 9.77446 15.9449 9.38393 15.5543C8.99341 15.1638 8.36024 15.1638 7.96972 15.5543L8.67683 16.2614L9.38393 16.9686ZM22.1039 8.03197L22.811 7.32486V7.32486L22.1039 8.03197ZM22.1039 9.76449L21.3968 9.05738V9.05738L22.1039 9.76449ZM15.1738 2.8344L14.4667 2.1273V2.1273L15.1738 2.8344ZM16.9063 2.8344L16.1992 3.54151V3.54151L16.9063 2.8344ZM13.0081 6.73258L13.7152 6.02547V6.02547L13.0081 6.73258ZM13.0081 5.00006L13.7152 5.70716V5.70716L13.0081 5.00006ZM18.2057 11.9301L17.4986 12.6373V12.6373L18.2057 11.9301ZM19.9382 11.9301L20.6453 12.6373V12.6373L19.9382 11.9301ZM18.6388 12.3633L17.6964 12.0289L15.6629 17.7595L16.6054 18.0939L17.5478 18.4283L19.5813 12.6977L18.6388 12.3633ZM15.2339 19.2813L15.0378 18.3008L3.06658 20.695L3.2627 21.6756L3.45881 22.6562L15.4301 20.2619L15.2339 19.2813ZM3.2627 21.6756L4.24682 21.853L6.43144 9.73832L5.44732 9.56085L4.46319 9.38338L2.27857 21.4981L3.2627 21.6756ZM6.70765 8.13299L7.00593 9.08747L12.8733 7.25393L12.575 6.29945L12.2767 5.34497L6.40938 7.17851L6.70765 8.13299ZM5.44732 9.56085L6.43145 9.73832C6.4868 9.43132 6.70818 9.18052 7.00593 9.08747L6.70765 8.13299L6.40938 7.17851C5.40069 7.49373 4.65073 8.34337 4.46319 9.38338L5.44732 9.56085ZM16.6054 18.0939L15.6629 17.7595C15.5644 18.0374 15.3269 18.2429 15.0378 18.3008L15.2339 19.2813L15.4301 20.2619C16.4095 20.066 17.2138 19.3696 17.5478 18.4283L16.6054 18.0939ZM3.47926 21.459L4.18637 22.1661L9.38393 16.9686L8.67683 16.2614L7.96972 15.5543L2.77215 20.7519L3.47926 21.459ZM18.2057 11.9301L18.9128 11.223L13.7152 6.02547L13.0081 6.73258L12.301 7.43968L17.4986 12.6373L18.2057 11.9301ZM13.0081 5.00006L13.7152 5.70716L15.8809 3.54151L15.1738 2.8344L14.4667 2.1273L12.301 4.29295L13.0081 5.00006ZM16.9063 2.8344L16.1992 3.54151L21.3968 8.73908L22.1039 8.03197L22.811 7.32486L17.6134 2.1273L16.9063 2.8344ZM22.1039 9.76449L21.3968 9.05738L19.2311 11.223L19.9382 11.9301L20.6453 12.6373L22.811 10.4716L22.1039 9.76449ZM22.1039 8.03197L21.3968 8.73908C21.4847 8.82697 21.4847 8.96949 21.3968 9.05738L22.1039 9.76449L22.811 10.4716C23.6799 9.60265 23.6799 8.19381 22.811 7.32486L22.1039 8.03197ZM15.1738 2.8344L15.8809 3.54151C15.9688 3.45361 16.1113 3.45361 16.1992 3.54151L16.9063 2.8344L17.6134 2.1273C16.7445 1.25835 15.3356 1.25835 14.4667 2.1273L15.1738 2.8344ZM13.0081 6.73258L13.7152 6.02547C13.6273 5.93757 13.6273 5.79506 13.7152 5.70716L13.0081 5.00006L12.301 4.29295C11.4321 5.1619 11.4321 6.57074 12.301 7.43968L13.0081 6.73258ZM18.2057 11.9301L17.4986 12.6373C18.3675 13.5062 19.7764 13.5062 20.6453 12.6373L19.9382 11.9301L19.2311 11.223C19.1432 11.3109 19.0007 11.3109 18.9128 11.223L18.2057 11.9301ZM9.10996 12.3633L9.81706 13.0704C10.3834 12.5041 11.3016 12.5041 11.8679 13.0704L12.575 12.3633L13.2821 11.6562C11.9347 10.3088 9.75022 10.3088 8.40285 11.6562L9.10996 12.3633ZM12.575 12.3633L11.8679 13.0704C12.4342 13.6367 12.4342 14.5549 11.8679 15.1212L12.575 15.8283L13.2821 16.5354C14.6295 15.1881 14.6295 13.0035 13.2821 11.6562L12.575 12.3633ZM12.575 15.8283L11.8679 15.1212C11.3016 15.6875 10.3834 15.6875 9.81706 15.1212L9.10996 15.8283L8.40285 16.5354C9.75022 17.8828 11.9347 17.8828 13.2821 16.5354L12.575 15.8283ZM9.10996 15.8283L9.81706 15.1212C9.25074 14.5549 9.25074 13.6367 9.81706 13.0704L9.10996 12.3633L8.40285 11.6562C7.05548 13.0035 7.05548 15.1881 8.40285 16.5354L9.10996 15.8283Z" fill="#1D1D20" style="fill:#1D1D20;fill:color(display-p3 0.1148 0.1148 0.1252);fill-opacity:1;"/>
</svg>
