<svg width="25" height="24" viewBox="0 0 25 24" fill="none" xmlns="http://www.w3.org/2000/svg">
<path d="M8.511 16.3567L12.111 12.7567M12.111 12.7567L15.5518 16.194M12.111 12.7567L12.111 21.5998M1.02554 9.51091C1.02564 8.72804 1.02128 7.80951 1.00153 7.56406C0.978945 6.86855 1.20582 6.30257 1.72551 5.78288C2.77809 4.85664 5.25846 3.81246 5.25846 3.81246C5.25846 3.81246 8.51261 2.39982 11.9547 2.3999C15.3388 2.39998 18.5439 3.47274 20.4034 4.32611C21.541 4.84411 22.2992 5.3758 22.8576 6.03416C23.2133 6.45645 23.3858 6.92883 23.3853 7.48127L23.3658 9.59271C23.3597 10.2583 22.813 10.7917 22.1475 10.7815L19.1364 10.7355C18.4808 10.7255 17.9547 10.1912 17.9547 9.53563V8.3015C17.9547 8.01117 17.7479 7.76311 17.4613 7.71653C16.3914 7.54262 13.805 7.16051 11.9534 7.1999C10.3109 7.23485 8.04433 7.56367 7.05279 7.71919C6.76399 7.76448 6.55469 8.01369 6.55469 8.30602V9.51743C6.55469 10.1802 6.01743 10.7174 5.35468 10.7174L2.22913 10.7174C1.56372 10.7174 1.02545 10.1763 1.02554 9.51091Z" stroke="#1D1D20" style="stroke:#1D1D20;stroke:color(display-p3 0.1148 0.1148 0.1252);stroke-opacity:1;" stroke-width="2" stroke-linecap="round" stroke-linejoin="round"/>
</svg>
