<svg width="24" height="24" viewBox="0 0 24 24" fill="none" xmlns="http://www.w3.org/2000/svg">
<path d="M17.2959 9.89174L13.404 5.99988M13.404 5.99988L16.8413 2.55908M13.404 5.99988L22.2471 5.99988M19.7889 19.1791C19.7889 19.1791 18.597 20.3498 18.3049 20.693C17.8291 21.2008 17.2684 21.4406 16.5335 21.4406C16.4628 21.4406 16.3874 21.4406 16.3168 21.4359C14.9175 21.3465 13.6172 20.8011 12.642 20.3357C9.97545 19.0475 7.63397 17.2185 5.68824 14.9006C4.08171 12.9683 3.00755 11.1817 2.29616 9.26343C1.85801 8.09273 1.69783 7.18062 1.7685 6.32023C1.81561 5.77014 2.02762 5.31409 2.41865 4.92386L4.02518 3.32061C4.25603 3.10434 4.50101 2.9868 4.74128 2.9868C5.03809 2.9868 5.27836 3.16546 5.42912 3.31591C5.43383 3.32061 5.43854 3.32531 5.44325 3.33002C5.73064 3.59801 6.00389 3.8754 6.29127 4.1716C6.43732 4.32205 6.58808 4.4725 6.73884 4.62766L8.025 5.91119C8.52439 6.40956 8.52439 6.87032 8.025 7.36869C7.88838 7.50503 7.75646 7.64138 7.61984 7.77302C7.2241 8.17736 7.53498 7.86712 7.1251 8.23384C7.11568 8.24324 7.10625 8.24794 7.10154 8.25735C6.69638 8.66169 6.77176 9.05662 6.85656 9.32461C6.86127 9.33871 6.86598 9.35282 6.87069 9.36692C7.20519 10.1756 7.67631 10.9373 8.39242 11.8447L8.39713 11.8494C9.69743 13.4479 11.0684 14.6938 12.5807 15.6483C12.7739 15.7705 12.9717 15.8692 13.1602 15.9633C13.3298 16.0479 13.49 16.1278 13.6266 16.2124C13.6454 16.2218 13.6643 16.236 13.6831 16.2454C13.8433 16.3253 13.9941 16.3629 14.1495 16.3629C14.5406 16.3629 14.7855 16.1184 14.8656 16.0385L15.7891 15.1169C15.9493 14.9571 16.2037 14.7643 16.5005 14.7643C16.7926 14.7643 17.0329 14.9477 17.1789 15.1075C17.1836 15.1122 17.1836 15.1122 17.1883 15.1169L19.7842 17.7075C20.2695 18.1871 19.7889 19.1791 19.7889 19.1791Z" stroke="#1D1D20" style="stroke:#1D1D20;stroke:color(display-p3 0.1148 0.1148 0.1252);stroke-opacity:1;" stroke-width="2" stroke-linecap="round" stroke-linejoin="round"/>
</svg>
