<svg width="24" height="24" viewBox="0 0 24 24" fill="none" xmlns="http://www.w3.org/2000/svg">
<path d="M15.5993 12.8093L15.0538 11.9713L15.0398 11.9803L15.0262 11.9899L15.5993 12.8093ZM15.5993 11.4332L15.0064 12.2384L15.051 12.2712L15.099 12.299L15.5993 11.4332ZM10.0839 7.37187L10.6769 6.56662L10.6487 6.54585L10.6191 6.52709L10.0839 7.37187ZM8.92766 7.97847L9.92765 7.97557L9.92763 7.96682L9.92745 7.95807L8.92766 7.97847ZM8.95078 15.9562L7.95079 15.9591L7.95087 15.9874L7.95255 16.0156L8.95078 15.9562ZM10.1494 16.621L10.6337 17.4959L10.6796 17.4705L10.7226 17.4405L10.1494 16.621ZM5.9999 2.3999V3.3999H17.9999V2.3999V1.3999H5.9999V2.3999ZM21.5999 5.9999H20.5999V17.9999H21.5999H22.5999V5.9999H21.5999ZM17.9999 21.5999V20.5999H5.9999V21.5999V22.5999H17.9999V21.5999ZM2.3999 17.9999H3.3999V5.9999H2.3999H1.3999V17.9999H2.3999ZM5.9999 21.5999V20.5999C4.56396 20.5999 3.3999 19.4358 3.3999 17.9999H2.3999H1.3999C1.3999 20.5404 3.45939 22.5999 5.9999 22.5999V21.5999ZM21.5999 17.9999H20.5999C20.5999 19.4358 19.4358 20.5999 17.9999 20.5999V21.5999V22.5999C20.5404 22.5999 22.5999 20.5404 22.5999 17.9999H21.5999ZM17.9999 2.3999V3.3999C19.4358 3.3999 20.5999 4.56396 20.5999 5.9999H21.5999H22.5999C22.5999 3.45939 20.5404 1.3999 17.9999 1.3999V2.3999ZM5.9999 2.3999V1.3999C3.45939 1.3999 1.3999 3.45939 1.3999 5.9999H2.3999H3.3999C3.3999 4.56396 4.56396 3.3999 5.9999 3.3999V2.3999ZM15.5993 12.8093L16.1449 13.6474C16.5793 13.3646 17.1284 12.8602 17.1274 12.1C17.1263 11.3173 16.5491 10.827 16.0997 10.5673L15.5993 11.4332L15.099 12.299C15.2036 12.3595 15.2229 12.3909 15.2083 12.3723C15.1867 12.3448 15.1276 12.2501 15.1274 12.1027C15.1272 11.9591 15.1833 11.8745 15.192 11.8627C15.1963 11.8569 15.1655 11.8985 15.0538 11.9713L15.5993 12.8093ZM15.5993 11.4332L16.1923 10.6279L10.6769 6.56662L10.0839 7.37187L9.49098 8.17711L15.0064 12.2384L15.5993 11.4332ZM10.0839 7.37187L10.6191 6.52709C10.1484 6.22898 9.48756 6.05818 8.86255 6.35001C8.1823 6.66763 7.91466 7.35185 7.92786 7.99888L8.92766 7.97847L9.92745 7.95807C9.92625 7.89951 9.93844 7.91844 9.90768 7.97728C9.87303 8.04359 9.80534 8.11708 9.70869 8.1622C9.52273 8.24903 9.4477 8.1526 9.5488 8.21664L10.0839 7.37187ZM8.92766 7.97847L7.92766 7.98137L7.95079 15.9591L8.95078 15.9562L9.95078 15.9533L9.92765 7.97557L8.92766 7.97847ZM8.95078 15.9562L7.95255 16.0156C7.98436 16.5499 8.17011 17.2622 8.84054 17.6203C9.50063 17.9728 10.1879 17.7426 10.6337 17.4959L10.1494 16.621L9.66523 15.746C9.56611 15.8009 9.52715 15.804 9.5428 15.8018C9.56646 15.7985 9.66412 15.7928 9.78273 15.8561C9.90301 15.9204 9.95507 16.0077 9.96769 16.0346C9.976 16.0523 9.95623 16.018 9.94901 15.8968L8.95078 15.9562ZM10.1494 16.621L10.7226 17.4405L16.1725 13.6288L15.5993 12.8093L15.0262 11.9899L9.57631 15.8015L10.1494 16.621Z" fill="#1D1D20" style="fill:#1D1D20;fill:color(display-p3 0.1148 0.1148 0.1252);fill-opacity:1;"/>
</svg>
