<svg width="24" height="24" viewBox="0 0 24 24" fill="none" xmlns="http://www.w3.org/2000/svg">
<path d="M5.36287 2.3999C3.72647 2.3999 2.3999 3.72646 2.3999 5.36286M14.1332 2.3999H9.86657M21.5999 5.36287C21.5999 3.72647 20.2733 2.3999 18.6369 2.3999M2.3999 9.86657V14.1332M21.5999 14.1332V9.86657M2.3999 18.6369C2.3999 20.2733 3.72647 21.5999 5.36286 21.5999M18.6369 21.5999C20.2733 21.5999 21.5999 20.2733 21.5999 18.6369M9.86657 21.5999H14.1332M2.3999 11.9999H9.86657C11.0448 11.9999 11.9999 12.955 11.9999 14.1332V21.5999H5.5999C3.83259 21.5999 2.3999 20.1672 2.3999 18.3999V11.9999Z" stroke="#1D1D20" style="stroke:#1D1D20;stroke:color(display-p3 0.1148 0.1148 0.1252);stroke-opacity:1;" stroke-width="2" stroke-linecap="round"/>
</svg>
