<svg width="24" height="24" viewBox="0 0 24 24" fill="none" xmlns="http://www.w3.org/2000/svg">
<path d="M8.04385 9.24405L19.9345 18.9429M19.9345 5.79192L8.04385 15.4907M17.1948 12.3679L17.1734 12.3893M21.5999 12.3678L21.5784 12.3893M5.68764 10.1756C3.87187 10.1756 2.3999 8.7036 2.3999 6.88784C2.3999 5.07207 3.87187 3.6001 5.68764 3.6001C7.50341 3.6001 8.97538 5.07207 8.97538 6.88784C8.97538 8.7036 7.50341 10.1756 5.68764 10.1756ZM5.68764 21.1347C3.87187 21.1347 2.3999 19.6627 2.3999 17.847C2.3999 16.0312 3.87187 14.5592 5.68764 14.5592C7.50341 14.5592 8.97538 16.0312 8.97538 17.847C8.97538 19.6627 7.50341 21.1347 5.68764 21.1347Z" stroke="#1D1D20" style="stroke:#1D1D20;stroke:color(display-p3 0.1148 0.1148 0.1252);stroke-opacity:1;" stroke-width="2" stroke-linecap="round" stroke-linejoin="round"/>
</svg>
