<svg width="24" height="24" viewBox="0 0 24 24" fill="none" xmlns="http://www.w3.org/2000/svg">
<g clip-path="url(#clip0_1329_18039)">
<path d="M3.59971 9.39506L20.3997 16.7999M20.3997 7.1999L3.59971 14.6047M17.4001 12.0002L17.3766 12.0237M22.2235 12.0002L22.2 12.0237M4.79971 9.5999C2.81148 9.5999 1.19971 7.98813 1.19971 5.9999C1.19971 4.01168 2.81148 2.3999 4.79971 2.3999C6.78793 2.3999 8.39971 4.01168 8.39971 5.9999C8.39971 7.98813 6.78793 9.5999 4.79971 9.5999ZM4.79971 21.5999C2.81148 21.5999 1.19971 19.9881 1.19971 17.9999C1.19971 16.0117 2.81148 14.3999 4.79971 14.3999C6.78793 14.3999 8.39971 16.0117 8.39971 17.9999C8.39971 19.9881 6.78793 21.5999 4.79971 21.5999Z" stroke="#1D1D20" style="stroke:#1D1D20;stroke:color(display-p3 0.1148 0.1148 0.1252);stroke-opacity:1;" stroke-width="2" stroke-linecap="round" stroke-linejoin="round"/>
</g>
<defs>
<clipPath id="clip0_1329_18039">
<rect width="24" height="24" fill="white" style="fill:white;fill-opacity:1;" transform="translate(24 1.04907e-06) rotate(90)"/>
</clipPath>
</defs>
</svg>
