<svg width="24" height="24" viewBox="0 0 24 24" fill="none" xmlns="http://www.w3.org/2000/svg">
<path d="M2.3999 18.1999C1.84762 18.1999 1.3999 18.6476 1.3999 19.1999C1.3999 19.7522 1.84762 20.1999 2.3999 20.1999V19.1999V18.1999ZM21.5999 20.1999C22.1522 20.1999 22.5999 19.7522 22.5999 19.1999C22.5999 18.6476 22.1522 18.1999 21.5999 18.1999V19.1999V20.1999ZM21.5999 5.9999H20.5999C20.5999 6.10828 20.5449 6.33124 20.1821 6.65292C19.8204 6.97358 19.24 7.30802 18.437 7.60916C16.8383 8.20866 14.5627 8.5999 11.9999 8.5999V9.5999V10.5999C14.739 10.5999 17.2634 10.1853 19.1392 9.48181C20.0735 9.13148 20.899 8.69019 21.5089 8.14944C22.1176 7.60973 22.5999 6.88564 22.5999 5.9999H21.5999ZM11.9999 9.5999V8.5999C9.4371 8.5999 7.16147 8.20866 5.5628 7.60916C4.75978 7.30802 4.17939 6.97358 3.81772 6.65292C3.4549 6.33124 3.3999 6.10828 3.3999 5.9999H2.3999H1.3999C1.3999 6.88564 1.88217 7.60973 2.49091 8.14944C3.10082 8.69019 3.92632 9.13148 4.86055 9.48181C6.7364 10.1853 9.26077 10.5999 11.9999 10.5999V9.5999ZM2.3999 5.9999H3.3999C3.3999 5.89153 3.4549 5.66856 3.81772 5.34688C4.17939 5.02623 4.75978 4.69178 5.5628 4.39065C7.16147 3.79115 9.4371 3.3999 11.9999 3.3999V2.3999V1.3999C9.26077 1.3999 6.7364 1.81455 4.86055 2.51799C3.92632 2.86833 3.10082 3.30962 2.49091 3.85036C1.88217 4.39007 1.3999 5.11417 1.3999 5.9999H2.3999ZM11.9999 2.3999V3.3999C14.5627 3.3999 16.8383 3.79115 18.437 4.39065C19.24 4.69178 19.8204 5.02623 20.1821 5.34688C20.5449 5.66856 20.5999 5.89153 20.5999 5.9999H21.5999H22.5999C22.5999 5.11417 22.1176 4.39007 21.5089 3.85036C20.899 3.30962 20.0735 2.86833 19.1392 2.51799C17.2634 1.81455 14.739 1.3999 11.9999 1.3999V2.3999ZM21.5999 10.7999H20.5999C20.5999 10.9083 20.5449 11.1312 20.1821 11.4529C19.8204 11.7736 19.24 12.108 18.437 12.4092C16.8383 13.0087 14.5627 13.3999 11.9999 13.3999V14.3999V15.3999C14.739 15.3999 17.2634 14.9853 19.1392 14.2818C20.0735 13.9315 20.899 13.4902 21.5089 12.9494C22.1176 12.4097 22.5999 11.6856 22.5999 10.7999H21.5999ZM11.9999 14.3999V13.3999C9.4371 13.3999 7.16147 13.0087 5.5628 12.4092C4.75978 12.108 4.17939 11.7736 3.81772 11.4529C3.4549 11.1312 3.3999 10.9083 3.3999 10.7999H2.3999H1.3999C1.3999 11.6856 1.88217 12.4097 2.49091 12.9494C3.10082 13.4902 3.92632 13.9315 4.86055 14.2818C6.7364 14.9853 9.26077 15.3999 11.9999 15.3999V14.3999ZM2.3999 10.7999H3.3999V5.9999H2.3999H1.3999V10.7999H2.3999ZM21.5999 10.7999H22.5999V5.9999H21.5999H20.5999V10.7999H21.5999ZM14.3999 19.1999H13.3999C13.3999 19.9731 12.7731 20.5999 11.9999 20.5999V21.5999V22.5999C13.8777 22.5999 15.3999 21.0777 15.3999 19.1999H14.3999ZM11.9999 21.5999V20.5999C11.2267 20.5999 10.5999 19.9731 10.5999 19.1999H9.5999H8.5999C8.5999 21.0777 10.1221 22.5999 11.9999 22.5999V21.5999ZM9.5999 19.1999H10.5999C10.5999 18.4267 11.2267 17.7999 11.9999 17.7999V16.7999V15.7999C10.1221 15.7999 8.5999 17.3221 8.5999 19.1999H9.5999ZM11.9999 16.7999V17.7999C12.7731 17.7999 13.3999 18.4267 13.3999 19.1999H14.3999H15.3999C15.3999 17.3221 13.8777 15.7999 11.9999 15.7999V16.7999ZM2.3999 19.1999V20.1999H9.5999V19.1999V18.1999H2.3999V19.1999ZM14.3999 19.1999V20.1999H21.5999V19.1999V18.1999H14.3999V19.1999ZM11.9999 14.3999H10.9999V16.7999H11.9999H12.9999V14.3999H11.9999Z" fill="#1D1D20" style="fill:#1D1D20;fill:color(display-p3 0.1148 0.1148 0.1252);fill-opacity:1;"/>
</svg>
