<svg width="24" height="24" viewBox="0 0 24 24" fill="none" xmlns="http://www.w3.org/2000/svg">
<path d="M4.7998 5.78763L4.35259 4.8932C4.01381 5.06259 3.7998 5.40885 3.7998 5.78763H4.7998ZM11.9998 21.3876L11.4658 22.2331C11.792 22.4391 12.2076 22.4391 12.5338 22.2331L11.9998 21.3876ZM19.1998 5.78763H20.1998C20.1998 5.40885 19.9858 5.06259 19.647 4.8932L19.1998 5.78763ZM10.3898 2.99261L9.94262 2.09818L10.3898 2.99261ZM13.6098 2.99261L14.057 2.09818V2.09818L13.6098 2.99261ZM14.6998 11.8878C15.2521 11.8878 15.6998 11.4401 15.6998 10.8878C15.6998 10.3355 15.2521 9.88777 14.6998 9.88777V10.8878V11.8878ZM9.29981 9.88777C8.74752 9.88777 8.29981 10.3355 8.29981 10.8878C8.29981 11.4401 8.74752 11.8878 9.29981 11.8878V10.8878V9.88777ZM10.9998 13.5876C10.9998 14.1399 11.4475 14.5876 11.9998 14.5876C12.5521 14.5876 12.9998 14.1399 12.9998 13.5876H11.9998H10.9998ZM12.9998 8.18763C12.9998 7.63534 12.5521 7.18763 11.9998 7.18763C11.4475 7.18763 10.9998 7.63534 10.9998 8.18763H11.9998H12.9998ZM10.3898 2.99261L9.94262 2.09818L4.35259 4.8932L4.7998 5.78763L5.24702 6.68205L10.837 3.88704L10.3898 2.99261ZM4.7998 5.78763H3.7998V13.8156H4.7998H5.7998V5.78763H4.7998ZM4.7998 13.8156H3.7998C3.7998 15.2951 4.66287 16.6972 5.94365 18.0148C7.24487 19.3535 9.12171 20.7527 11.4658 22.2331L11.9998 21.3876L12.5338 20.5421C10.2403 19.0937 8.51714 17.793 7.37776 16.6208C6.21794 15.4276 5.7998 14.5082 5.7998 13.8156H4.7998ZM11.9998 21.3876L12.5338 22.2331C14.8387 20.7775 16.7277 19.5253 18.0342 18.2616C19.368 16.9714 20.1998 15.5679 20.1998 13.8156H19.1998H18.1998C18.1998 14.8353 17.7504 15.7535 16.6436 16.8241C15.5095 17.9211 13.7985 19.069 11.4658 20.5421L11.9998 21.3876ZM19.1998 13.8156H20.1998C20.1998 13.8102 20.1998 13.8048 20.1998 13.7994C20.1998 13.7939 20.1998 13.7885 20.1998 13.783C20.1998 13.7776 20.1998 13.7721 20.1998 13.7666C20.1998 13.7612 20.1998 13.7557 20.1998 13.7502C20.1998 13.7447 20.1998 13.7392 20.1998 13.7337C20.1998 13.7282 20.1998 13.7227 20.1998 13.7172C20.1998 13.7116 20.1998 13.7061 20.1998 13.7006C20.1998 13.695 20.1998 13.6895 20.1998 13.6839C20.1998 13.6783 20.1998 13.6728 20.1998 13.6672C20.1998 13.6616 20.1998 13.656 20.1998 13.6504C20.1998 13.6448 20.1998 13.6392 20.1998 13.6336C20.1998 13.628 20.1998 13.6224 20.1998 13.6167C20.1998 13.6111 20.1998 13.6055 20.1998 13.5998C20.1998 13.5942 20.1998 13.5885 20.1998 13.5828C20.1998 13.5772 20.1998 13.5715 20.1998 13.5658C20.1998 13.5601 20.1998 13.5544 20.1998 13.5487C20.1998 13.543 20.1998 13.5373 20.1998 13.5316C20.1998 13.5259 20.1998 13.5201 20.1998 13.5144C20.1998 13.5087 20.1998 13.5029 20.1998 13.4972C20.1998 13.4914 20.1998 13.4856 20.1998 13.4799C20.1998 13.4741 20.1998 13.4683 20.1998 13.4625C20.1998 13.4568 20.1998 13.451 20.1998 13.4452C20.1998 13.4394 20.1998 13.4335 20.1998 13.4277C20.1998 13.4219 20.1998 13.4161 20.1998 13.4102C20.1998 13.4044 20.1998 13.3986 20.1998 13.3927C20.1998 13.3869 20.1998 13.381 20.1998 13.3751C20.1998 13.3693 20.1998 13.3634 20.1998 13.3575C20.1998 13.3516 20.1998 13.3457 20.1998 13.3398C20.1998 13.3339 20.1998 13.328 20.1998 13.3221C20.1998 13.3162 20.1998 13.3103 20.1998 13.3043C20.1998 13.2984 20.1998 13.2925 20.1998 13.2865C20.1998 13.2806 20.1998 13.2746 20.1998 13.2687C20.1998 13.2627 20.1998 13.2567 20.1998 13.2508C20.1998 13.2448 20.1998 13.2388 20.1998 13.2328C20.1998 13.2268 20.1998 13.2208 20.1998 13.2148C20.1998 13.2088 20.1998 13.2028 20.1998 13.1968C20.1998 13.1907 20.1998 13.1847 20.1998 13.1787C20.1998 13.1726 20.1998 13.1666 20.1998 13.1605C20.1998 13.1545 20.1998 13.1484 20.1998 13.1424C20.1998 13.1363 20.1998 13.1302 20.1998 13.1241C20.1998 13.1181 20.1998 13.112 20.1998 13.1059C20.1998 13.0998 20.1998 13.0937 20.1998 13.0876C20.1998 13.0815 20.1998 13.0754 20.1998 13.0692C20.1998 13.0631 20.1998 13.057 20.1998 13.0508C20.1998 13.0447 20.1998 13.0386 20.1998 13.0324C20.1998 13.0263 20.1998 13.0201 20.1998 13.0139C20.1998 13.0078 20.1998 13.0016 20.1998 12.9954C20.1998 12.9893 20.1998 12.9831 20.1998 12.9769C20.1998 12.9707 20.1998 12.9645 20.1998 12.9583C20.1998 12.9521 20.1998 12.9459 20.1998 12.9397C20.1998 12.9334 20.1998 12.9272 20.1998 12.921C20.1998 12.9148 20.1998 12.9085 20.1998 12.9023C20.1998 12.896 20.1998 12.8898 20.1998 12.8835C20.1998 12.8773 20.1998 12.871 20.1998 12.8647C20.1998 12.8585 20.1998 12.8522 20.1998 12.8459C20.1998 12.8396 20.1998 12.8333 20.1998 12.827C20.1998 12.8208 20.1998 12.8144 20.1998 12.8081C20.1998 12.8018 20.1998 12.7955 20.1998 12.7892C20.1998 12.7829 20.1998 12.7766 20.1998 12.7702C20.1998 12.7639 20.1998 12.7576 20.1998 12.7512C20.1998 12.7449 20.1998 12.7385 20.1998 12.7322C20.1998 12.7258 20.1998 12.7194 20.1998 12.7131C20.1998 12.7067 20.1998 12.7003 20.1998 12.694C20.1998 12.6876 20.1998 12.6812 20.1998 12.6748C20.1998 12.6684 20.1998 12.662 20.1998 12.6556C20.1998 12.6492 20.1998 12.6428 20.1998 12.6364C20.1998 12.63 20.1998 12.6236 20.1998 12.6171C20.1998 12.6107 20.1998 12.6043 20.1998 12.5978C20.1998 12.5914 20.1998 12.585 20.1998 12.5785C20.1998 12.5721 20.1998 12.5656 20.1998 12.5592C20.1998 12.5527 20.1998 12.5462 20.1998 12.5398C20.1998 12.5333 20.1998 12.5268 20.1998 12.5203C20.1998 12.5139 20.1998 12.5074 20.1998 12.5009C20.1998 12.4944 20.1998 12.4879 20.1998 12.4814C20.1998 12.4749 20.1998 12.4684 20.1998 12.4619C20.1998 12.4554 20.1998 12.4489 20.1998 12.4423C20.1998 12.4358 20.1998 12.4293 20.1998 12.4228C20.1998 12.4162 20.1998 12.4097 20.1998 12.4032C20.1998 12.3966 20.1998 12.3901 20.1998 12.3835C20.1998 12.377 20.1998 12.3704 20.1998 12.3638C20.1998 12.3573 20.1998 12.3507 20.1998 12.3441C20.1998 12.3376 20.1998 12.331 20.1998 12.3244C20.1998 12.3178 20.1998 12.3113 20.1998 12.3047C20.1998 12.2981 20.1998 12.2915 20.1998 12.2849C20.1998 12.2783 20.1998 12.2717 20.1998 12.2651C20.1998 12.2585 20.1998 12.2518 20.1998 12.2452C20.1998 12.2386 20.1998 12.232 20.1998 12.2254C20.1998 12.2187 20.1998 12.2121 20.1998 12.2055C20.1998 12.1988 20.1998 12.1922 20.1998 12.1856C20.1998 12.1789 20.1998 12.1723 20.1998 12.1656C20.1998 12.159 20.1998 12.1523 20.1998 12.1456C20.1998 12.139 20.1998 12.1323 20.1998 12.1256C20.1998 12.119 20.1998 12.1123 20.1998 12.1056C20.1998 12.0989 20.1998 12.0923 20.1998 12.0856C20.1998 12.0789 20.1998 12.0722 20.1998 12.0655C20.1998 12.0588 20.1998 12.0521 20.1998 12.0454C20.1998 12.0387 20.1998 12.032 20.1998 12.0253C20.1998 12.0186 20.1998 12.0119 20.1998 12.0052C20.1998 11.9984 20.1998 11.9917 20.1998 11.985C20.1998 11.9783 20.1998 11.9715 20.1998 11.9648C20.1998 11.9581 20.1998 11.9513 20.1998 11.9446C20.1998 11.9379 20.1998 11.9311 20.1998 11.9244C20.1998 11.9176 20.1998 11.9109 20.1998 11.9041C20.1998 11.8974 20.1998 11.8906 20.1998 11.8838C20.1998 11.8771 20.1998 11.8703 20.1998 11.8635C20.1998 11.8568 20.1998 11.85 20.1998 11.8432C20.1998 11.8365 20.1998 11.8297 20.1998 11.8229C20.1998 11.8161 20.1998 11.8093 20.1998 11.8025C20.1998 11.7958 20.1998 11.789 20.1998 11.7822C20.1998 11.7754 20.1998 11.7686 20.1998 11.7618C20.1998 11.755 20.1998 11.7482 20.1998 11.7414C20.1998 11.7346 20.1998 11.7277 20.1998 11.7209C20.1998 11.7141 20.1998 11.7073 20.1998 11.7005C20.1998 11.6937 20.1998 11.6868 20.1998 11.68C20.1998 11.6732 20.1998 11.6664 20.1998 11.6595C20.1998 11.6527 20.1998 11.6459 20.1998 11.639C20.1998 11.6322 20.1998 11.6254 20.1998 11.6185C20.1998 11.6117 20.1998 11.6048 20.1998 11.598C20.1998 11.5911 20.1998 11.5843 20.1998 11.5774C20.1998 11.5706 20.1998 11.5637 20.1998 11.5569C20.1998 11.55 20.1998 11.5431 20.1998 11.5363C20.1998 11.5294 20.1998 11.5226 20.1998 11.5157C20.1998 11.5088 20.1998 11.5019 20.1998 11.4951C20.1998 11.4882 20.1998 11.4813 20.1998 11.4745C20.1998 11.4676 20.1998 11.4607 20.1998 11.4538C20.1998 11.4469 20.1998 11.44 20.1998 11.4332C20.1998 11.4263 20.1998 11.4194 20.1998 11.4125C20.1998 11.4056 20.1998 11.3987 20.1998 11.3918C20.1998 11.3849 20.1998 11.378 20.1998 11.3711C20.1998 11.3642 20.1998 11.3573 20.1998 11.3504C20.1998 11.3435 20.1998 11.3366 20.1998 11.3297C20.1998 11.3228 20.1998 11.3159 20.1998 11.309C20.1998 11.3021 20.1998 11.2952 20.1998 11.2882C20.1998 11.2813 20.1998 11.2744 20.1998 11.2675C20.1998 11.2606 20.1998 11.2537 20.1998 11.2467C20.1998 11.2398 20.1998 11.2329 20.1998 11.226C20.1998 11.219 20.1998 11.2121 20.1998 11.2052C20.1998 11.1983 20.1998 11.1913 20.1998 11.1844C20.1998 11.1775 20.1998 11.1705 20.1998 11.1636C20.1998 11.1567 20.1998 11.1497 20.1998 11.1428C20.1998 11.1359 20.1998 11.1289 20.1998 11.122C20.1998 11.115 20.1998 11.1081 20.1998 11.1012C20.1998 11.0942 20.1998 11.0873 20.1998 11.0803C20.1998 11.0734 20.1998 11.0664 20.1998 11.0595C20.1998 11.0525 20.1998 11.0456 20.1998 11.0386C20.1998 11.0317 20.1998 11.0247 20.1998 11.0178C20.1998 11.0108 20.1998 11.0039 20.1998 10.9969C20.1998 10.99 20.1998 10.983 20.1998 10.9761C20.1998 10.9691 20.1998 10.9621 20.1998 10.9552C20.1998 10.9482 20.1998 10.9413 20.1998 10.9343C20.1998 10.9274 20.1998 10.9204 20.1998 10.9134C20.1998 10.9065 20.1998 10.8995 20.1998 10.8926C20.1998 10.8856 20.1998 10.8786 20.1998 10.8717C20.1998 10.8647 20.1998 10.8577 20.1998 10.8508C20.1998 10.8438 20.1998 10.8368 20.1998 10.8299C20.1998 10.8229 20.1998 10.8159 20.1998 10.809C20.1998 10.802 20.1998 10.795 20.1998 10.7881C20.1998 10.7811 20.1998 10.7741 20.1998 10.7672C20.1998 10.7602 20.1998 10.7532 20.1998 10.7463C20.1998 10.7393 20.1998 10.7323 20.1998 10.7253C20.1998 10.7184 20.1998 10.7114 20.1998 10.7044C20.1998 10.6975 20.1998 10.6905 20.1998 10.6835C20.1998 10.6766 20.1998 10.6696 20.1998 10.6626C20.1998 10.6556 20.1998 10.6487 20.1998 10.6417C20.1998 10.6347 20.1998 10.6278 20.1998 10.6208C20.1998 10.6138 20.1998 10.6068 20.1998 10.5999C20.1998 10.5929 20.1998 10.5859 20.1998 10.579C20.1998 10.572 20.1998 10.565 20.1998 10.5581C20.1998 10.5511 20.1998 10.5441 20.1998 10.5371C20.1998 10.5302 20.1998 10.5232 20.1998 10.5162C20.1998 10.5093 20.1998 10.5023 20.1998 10.4953C20.1998 10.4884 20.1998 10.4814 20.1998 10.4744C20.1998 10.4675 20.1998 10.4605 20.1998 10.4535C20.1998 10.4466 20.1998 10.4396 20.1998 10.4326C20.1998 10.4257 20.1998 10.4187 20.1998 10.4117C20.1998 10.4048 20.1998 10.3978 20.1998 10.3908C20.1998 10.3839 20.1998 10.3769 20.1998 10.3699C20.1998 10.363 20.1998 10.356 20.1998 10.3491C20.1998 10.3421 20.1998 10.3351 20.1998 10.3282C20.1998 10.3212 20.1998 10.3143 20.1998 10.3073C20.1998 10.3004 20.1998 10.2934 20.1998 10.2864C20.1998 10.2795 20.1998 10.2725 20.1998 10.2656C20.1998 10.2586 20.1998 10.2517 20.1998 10.2447C20.1998 10.2378 20.1998 10.2308 20.1998 10.2239C20.1998 10.2169 20.1998 10.21 20.1998 10.203C20.1998 10.1961 20.1998 10.1891 20.1998 10.1822C20.1998 10.1753 20.1998 10.1683 20.1998 10.1614C20.1998 10.1544 20.1998 10.1475 20.1998 10.1405C20.1998 10.1336 20.1998 10.1267 20.1998 10.1197C20.1998 10.1128 20.1998 10.1059 20.1998 10.0989C20.1998 10.092 20.1998 10.0851 20.1998 10.0781C20.1998 10.0712 20.1998 10.0643 20.1998 10.0574C20.1998 10.0504 20.1998 10.0435 20.1998 10.0366C20.1998 10.0297 20.1998 10.0227 20.1998 10.0158C20.1998 10.0089 20.1998 10.002 20.1998 9.99506C20.1998 9.98814 20.1998 9.98123 20.1998 9.97431C20.1998 9.9674 20.1998 9.96049 20.1998 9.95358C20.1998 9.94667 20.1998 9.93976 20.1998 9.93286C20.1998 9.92595 20.1998 9.91905 20.1998 9.91214C20.1998 9.90524 20.1998 9.89834 20.1998 9.89144C20.1998 9.88455 20.1998 9.87765 20.1998 9.87076C20.1998 9.86386 20.1998 9.85697 20.1998 9.85008C20.1998 9.84319 20.1998 9.83631 20.1998 9.82942C20.1998 9.82254 20.1998 9.81566 20.1998 9.80878C20.1998 9.8019 20.1998 9.79502 20.1998 9.78814C20.1998 9.78127 20.1998 9.77439 20.1998 9.76752C20.1998 9.76065 20.1998 9.75378 20.1998 9.74692C20.1998 9.74005 20.1998 9.73319 20.1998 9.72633C20.1998 9.71946 20.1998 9.71261 20.1998 9.70575C20.1998 9.69889 20.1998 9.69204 20.1998 9.68519C20.1998 9.67834 20.1998 9.67149 20.1998 9.66465C20.1998 9.6578 20.1998 9.65096 20.1998 9.64412C20.1998 9.63728 20.1998 9.63044 20.1998 9.62361C20.1998 9.61677 20.1998 9.60994 20.1998 9.60311C20.1998 9.59628 20.1998 9.58946 20.1998 9.58263C20.1998 9.57581 20.1998 9.56899 20.1998 9.56217C20.1998 9.55536 20.1998 9.54854 20.1998 9.54173C20.1998 9.53492 20.1998 9.52811 20.1998 9.52131C20.1998 9.5145 20.1998 9.5077 20.1998 9.5009C20.1998 9.4941 20.1998 9.48731 20.1998 9.48052C20.1998 9.47372 20.1998 9.46694 20.1998 9.46015C20.1998 9.45336 20.1998 9.44658 20.1998 9.4398C20.1998 9.43302 20.1998 9.42625 20.1998 9.41947C20.1998 9.4127 20.1998 9.40593 20.1998 9.39917C20.1998 9.3924 20.1998 9.38564 20.1998 9.37888C20.1998 9.37212 20.1998 9.36537 20.1998 9.35862C20.1998 9.35186 20.1998 9.34512 20.1998 9.33837C20.1998 9.33163 20.1998 9.32489 20.1998 9.31815C20.1998 9.31141 20.1998 9.30468 20.1998 9.29795C20.1998 9.29122 20.1998 9.28449 20.1998 9.27777C20.1998 9.27105 20.1998 9.26433 20.1998 9.25761C20.1998 9.2509 20.1998 9.24419 20.1998 9.23748C20.1998 9.23077 20.1998 9.22407 20.1998 9.21737C20.1998 9.21067 20.1998 9.20398 20.1998 9.19729C20.1998 9.1906 20.1998 9.18391 20.1998 9.17723C20.1998 9.17054 20.1998 9.16387 20.1998 9.15719C20.1998 9.15052 20.1998 9.14385 20.1998 9.13718C20.1998 9.13051 20.1998 9.12385 20.1998 9.11719C20.1998 9.11053 20.1998 9.10388 20.1998 9.09723C20.1998 9.09058 20.1998 9.08394 20.1998 9.0773C20.1998 9.07065 20.1998 9.06402 20.1998 9.05739C20.1998 9.05075 20.1998 9.04413 20.1998 9.0375C20.1998 9.03088 20.1998 9.02426 20.1998 9.01765C20.1998 9.01103 20.1998 9.00442 20.1998 8.99782C20.1998 8.99121 20.1998 8.98461 20.1998 8.97802C20.1998 8.97142 20.1998 8.96483 20.1998 8.95825C20.1998 8.95166 20.1998 8.94508 20.1998 8.9385C20.1998 8.93192 20.1998 8.92535 20.1998 8.91878C20.1998 8.91222 20.1998 8.90565 20.1998 8.8991C20.1998 8.89254 20.1998 8.88599 20.1998 8.87944C20.1998 8.87289 20.1998 8.86635 20.1998 8.85981C20.1998 8.85327 20.1998 8.84674 20.1998 8.84021C20.1998 8.83369 20.1998 8.82716 20.1998 8.82065C20.1998 8.81413 20.1998 8.80762 20.1998 8.80111C20.1998 8.7946 20.1998 8.7881 20.1998 8.7816C20.1998 8.7751 20.1998 8.76861 20.1998 8.76213C20.1998 8.75564 20.1998 8.74916 20.1998 8.74268C20.1998 8.73621 20.1998 8.72974 20.1998 8.72327C20.1998 8.71681 20.1998 8.71035 20.1998 8.70389C20.1998 8.69744 20.1998 8.69099 20.1998 8.68455C20.1998 8.67811 20.1998 8.67167 20.1998 8.66524C20.1998 8.6588 20.1998 8.65238 20.1998 8.64596C20.1998 8.63954 20.1998 8.63312 20.1998 8.62671C20.1998 8.6203 20.1998 8.6139 20.1998 8.6075C20.1998 8.6011 20.1998 8.59471 20.1998 8.58832C20.1998 8.58194 20.1998 8.57556 20.1998 8.56918C20.1998 8.56281 20.1998 8.55644 20.1998 8.55007C20.1998 8.54371 20.1998 8.53735 20.1998 8.531C20.1998 8.52465 20.1998 8.51831 20.1998 8.51197C20.1998 8.50563 20.1998 8.4993 20.1998 8.49297C20.1998 8.48664 20.1998 8.48032 20.1998 8.47401C20.1998 8.46769 20.1998 8.46138 20.1998 8.45508C20.1998 8.44878 20.1998 8.44248 20.1998 8.43619C20.1998 8.4299 20.1998 8.42362 20.1998 8.41734C20.1998 8.41106 20.1998 8.40479 20.1998 8.39853C20.1998 8.39226 20.1998 8.38601 20.1998 8.37975C20.1998 8.3735 20.1998 8.36726 20.1998 8.36102C20.1998 8.35478 20.1998 8.34855 20.1998 8.34232C20.1998 8.33609 20.1998 8.32988 20.1998 8.32366C20.1998 8.31745 20.1998 8.31124 20.1998 8.30505C20.1998 8.29885 20.1998 8.29265 20.1998 8.28647C20.1998 8.28028 20.1998 8.2741 20.1998 8.26793C20.1998 8.26176 20.1998 8.25559 20.1998 8.24943C20.1998 8.24327 20.1998 8.23712 20.1998 8.23098C20.1998 8.22483 20.1998 8.21869 20.1998 8.21256C20.1998 8.20643 20.1998 8.20031 20.1998 8.19419C20.1998 8.18807 20.1998 8.18196 20.1998 8.17586C20.1998 8.16976 20.1998 8.16366 20.1998 8.15757C20.1998 8.15148 20.1998 8.1454 20.1998 8.13933C20.1998 8.13325 20.1998 8.12718 20.1998 8.12112C20.1998 8.11506 20.1998 8.10901 20.1998 8.10297C20.1998 8.09692 20.1998 8.09088 20.1998 8.08485C20.1998 8.07882 20.1998 8.0728 20.1998 8.06678C20.1998 8.06076 20.1998 8.05476 20.1998 8.04875C20.1998 8.04275 20.1998 8.03676 20.1998 8.03077C20.1998 8.02479 20.1998 8.01881 20.1998 8.01284C20.1998 8.00687 20.1998 8.0009 20.1998 7.99495C20.1998 7.98899 20.1998 7.98304 20.1998 7.9771C20.1998 7.97116 20.1998 7.96523 20.1998 7.9593C20.1998 7.95338 20.1998 7.94746 20.1998 7.94155C20.1998 7.93564 20.1998 7.92974 20.1998 7.92385C20.1998 7.91795 20.1998 7.91207 20.1998 7.90619C20.1998 7.90031 20.1998 7.89444 20.1998 7.88858C20.1998 7.88272 20.1998 7.87686 20.1998 7.87102C20.1998 7.86517 20.1998 7.85933 20.1998 7.8535C20.1998 7.84768 20.1998 7.84185 20.1998 7.83604C20.1998 7.83023 20.1998 7.82442 20.1998 7.81862C20.1998 7.81283 20.1998 7.80704 20.1998 7.80126C20.1998 7.79548 20.1998 7.78971 20.1998 7.78394C20.1998 7.77818 20.1998 7.77242 20.1998 7.76667C20.1998 7.76093 20.1998 7.75519 20.1998 7.74946C20.1998 7.74373 20.1998 7.73801 20.1998 7.73229C20.1998 7.72658 20.1998 7.72087 20.1998 7.71518C20.1998 7.70948 20.1998 7.70379 20.1998 7.69812C20.1998 7.69244 20.1998 7.68677 20.1998 7.6811C20.1998 7.67544 20.1998 7.66979 20.1998 7.66415C20.1998 7.6585 20.1998 7.65287 20.1998 7.64724C20.1998 7.64161 20.1998 7.63599 20.1998 7.63039C20.1998 7.62478 20.1998 7.61918 20.1998 7.61358C20.1998 7.60799 20.1998 7.60241 20.1998 7.59684C20.1998 7.59126 20.1998 7.5857 20.1998 7.58014C20.1998 7.57459 20.1998 7.56904 20.1998 7.56351C20.1998 7.55797 20.1998 7.55244 20.1998 7.54692C20.1998 7.5414 20.1998 7.53589 20.1998 7.53039C20.1998 7.52489 20.1998 7.5194 20.1998 7.51392C20.1998 7.50844 20.1998 7.50296 20.1998 7.4975C20.1998 7.49204 20.1998 7.48658 20.1998 7.48114C20.1998 7.47569 20.1998 7.47026 20.1998 7.46483C20.1998 7.4594 20.1998 7.45399 20.1998 7.44858C20.1998 7.44317 20.1998 7.43778 20.1998 7.43239C20.1998 7.427 20.1998 7.42162 20.1998 7.41625C20.1998 7.41088 20.1998 7.40552 20.1998 7.40018C20.1998 7.39483 20.1998 7.38949 20.1998 7.38416C20.1998 7.37883 20.1998 7.3735 20.1998 7.36819C20.1998 7.36288 20.1998 7.35758 20.1998 7.35229C20.1998 7.347 20.1998 7.34172 20.1998 7.33645C20.1998 7.33118 20.1998 7.32591 20.1998 7.32066C20.1998 7.31541 20.1998 7.31017 20.1998 7.30494C20.1998 7.29971 20.1998 7.29449 20.1998 7.28927C20.1998 7.28406 20.1998 7.27886 20.1998 7.27367C20.1998 7.26848 20.1998 7.2633 20.1998 7.25813C20.1998 7.25296 20.1998 7.2478 20.1998 7.24265C20.1998 7.2375 20.1998 7.23236 20.1998 7.22723C20.1998 7.2221 20.1998 7.21698 20.1998 7.21187C20.1998 7.20676 20.1998 7.20166 20.1998 7.19657C20.1998 7.19148 20.1998 7.1864 20.1998 7.18134C20.1998 7.17627 20.1998 7.17121 20.1998 7.16616C20.1998 7.16112 20.1998 7.15608 20.1998 7.15106C20.1998 7.14603 20.1998 7.14102 20.1998 7.13601C20.1998 7.13101 20.1998 7.12602 20.1998 7.12103C20.1998 7.11605 20.1998 7.11108 20.1998 7.10612C20.1998 7.10115 20.1998 7.0962 20.1998 7.09126C20.1998 7.08632 20.1998 7.0814 20.1998 7.07648C20.1998 7.07156 20.1998 7.06665 20.1998 7.06176C20.1998 7.05686 20.1998 7.05198 20.1998 7.0471C20.1998 7.04223 20.1998 7.03736 20.1998 7.03251C20.1998 7.02766 20.1998 7.02282 20.1998 7.01799C20.1998 7.01316 20.1998 7.00834 20.1998 7.00353C20.1998 6.99872 20.1998 6.99393 20.1998 6.98914C20.1998 6.98436 20.1998 6.97958 20.1998 6.97482C20.1998 6.97006 20.1998 6.9653 20.1998 6.96056C20.1998 6.95582 20.1998 6.9511 20.1998 6.94638C20.1998 6.94166 20.1998 6.93695 20.1998 6.93226C20.1998 6.92756 20.1998 6.92288 20.1998 6.91821C20.1998 6.91354 20.1998 6.90888 20.1998 6.90423C20.1998 6.89958 20.1998 6.89494 20.1998 6.89032C20.1998 6.88569 20.1998 6.88108 20.1998 6.87648C20.1998 6.87188 20.1998 6.86728 20.1998 6.86271C20.1998 6.85813 20.1998 6.85356 20.1998 6.84901C20.1998 6.84445 20.1998 6.83991 20.1998 6.83538C20.1998 6.83084 20.1998 6.82632 20.1998 6.82182C20.1998 6.81731 20.1998 6.81281 20.1998 6.80833C20.1998 6.80385 20.1998 6.79937 20.1998 6.79491C20.1998 6.79046 20.1998 6.78601 20.1998 6.78157C20.1998 6.77714 20.1998 6.77271 20.1998 6.7683C20.1998 6.76389 20.1998 6.75949 20.1998 6.7551C20.1998 6.75072 20.1998 6.74634 20.1998 6.74198C20.1998 6.73762 20.1998 6.73327 20.1998 6.72893C20.1998 6.72459 20.1998 6.72027 20.1998 6.71595C20.1998 6.71164 20.1998 6.70734 20.1998 6.70305C20.1998 6.69876 20.1998 6.69449 20.1998 6.69022C20.1998 6.68596 20.1998 6.68171 20.1998 6.67747C20.1998 6.67323 20.1998 6.669 20.1998 6.66479C20.1998 6.66058 20.1998 6.65638 20.1998 6.65219C20.1998 6.648 20.1998 6.64383 20.1998 6.63966C20.1998 6.6355 20.1998 6.63135 20.1998 6.62721C20.1998 6.62308 20.1998 6.61895 20.1998 6.61484C20.1998 6.61073 20.1998 6.60663 20.1998 6.60255C20.1998 6.59846 20.1998 6.59439 20.1998 6.59033C20.1998 6.58627 20.1998 6.58222 20.1998 6.57819C20.1998 6.57415 20.1998 6.57013 20.1998 6.56612C20.1998 6.56212 20.1998 6.55812 20.1998 6.55414C20.1998 6.55016 20.1998 6.54619 20.1998 6.54223C20.1998 6.53828 20.1998 6.53434 20.1998 6.53041C20.1998 6.52648 20.1998 6.52256 20.1998 6.51866C20.1998 6.51476 20.1998 6.51087 20.1998 6.50699C20.1998 6.50312 20.1998 6.49926 20.1998 6.49541C20.1998 6.49156 20.1998 6.48772 20.1998 6.4839C20.1998 6.48008 20.1998 6.47627 20.1998 6.47248C20.1998 6.46868 20.1998 6.4649 20.1998 6.46113C20.1998 6.45736 20.1998 6.45361 20.1998 6.44987C20.1998 6.44613 20.1998 6.4424 20.1998 6.43869C20.1998 6.43497 20.1998 6.43128 20.1998 6.42759C20.1998 6.4239 20.1998 6.42023 20.1998 6.41657C20.1998 6.41292 20.1998 6.40927 20.1998 6.40564C20.1998 6.40201 20.1998 6.39839 20.1998 6.39479C20.1998 6.39119 20.1998 6.3876 20.1998 6.38402C20.1998 6.38045 20.1998 6.37689 20.1998 6.37334C20.1998 6.3698 20.1998 6.36626 20.1998 6.36274C20.1998 6.35923 20.1998 6.35572 20.1998 6.35223C20.1998 6.34874 20.1998 6.34527 20.1998 6.3418C20.1998 6.33834 20.1998 6.33489 20.1998 6.33146C20.1998 6.32803 20.1998 6.32461 20.1998 6.3212C20.1998 6.3178 20.1998 6.31441 20.1998 6.31103C20.1998 6.30766 20.1998 6.3043 20.1998 6.30095C20.1998 6.2976 20.1998 6.29427 20.1998 6.29095C20.1998 6.28763 20.1998 6.28433 20.1998 6.28104C20.1998 6.27775 20.1998 6.27448 20.1998 6.27122C20.1998 6.26796 20.1998 6.26471 20.1998 6.26148C20.1998 6.25825 20.1998 6.25503 20.1998 6.25183C20.1998 6.24863 20.1998 6.24545 20.1998 6.24227C20.1998 6.2391 20.1998 6.23595 20.1998 6.2328C20.1998 6.22966 20.1998 6.22653 20.1998 6.22342C20.1998 6.22031 20.1998 6.21721 20.1998 6.21413C20.1998 6.21105 20.1998 6.20798 20.1998 6.20493C20.1998 6.20188 20.1998 6.19884 20.1998 6.19582C20.1998 6.1928 20.1998 6.18979 20.1998 6.1868C20.1998 6.1838 20.1998 6.18083 20.1998 6.17787C20.1998 6.1749 20.1998 6.17196 20.1998 6.16903C20.1998 6.1661 20.1998 6.16318 20.1998 6.16028C20.1998 6.15738 20.1998 6.15449 20.1998 6.15162C20.1998 6.14876 20.1998 6.1459 20.1998 6.14306C20.1998 6.14022 20.1998 6.1374 20.1998 6.13459C20.1998 6.13178 20.1998 6.12899 20.1998 6.12621C20.1998 6.12344 20.1998 6.12068 20.1998 6.11793C20.1998 6.11518 20.1998 6.11245 20.1998 6.10974C20.1998 6.10702 20.1998 6.10433 20.1998 6.10164C20.1998 6.09896 20.1998 6.09629 20.1998 6.09364C20.1998 6.09099 20.1998 6.08835 20.1998 6.08573C20.1998 6.08311 20.1998 6.08051 20.1998 6.07792C20.1998 6.07533 20.1998 6.07276 20.1998 6.0702C20.1998 6.06765 20.1998 6.06511 20.1998 6.06258C20.1998 6.06006 20.1998 6.05755 20.1998 6.05506C20.1998 6.05256 20.1998 6.05009 20.1998 6.04763C20.1998 6.04517 20.1998 6.04272 20.1998 6.0403C20.1998 6.03787 20.1998 6.03546 20.1998 6.03306C20.1998 6.03067 20.1998 6.02829 20.1998 6.02592C20.1998 6.02356 20.1998 6.02121 20.1998 6.01888C20.1998 6.01655 20.1998 6.01424 20.1998 6.01194C20.1998 6.00965 20.1998 6.00736 20.1998 6.0051C20.1998 6.00284 20.1998 6.00059 20.1998 5.99836C20.1998 5.99612 20.1998 5.99391 20.1998 5.99171C20.1998 5.98951 20.1998 5.98733 20.1998 5.98517C20.1998 5.983 20.1998 5.98085 20.1998 5.97872C20.1998 5.97659 20.1998 5.97447 20.1998 5.97237C20.1998 5.97028 20.1998 5.96819 20.1998 5.96613C20.1998 5.96407 20.1998 5.96202 20.1998 5.95999C20.1998 5.95796 20.1998 5.95594 20.1998 5.95394C20.1998 5.95195 20.1998 5.94997 20.1998 5.948C20.1998 5.94604 20.1998 5.94409 20.1998 5.94216C20.1998 5.94023 20.1998 5.93832 20.1998 5.93643C20.1998 5.93453 20.1998 5.93265 20.1998 5.93079C20.1998 5.92893 20.1998 5.92709 20.1998 5.92526C20.1998 5.92344 20.1998 5.92163 20.1998 5.91984C20.1998 5.91804 20.1998 5.91627 20.1998 5.91451C20.1998 5.91275 20.1998 5.91101 20.1998 5.90929C20.1998 5.90757 20.1998 5.90586 20.1998 5.90418C20.1998 5.90249 20.1998 5.90082 20.1998 5.89917C20.1998 5.89751 20.1998 5.89588 20.1998 5.89426C20.1998 5.89264 20.1998 5.89104 20.1998 5.88946C20.1998 5.88788 20.1998 5.88631 20.1998 5.88476C20.1998 5.88322 20.1998 5.88169 20.1998 5.88018C20.1998 5.87866 20.1998 5.87717 20.1998 5.87569C20.1998 5.87422 20.1998 5.87276 20.1998 5.87132C20.1998 5.86988 20.1998 5.86846 20.1998 5.86705C20.1998 5.86565 20.1998 5.86426 20.1998 5.86289C20.1998 5.86152 20.1998 5.86017 20.1998 5.85884C20.1998 5.85751 20.1998 5.85619 20.1998 5.85489C20.1998 5.8536 20.1998 5.85232 20.1998 5.85106C20.1998 5.8498 20.1998 5.84855 20.1998 5.84733C20.1998 5.84611 20.1998 5.8449 20.1998 5.84371C20.1998 5.84253 20.1998 5.84136 20.1998 5.8402C20.1998 5.83905 20.1998 5.83792 20.1998 5.83681C20.1998 5.83569 20.1998 5.8346 20.1998 5.83352C20.1998 5.83244 20.1998 5.83138 20.1998 5.83034C20.1998 5.8293 20.1998 5.82828 20.1998 5.82727C20.1998 5.82627 20.1998 5.82529 20.1998 5.82432C20.1998 5.82335 20.1998 5.82241 20.1998 5.82148C20.1998 5.82055 20.1998 5.81964 20.1998 5.81874C20.1998 5.81785 20.1998 5.81698 20.1998 5.81613C20.1998 5.81527 20.1998 5.81444 20.1998 5.81362C20.1998 5.8128 20.1998 5.812 20.1998 5.81123C20.1998 5.81045 20.1998 5.80969 20.1998 5.80895C20.1998 5.8082 20.1998 5.80748 20.1998 5.80678C20.1998 5.80608 20.1998 5.80539 20.1998 5.80473C20.1998 5.80406 20.1998 5.80342 20.1998 5.80279C20.1998 5.80216 20.1998 5.80155 20.1998 5.80097C20.1998 5.80038 20.1998 5.79981 20.1998 5.79926C20.1998 5.79871 20.1998 5.79818 20.1998 5.79767C20.1998 5.79715 20.1998 5.79666 20.1998 5.79619C20.1998 5.79572 20.1998 5.79526 20.1998 5.79483C20.1998 5.79439 20.1998 5.79398 20.1998 5.79358C20.1998 5.79319 20.1998 5.79281 20.1998 5.79246C20.1998 5.7921 20.1998 5.79176 20.1998 5.79145C20.1998 5.79113 20.1998 5.79083 20.1998 5.79055C20.1998 5.79028 20.1998 5.79002 20.1998 5.78978C20.1998 5.78954 20.1998 5.78932 20.1998 5.78912C20.1998 5.78892 20.1998 5.78874 20.1998 5.78859C20.1998 5.78843 20.1998 5.78829 20.1998 5.78817C20.1998 5.78805 20.1998 5.78795 20.1998 5.78787C20.1998 5.78779 20.1998 5.78773 20.1998 5.78769C20.1998 5.78765 20.1998 5.78763 19.1998 5.78763C18.1998 5.78763 18.1998 5.78765 18.1998 5.78769C18.1998 5.78773 18.1998 5.78779 18.1998 5.78787C18.1998 5.78795 18.1998 5.78805 18.1998 5.78817C18.1998 5.78829 18.1998 5.78843 18.1998 5.78859C18.1998 5.78874 18.1998 5.78892 18.1998 5.78912C18.1998 5.78932 18.1998 5.78954 18.1998 5.78978C18.1998 5.79002 18.1998 5.79028 18.1998 5.79055C18.1998 5.79083 18.1998 5.79113 18.1998 5.79145C18.1998 5.79176 18.1998 5.7921 18.1998 5.79246C18.1998 5.79281 18.1998 5.79319 18.1998 5.79358C18.1998 5.79398 18.1998 5.79439 18.1998 5.79483C18.1998 5.79526 18.1998 5.79572 18.1998 5.79619C18.1998 5.79666 18.1998 5.79715 18.1998 5.79767C18.1998 5.79818 18.1998 5.79871 18.1998 5.79926C18.1998 5.79981 18.1998 5.80038 18.1998 5.80097C18.1998 5.80155 18.1998 5.80216 18.1998 5.80279C18.1998 5.80342 18.1998 5.80406 18.1998 5.80473C18.1998 5.80539 18.1998 5.80608 18.1998 5.80678C18.1998 5.80748 18.1998 5.8082 18.1998 5.80895C18.1998 5.80969 18.1998 5.81045 18.1998 5.81123C18.1998 5.812 18.1998 5.8128 18.1998 5.81362C18.1998 5.81444 18.1998 5.81527 18.1998 5.81613C18.1998 5.81698 18.1998 5.81785 18.1998 5.81874C18.1998 5.81964 18.1998 5.82055 18.1998 5.82148C18.1998 5.82241 18.1998 5.82335 18.1998 5.82432C18.1998 5.82529 18.1998 5.82627 18.1998 5.82727C18.1998 5.82828 18.1998 5.8293 18.1998 5.83034C18.1998 5.83138 18.1998 5.83244 18.1998 5.83352C18.1998 5.8346 18.1998 5.83569 18.1998 5.83681C18.1998 5.83792 18.1998 5.83905 18.1998 5.8402C18.1998 5.84136 18.1998 5.84253 18.1998 5.84371C18.1998 5.8449 18.1998 5.84611 18.1998 5.84733C18.1998 5.84855 18.1998 5.8498 18.1998 5.85106C18.1998 5.85232 18.1998 5.8536 18.1998 5.85489C18.1998 5.85619 18.1998 5.85751 18.1998 5.85884C18.1998 5.86017 18.1998 5.86152 18.1998 5.86289C18.1998 5.86426 18.1998 5.86565 18.1998 5.86705C18.1998 5.86846 18.1998 5.86988 18.1998 5.87132C18.1998 5.87276 18.1998 5.87422 18.1998 5.87569C18.1998 5.87717 18.1998 5.87866 18.1998 5.88018C18.1998 5.88169 18.1998 5.88322 18.1998 5.88476C18.1998 5.88631 18.1998 5.88788 18.1998 5.88946C18.1998 5.89104 18.1998 5.89264 18.1998 5.89426C18.1998 5.89588 18.1998 5.89751 18.1998 5.89917C18.1998 5.90082 18.1998 5.90249 18.1998 5.90418C18.1998 5.90586 18.1998 5.90757 18.1998 5.90929C18.1998 5.91101 18.1998 5.91275 18.1998 5.91451C18.1998 5.91627 18.1998 5.91804 18.1998 5.91984C18.1998 5.92163 18.1998 5.92344 18.1998 5.92526C18.1998 5.92709 18.1998 5.92893 18.1998 5.93079C18.1998 5.93265 18.1998 5.93453 18.1998 5.93643C18.1998 5.93832 18.1998 5.94023 18.1998 5.94216C18.1998 5.94409 18.1998 5.94604 18.1998 5.948C18.1998 5.94997 18.1998 5.95195 18.1998 5.95394C18.1998 5.95594 18.1998 5.95796 18.1998 5.95999C18.1998 5.96202 18.1998 5.96407 18.1998 5.96613C18.1998 5.96819 18.1998 5.97028 18.1998 5.97237C18.1998 5.97447 18.1998 5.97659 18.1998 5.97872C18.1998 5.98085 18.1998 5.983 18.1998 5.98517C18.1998 5.98733 18.1998 5.98951 18.1998 5.99171C18.1998 5.99391 18.1998 5.99612 18.1998 5.99836C18.1998 6.00059 18.1998 6.00284 18.1998 6.0051C18.1998 6.00736 18.1998 6.00965 18.1998 6.01194C18.1998 6.01424 18.1998 6.01655 18.1998 6.01888C18.1998 6.02121 18.1998 6.02356 18.1998 6.02592C18.1998 6.02829 18.1998 6.03067 18.1998 6.03306C18.1998 6.03546 18.1998 6.03787 18.1998 6.0403C18.1998 6.04272 18.1998 6.04517 18.1998 6.04763C18.1998 6.05009 18.1998 6.05256 18.1998 6.05506C18.1998 6.05755 18.1998 6.06006 18.1998 6.06258C18.1998 6.06511 18.1998 6.06765 18.1998 6.0702C18.1998 6.07276 18.1998 6.07533 18.1998 6.07792C18.1998 6.08051 18.1998 6.08311 18.1998 6.08573C18.1998 6.08835 18.1998 6.09099 18.1998 6.09364C18.1998 6.09629 18.1998 6.09896 18.1998 6.10164C18.1998 6.10433 18.1998 6.10702 18.1998 6.10974C18.1998 6.11245 18.1998 6.11518 18.1998 6.11793C18.1998 6.12068 18.1998 6.12344 18.1998 6.12621C18.1998 6.12899 18.1998 6.13178 18.1998 6.13459C18.1998 6.1374 18.1998 6.14022 18.1998 6.14306C18.1998 6.1459 18.1998 6.14876 18.1998 6.15162C18.1998 6.15449 18.1998 6.15738 18.1998 6.16028C18.1998 6.16318 18.1998 6.1661 18.1998 6.16903C18.1998 6.17196 18.1998 6.1749 18.1998 6.17787C18.1998 6.18083 18.1998 6.1838 18.1998 6.1868C18.1998 6.18979 18.1998 6.1928 18.1998 6.19582C18.1998 6.19884 18.1998 6.20188 18.1998 6.20493C18.1998 6.20798 18.1998 6.21105 18.1998 6.21413C18.1998 6.21721 18.1998 6.22031 18.1998 6.22342C18.1998 6.22653 18.1998 6.22966 18.1998 6.2328C18.1998 6.23595 18.1998 6.2391 18.1998 6.24227C18.1998 6.24545 18.1998 6.24863 18.1998 6.25183C18.1998 6.25503 18.1998 6.25825 18.1998 6.26148C18.1998 6.26471 18.1998 6.26796 18.1998 6.27122C18.1998 6.27448 18.1998 6.27775 18.1998 6.28104C18.1998 6.28433 18.1998 6.28763 18.1998 6.29095C18.1998 6.29427 18.1998 6.2976 18.1998 6.30095C18.1998 6.3043 18.1998 6.30766 18.1998 6.31103C18.1998 6.31441 18.1998 6.3178 18.1998 6.3212C18.1998 6.32461 18.1998 6.32803 18.1998 6.33146C18.1998 6.33489 18.1998 6.33834 18.1998 6.3418C18.1998 6.34527 18.1998 6.34874 18.1998 6.35223C18.1998 6.35572 18.1998 6.35923 18.1998 6.36274C18.1998 6.36626 18.1998 6.3698 18.1998 6.37334C18.1998 6.37689 18.1998 6.38045 18.1998 6.38402C18.1998 6.3876 18.1998 6.39119 18.1998 6.39479C18.1998 6.39839 18.1998 6.40201 18.1998 6.40564C18.1998 6.40927 18.1998 6.41292 18.1998 6.41657C18.1998 6.42023 18.1998 6.4239 18.1998 6.42759C18.1998 6.43128 18.1998 6.43497 18.1998 6.43869C18.1998 6.4424 18.1998 6.44613 18.1998 6.44987C18.1998 6.45361 18.1998 6.45736 18.1998 6.46113C18.1998 6.4649 18.1998 6.46868 18.1998 6.47248C18.1998 6.47627 18.1998 6.48008 18.1998 6.4839C18.1998 6.48772 18.1998 6.49156 18.1998 6.49541C18.1998 6.49926 18.1998 6.50312 18.1998 6.50699C18.1998 6.51087 18.1998 6.51476 18.1998 6.51866C18.1998 6.52256 18.1998 6.52648 18.1998 6.53041C18.1998 6.53434 18.1998 6.53828 18.1998 6.54223C18.1998 6.54619 18.1998 6.55016 18.1998 6.55414C18.1998 6.55812 18.1998 6.56212 18.1998 6.56612C18.1998 6.57013 18.1998 6.57415 18.1998 6.57819C18.1998 6.58222 18.1998 6.58627 18.1998 6.59033C18.1998 6.59439 18.1998 6.59846 18.1998 6.60255C18.1998 6.60663 18.1998 6.61073 18.1998 6.61484C18.1998 6.61895 18.1998 6.62308 18.1998 6.62721C18.1998 6.63135 18.1998 6.6355 18.1998 6.63966C18.1998 6.64383 18.1998 6.648 18.1998 6.65219C18.1998 6.65638 18.1998 6.66058 18.1998 6.66479C18.1998 6.669 18.1998 6.67323 18.1998 6.67747C18.1998 6.68171 18.1998 6.68596 18.1998 6.69022C18.1998 6.69449 18.1998 6.69876 18.1998 6.70305C18.1998 6.70734 18.1998 6.71164 18.1998 6.71595C18.1998 6.72027 18.1998 6.72459 18.1998 6.72893C18.1998 6.73327 18.1998 6.73762 18.1998 6.74198C18.1998 6.74634 18.1998 6.75072 18.1998 6.7551C18.1998 6.75949 18.1998 6.76389 18.1998 6.7683C18.1998 6.77271 18.1998 6.77714 18.1998 6.78157C18.1998 6.78601 18.1998 6.79046 18.1998 6.79491C18.1998 6.79937 18.1998 6.80385 18.1998 6.80833C18.1998 6.81281 18.1998 6.81731 18.1998 6.82182C18.1998 6.82632 18.1998 6.83084 18.1998 6.83538C18.1998 6.83991 18.1998 6.84445 18.1998 6.84901C18.1998 6.85356 18.1998 6.85813 18.1998 6.86271C18.1998 6.86728 18.1998 6.87188 18.1998 6.87648C18.1998 6.88108 18.1998 6.88569 18.1998 6.89032C18.1998 6.89494 18.1998 6.89958 18.1998 6.90423C18.1998 6.90888 18.1998 6.91354 18.1998 6.91821C18.1998 6.92288 18.1998 6.92756 18.1998 6.93226C18.1998 6.93695 18.1998 6.94166 18.1998 6.94638C18.1998 6.9511 18.1998 6.95582 18.1998 6.96056C18.1998 6.9653 18.1998 6.97006 18.1998 6.97482C18.1998 6.97958 18.1998 6.98436 18.1998 6.98914C18.1998 6.99393 18.1998 6.99872 18.1998 7.00353C18.1998 7.00834 18.1998 7.01316 18.1998 7.01799C18.1998 7.02282 18.1998 7.02766 18.1998 7.03251C18.1998 7.03736 18.1998 7.04223 18.1998 7.0471C18.1998 7.05198 18.1998 7.05686 18.1998 7.06176C18.1998 7.06665 18.1998 7.07156 18.1998 7.07648C18.1998 7.0814 18.1998 7.08632 18.1998 7.09126C18.1998 7.0962 18.1998 7.10115 18.1998 7.10612C18.1998 7.11108 18.1998 7.11605 18.1998 7.12103C18.1998 7.12602 18.1998 7.13101 18.1998 7.13601C18.1998 7.14102 18.1998 7.14603 18.1998 7.15106C18.1998 7.15608 18.1998 7.16112 18.1998 7.16616C18.1998 7.17121 18.1998 7.17627 18.1998 7.18134C18.1998 7.1864 18.1998 7.19148 18.1998 7.19657C18.1998 7.20166 18.1998 7.20676 18.1998 7.21187C18.1998 7.21698 18.1998 7.2221 18.1998 7.22723C18.1998 7.23236 18.1998 7.2375 18.1998 7.24265C18.1998 7.2478 18.1998 7.25296 18.1998 7.25813C18.1998 7.2633 18.1998 7.26848 18.1998 7.27367C18.1998 7.27886 18.1998 7.28406 18.1998 7.28927C18.1998 7.29449 18.1998 7.29971 18.1998 7.30494C18.1998 7.31017 18.1998 7.31541 18.1998 7.32066C18.1998 7.32591 18.1998 7.33118 18.1998 7.33645C18.1998 7.34172 18.1998 7.347 18.1998 7.35229C18.1998 7.35758 18.1998 7.36288 18.1998 7.36819C18.1998 7.3735 18.1998 7.37883 18.1998 7.38416C18.1998 7.38949 18.1998 7.39483 18.1998 7.40018C18.1998 7.40552 18.1998 7.41088 18.1998 7.41625C18.1998 7.42162 18.1998 7.427 18.1998 7.43239C18.1998 7.43778 18.1998 7.44317 18.1998 7.44858C18.1998 7.45399 18.1998 7.4594 18.1998 7.46483C18.1998 7.47026 18.1998 7.47569 18.1998 7.48114C18.1998 7.48658 18.1998 7.49204 18.1998 7.4975C18.1998 7.50296 18.1998 7.50844 18.1998 7.51392C18.1998 7.5194 18.1998 7.52489 18.1998 7.53039C18.1998 7.53589 18.1998 7.5414 18.1998 7.54692C18.1998 7.55244 18.1998 7.55797 18.1998 7.56351C18.1998 7.56904 18.1998 7.57459 18.1998 7.58014C18.1998 7.5857 18.1998 7.59126 18.1998 7.59684C18.1998 7.60241 18.1998 7.60799 18.1998 7.61358C18.1998 7.61918 18.1998 7.62478 18.1998 7.63039C18.1998 7.63599 18.1998 7.64161 18.1998 7.64724C18.1998 7.65287 18.1998 7.6585 18.1998 7.66415C18.1998 7.66979 18.1998 7.67544 18.1998 7.6811C18.1998 7.68677 18.1998 7.69244 18.1998 7.69812C18.1998 7.70379 18.1998 7.70948 18.1998 7.71518C18.1998 7.72087 18.1998 7.72658 18.1998 7.73229C18.1998 7.73801 18.1998 7.74373 18.1998 7.74946C18.1998 7.75519 18.1998 7.76093 18.1998 7.76667C18.1998 7.77242 18.1998 7.77818 18.1998 7.78394C18.1998 7.78971 18.1998 7.79548 18.1998 7.80126C18.1998 7.80704 18.1998 7.81283 18.1998 7.81862C18.1998 7.82442 18.1998 7.83023 18.1998 7.83604C18.1998 7.84185 18.1998 7.84768 18.1998 7.8535C18.1998 7.85933 18.1998 7.86517 18.1998 7.87102C18.1998 7.87686 18.1998 7.88272 18.1998 7.88858C18.1998 7.89444 18.1998 7.90031 18.1998 7.90619C18.1998 7.91207 18.1998 7.91795 18.1998 7.92385C18.1998 7.92974 18.1998 7.93564 18.1998 7.94155C18.1998 7.94746 18.1998 7.95338 18.1998 7.9593C18.1998 7.96523 18.1998 7.97116 18.1998 7.9771C18.1998 7.98304 18.1998 7.98899 18.1998 7.99495C18.1998 8.0009 18.1998 8.00687 18.1998 8.01284C18.1998 8.01881 18.1998 8.02479 18.1998 8.03077C18.1998 8.03676 18.1998 8.04275 18.1998 8.04875C18.1998 8.05476 18.1998 8.06076 18.1998 8.06678C18.1998 8.0728 18.1998 8.07882 18.1998 8.08485C18.1998 8.09088 18.1998 8.09692 18.1998 8.10297C18.1998 8.10901 18.1998 8.11506 18.1998 8.12112C18.1998 8.12718 18.1998 8.13325 18.1998 8.13933C18.1998 8.1454 18.1998 8.15148 18.1998 8.15757C18.1998 8.16366 18.1998 8.16976 18.1998 8.17586C18.1998 8.18196 18.1998 8.18807 18.1998 8.19419C18.1998 8.20031 18.1998 8.20643 18.1998 8.21256C18.1998 8.21869 18.1998 8.22483 18.1998 8.23098C18.1998 8.23712 18.1998 8.24327 18.1998 8.24943C18.1998 8.25559 18.1998 8.26176 18.1998 8.26793C18.1998 8.2741 18.1998 8.28028 18.1998 8.28647C18.1998 8.29265 18.1998 8.29885 18.1998 8.30505C18.1998 8.31124 18.1998 8.31745 18.1998 8.32366C18.1998 8.32988 18.1998 8.33609 18.1998 8.34232C18.1998 8.34855 18.1998 8.35478 18.1998 8.36102C18.1998 8.36726 18.1998 8.3735 18.1998 8.37975C18.1998 8.38601 18.1998 8.39226 18.1998 8.39853C18.1998 8.40479 18.1998 8.41106 18.1998 8.41734C18.1998 8.42362 18.1998 8.4299 18.1998 8.43619C18.1998 8.44248 18.1998 8.44878 18.1998 8.45508C18.1998 8.46138 18.1998 8.46769 18.1998 8.47401C18.1998 8.48032 18.1998 8.48664 18.1998 8.49297C18.1998 8.4993 18.1998 8.50563 18.1998 8.51197C18.1998 8.51831 18.1998 8.52465 18.1998 8.531C18.1998 8.53735 18.1998 8.54371 18.1998 8.55007C18.1998 8.55644 18.1998 8.56281 18.1998 8.56918C18.1998 8.57556 18.1998 8.58194 18.1998 8.58832C18.1998 8.59471 18.1998 8.6011 18.1998 8.6075C18.1998 8.6139 18.1998 8.6203 18.1998 8.62671C18.1998 8.63312 18.1998 8.63954 18.1998 8.64596C18.1998 8.65238 18.1998 8.6588 18.1998 8.66524C18.1998 8.67167 18.1998 8.67811 18.1998 8.68455C18.1998 8.69099 18.1998 8.69744 18.1998 8.70389C18.1998 8.71035 18.1998 8.71681 18.1998 8.72327C18.1998 8.72974 18.1998 8.73621 18.1998 8.74268C18.1998 8.74916 18.1998 8.75564 18.1998 8.76213C18.1998 8.76861 18.1998 8.7751 18.1998 8.7816C18.1998 8.7881 18.1998 8.7946 18.1998 8.80111C18.1998 8.80762 18.1998 8.81413 18.1998 8.82065C18.1998 8.82716 18.1998 8.83369 18.1998 8.84021C18.1998 8.84674 18.1998 8.85327 18.1998 8.85981C18.1998 8.86635 18.1998 8.87289 18.1998 8.87944C18.1998 8.88599 18.1998 8.89254 18.1998 8.8991C18.1998 8.90565 18.1998 8.91222 18.1998 8.91878C18.1998 8.92535 18.1998 8.93192 18.1998 8.9385C18.1998 8.94508 18.1998 8.95166 18.1998 8.95825C18.1998 8.96483 18.1998 8.97142 18.1998 8.97802C18.1998 8.98461 18.1998 8.99121 18.1998 8.99782C18.1998 9.00442 18.1998 9.01103 18.1998 9.01765C18.1998 9.02426 18.1998 9.03088 18.1998 9.0375C18.1998 9.04413 18.1998 9.05075 18.1998 9.05739C18.1998 9.06402 18.1998 9.07065 18.1998 9.0773C18.1998 9.08394 18.1998 9.09058 18.1998 9.09723C18.1998 9.10388 18.1998 9.11053 18.1998 9.11719C18.1998 9.12385 18.1998 9.13051 18.1998 9.13718C18.1998 9.14385 18.1998 9.15052 18.1998 9.15719C18.1998 9.16387 18.1998 9.17054 18.1998 9.17723C18.1998 9.18391 18.1998 9.1906 18.1998 9.19729C18.1998 9.20398 18.1998 9.21067 18.1998 9.21737C18.1998 9.22407 18.1998 9.23077 18.1998 9.23748C18.1998 9.24419 18.1998 9.2509 18.1998 9.25761C18.1998 9.26433 18.1998 9.27105 18.1998 9.27777C18.1998 9.28449 18.1998 9.29122 18.1998 9.29795C18.1998 9.30468 18.1998 9.31141 18.1998 9.31815C18.1998 9.32489 18.1998 9.33163 18.1998 9.33837C18.1998 9.34512 18.1998 9.35186 18.1998 9.35862C18.1998 9.36537 18.1998 9.37212 18.1998 9.37888C18.1998 9.38564 18.1998 9.3924 18.1998 9.39917C18.1998 9.40593 18.1998 9.4127 18.1998 9.41947C18.1998 9.42625 18.1998 9.43302 18.1998 9.4398C18.1998 9.44658 18.1998 9.45336 18.1998 9.46015C18.1998 9.46694 18.1998 9.47372 18.1998 9.48052C18.1998 9.48731 18.1998 9.4941 18.1998 9.5009C18.1998 9.5077 18.1998 9.5145 18.1998 9.52131C18.1998 9.52811 18.1998 9.53492 18.1998 9.54173C18.1998 9.54854 18.1998 9.55536 18.1998 9.56217C18.1998 9.56899 18.1998 9.57581 18.1998 9.58263C18.1998 9.58946 18.1998 9.59628 18.1998 9.60311C18.1998 9.60994 18.1998 9.61677 18.1998 9.62361C18.1998 9.63044 18.1998 9.63728 18.1998 9.64412C18.1998 9.65096 18.1998 9.6578 18.1998 9.66465C18.1998 9.67149 18.1998 9.67834 18.1998 9.68519C18.1998 9.69204 18.1998 9.69889 18.1998 9.70575C18.1998 9.71261 18.1998 9.71946 18.1998 9.72633C18.1998 9.73319 18.1998 9.74005 18.1998 9.74692C18.1998 9.75378 18.1998 9.76065 18.1998 9.76752C18.1998 9.77439 18.1998 9.78127 18.1998 9.78814C18.1998 9.79502 18.1998 9.8019 18.1998 9.80878C18.1998 9.81566 18.1998 9.82254 18.1998 9.82942C18.1998 9.83631 18.1998 9.84319 18.1998 9.85008C18.1998 9.85697 18.1998 9.86386 18.1998 9.87076C18.1998 9.87765 18.1998 9.88455 18.1998 9.89144C18.1998 9.89834 18.1998 9.90524 18.1998 9.91214C18.1998 9.91905 18.1998 9.92595 18.1998 9.93286C18.1998 9.93976 18.1998 9.94667 18.1998 9.95358C18.1998 9.96049 18.1998 9.9674 18.1998 9.97431C18.1998 9.98123 18.1998 9.98814 18.1998 9.99506C18.1998 10.002 18.1998 10.0089 18.1998 10.0158C18.1998 10.0227 18.1998 10.0297 18.1998 10.0366C18.1998 10.0435 18.1998 10.0504 18.1998 10.0574C18.1998 10.0643 18.1998 10.0712 18.1998 10.0781C18.1998 10.0851 18.1998 10.092 18.1998 10.0989C18.1998 10.1059 18.1998 10.1128 18.1998 10.1197C18.1998 10.1267 18.1998 10.1336 18.1998 10.1405C18.1998 10.1475 18.1998 10.1544 18.1998 10.1614C18.1998 10.1683 18.1998 10.1753 18.1998 10.1822C18.1998 10.1891 18.1998 10.1961 18.1998 10.203C18.1998 10.21 18.1998 10.2169 18.1998 10.2239C18.1998 10.2308 18.1998 10.2378 18.1998 10.2447C18.1998 10.2517 18.1998 10.2586 18.1998 10.2656C18.1998 10.2725 18.1998 10.2795 18.1998 10.2864C18.1998 10.2934 18.1998 10.3004 18.1998 10.3073C18.1998 10.3143 18.1998 10.3212 18.1998 10.3282C18.1998 10.3351 18.1998 10.3421 18.1998 10.3491C18.1998 10.356 18.1998 10.363 18.1998 10.3699C18.1998 10.3769 18.1998 10.3839 18.1998 10.3908C18.1998 10.3978 18.1998 10.4048 18.1998 10.4117C18.1998 10.4187 18.1998 10.4257 18.1998 10.4326C18.1998 10.4396 18.1998 10.4466 18.1998 10.4535C18.1998 10.4605 18.1998 10.4675 18.1998 10.4744C18.1998 10.4814 18.1998 10.4884 18.1998 10.4953C18.1998 10.5023 18.1998 10.5093 18.1998 10.5162C18.1998 10.5232 18.1998 10.5302 18.1998 10.5371C18.1998 10.5441 18.1998 10.5511 18.1998 10.5581C18.1998 10.565 18.1998 10.572 18.1998 10.579C18.1998 10.5859 18.1998 10.5929 18.1998 10.5999C18.1998 10.6068 18.1998 10.6138 18.1998 10.6208C18.1998 10.6278 18.1998 10.6347 18.1998 10.6417C18.1998 10.6487 18.1998 10.6556 18.1998 10.6626C18.1998 10.6696 18.1998 10.6766 18.1998 10.6835C18.1998 10.6905 18.1998 10.6975 18.1998 10.7044C18.1998 10.7114 18.1998 10.7184 18.1998 10.7253C18.1998 10.7323 18.1998 10.7393 18.1998 10.7463C18.1998 10.7532 18.1998 10.7602 18.1998 10.7672C18.1998 10.7741 18.1998 10.7811 18.1998 10.7881C18.1998 10.795 18.1998 10.802 18.1998 10.809C18.1998 10.8159 18.1998 10.8229 18.1998 10.8299C18.1998 10.8368 18.1998 10.8438 18.1998 10.8508C18.1998 10.8577 18.1998 10.8647 18.1998 10.8717C18.1998 10.8786 18.1998 10.8856 18.1998 10.8926C18.1998 10.8995 18.1998 10.9065 18.1998 10.9134C18.1998 10.9204 18.1998 10.9274 18.1998 10.9343C18.1998 10.9413 18.1998 10.9482 18.1998 10.9552C18.1998 10.9621 18.1998 10.9691 18.1998 10.9761C18.1998 10.983 18.1998 10.99 18.1998 10.9969C18.1998 11.0039 18.1998 11.0108 18.1998 11.0178C18.1998 11.0247 18.1998 11.0317 18.1998 11.0386C18.1998 11.0456 18.1998 11.0525 18.1998 11.0595C18.1998 11.0664 18.1998 11.0734 18.1998 11.0803C18.1998 11.0873 18.1998 11.0942 18.1998 11.1012C18.1998 11.1081 18.1998 11.115 18.1998 11.122C18.1998 11.1289 18.1998 11.1359 18.1998 11.1428C18.1998 11.1497 18.1998 11.1567 18.1998 11.1636C18.1998 11.1705 18.1998 11.1775 18.1998 11.1844C18.1998 11.1913 18.1998 11.1983 18.1998 11.2052C18.1998 11.2121 18.1998 11.219 18.1998 11.226C18.1998 11.2329 18.1998 11.2398 18.1998 11.2467C18.1998 11.2537 18.1998 11.2606 18.1998 11.2675C18.1998 11.2744 18.1998 11.2813 18.1998 11.2882C18.1998 11.2952 18.1998 11.3021 18.1998 11.309C18.1998 11.3159 18.1998 11.3228 18.1998 11.3297C18.1998 11.3366 18.1998 11.3435 18.1998 11.3504C18.1998 11.3573 18.1998 11.3642 18.1998 11.3711C18.1998 11.378 18.1998 11.3849 18.1998 11.3918C18.1998 11.3987 18.1998 11.4056 18.1998 11.4125C18.1998 11.4194 18.1998 11.4263 18.1998 11.4332C18.1998 11.44 18.1998 11.4469 18.1998 11.4538C18.1998 11.4607 18.1998 11.4676 18.1998 11.4745C18.1998 11.4813 18.1998 11.4882 18.1998 11.4951C18.1998 11.5019 18.1998 11.5088 18.1998 11.5157C18.1998 11.5226 18.1998 11.5294 18.1998 11.5363C18.1998 11.5431 18.1998 11.55 18.1998 11.5569C18.1998 11.5637 18.1998 11.5706 18.1998 11.5774C18.1998 11.5843 18.1998 11.5911 18.1998 11.598C18.1998 11.6048 18.1998 11.6117 18.1998 11.6185C18.1998 11.6254 18.1998 11.6322 18.1998 11.639C18.1998 11.6459 18.1998 11.6527 18.1998 11.6595C18.1998 11.6664 18.1998 11.6732 18.1998 11.68C18.1998 11.6868 18.1998 11.6937 18.1998 11.7005C18.1998 11.7073 18.1998 11.7141 18.1998 11.7209C18.1998 11.7277 18.1998 11.7346 18.1998 11.7414C18.1998 11.7482 18.1998 11.755 18.1998 11.7618C18.1998 11.7686 18.1998 11.7754 18.1998 11.7822C18.1998 11.789 18.1998 11.7958 18.1998 11.8025C18.1998 11.8093 18.1998 11.8161 18.1998 11.8229C18.1998 11.8297 18.1998 11.8365 18.1998 11.8432C18.1998 11.85 18.1998 11.8568 18.1998 11.8635C18.1998 11.8703 18.1998 11.8771 18.1998 11.8838C18.1998 11.8906 18.1998 11.8974 18.1998 11.9041C18.1998 11.9109 18.1998 11.9176 18.1998 11.9244C18.1998 11.9311 18.1998 11.9379 18.1998 11.9446C18.1998 11.9513 18.1998 11.9581 18.1998 11.9648C18.1998 11.9715 18.1998 11.9783 18.1998 11.985C18.1998 11.9917 18.1998 11.9984 18.1998 12.0052C18.1998 12.0119 18.1998 12.0186 18.1998 12.0253C18.1998 12.032 18.1998 12.0387 18.1998 12.0454C18.1998 12.0521 18.1998 12.0588 18.1998 12.0655C18.1998 12.0722 18.1998 12.0789 18.1998 12.0856C18.1998 12.0923 18.1998 12.0989 18.1998 12.1056C18.1998 12.1123 18.1998 12.119 18.1998 12.1256C18.1998 12.1323 18.1998 12.139 18.1998 12.1456C18.1998 12.1523 18.1998 12.159 18.1998 12.1656C18.1998 12.1723 18.1998 12.1789 18.1998 12.1856C18.1998 12.1922 18.1998 12.1988 18.1998 12.2055C18.1998 12.2121 18.1998 12.2187 18.1998 12.2254C18.1998 12.232 18.1998 12.2386 18.1998 12.2452C18.1998 12.2518 18.1998 12.2585 18.1998 12.2651C18.1998 12.2717 18.1998 12.2783 18.1998 12.2849C18.1998 12.2915 18.1998 12.2981 18.1998 12.3047C18.1998 12.3113 18.1998 12.3178 18.1998 12.3244C18.1998 12.331 18.1998 12.3376 18.1998 12.3441C18.1998 12.3507 18.1998 12.3573 18.1998 12.3638C18.1998 12.3704 18.1998 12.377 18.1998 12.3835C18.1998 12.3901 18.1998 12.3966 18.1998 12.4032C18.1998 12.4097 18.1998 12.4162 18.1998 12.4228C18.1998 12.4293 18.1998 12.4358 18.1998 12.4423C18.1998 12.4489 18.1998 12.4554 18.1998 12.4619C18.1998 12.4684 18.1998 12.4749 18.1998 12.4814C18.1998 12.4879 18.1998 12.4944 18.1998 12.5009C18.1998 12.5074 18.1998 12.5139 18.1998 12.5203C18.1998 12.5268 18.1998 12.5333 18.1998 12.5398C18.1998 12.5462 18.1998 12.5527 18.1998 12.5592C18.1998 12.5656 18.1998 12.5721 18.1998 12.5785C18.1998 12.585 18.1998 12.5914 18.1998 12.5978C18.1998 12.6043 18.1998 12.6107 18.1998 12.6171C18.1998 12.6236 18.1998 12.63 18.1998 12.6364C18.1998 12.6428 18.1998 12.6492 18.1998 12.6556C18.1998 12.662 18.1998 12.6684 18.1998 12.6748C18.1998 12.6812 18.1998 12.6876 18.1998 12.694C18.1998 12.7003 18.1998 12.7067 18.1998 12.7131C18.1998 12.7194 18.1998 12.7258 18.1998 12.7322C18.1998 12.7385 18.1998 12.7449 18.1998 12.7512C18.1998 12.7576 18.1998 12.7639 18.1998 12.7702C18.1998 12.7766 18.1998 12.7829 18.1998 12.7892C18.1998 12.7955 18.1998 12.8018 18.1998 12.8081C18.1998 12.8144 18.1998 12.8208 18.1998 12.827C18.1998 12.8333 18.1998 12.8396 18.1998 12.8459C18.1998 12.8522 18.1998 12.8585 18.1998 12.8647C18.1998 12.871 18.1998 12.8773 18.1998 12.8835C18.1998 12.8898 18.1998 12.896 18.1998 12.9023C18.1998 12.9085 18.1998 12.9148 18.1998 12.921C18.1998 12.9272 18.1998 12.9334 18.1998 12.9397C18.1998 12.9459 18.1998 12.9521 18.1998 12.9583C18.1998 12.9645 18.1998 12.9707 18.1998 12.9769C18.1998 12.9831 18.1998 12.9893 18.1998 12.9954C18.1998 13.0016 18.1998 13.0078 18.1998 13.0139C18.1998 13.0201 18.1998 13.0263 18.1998 13.0324C18.1998 13.0386 18.1998 13.0447 18.1998 13.0508C18.1998 13.057 18.1998 13.0631 18.1998 13.0692C18.1998 13.0754 18.1998 13.0815 18.1998 13.0876C18.1998 13.0937 18.1998 13.0998 18.1998 13.1059C18.1998 13.112 18.1998 13.1181 18.1998 13.1241C18.1998 13.1302 18.1998 13.1363 18.1998 13.1424C18.1998 13.1484 18.1998 13.1545 18.1998 13.1605C18.1998 13.1666 18.1998 13.1726 18.1998 13.1787C18.1998 13.1847 18.1998 13.1907 18.1998 13.1968C18.1998 13.2028 18.1998 13.2088 18.1998 13.2148C18.1998 13.2208 18.1998 13.2268 18.1998 13.2328C18.1998 13.2388 18.1998 13.2448 18.1998 13.2508C18.1998 13.2567 18.1998 13.2627 18.1998 13.2687C18.1998 13.2746 18.1998 13.2806 18.1998 13.2865C18.1998 13.2925 18.1998 13.2984 18.1998 13.3043C18.1998 13.3103 18.1998 13.3162 18.1998 13.3221C18.1998 13.328 18.1998 13.3339 18.1998 13.3398C18.1998 13.3457 18.1998 13.3516 18.1998 13.3575C18.1998 13.3634 18.1998 13.3693 18.1998 13.3751C18.1998 13.381 18.1998 13.3869 18.1998 13.3927C18.1998 13.3986 18.1998 13.4044 18.1998 13.4102C18.1998 13.4161 18.1998 13.4219 18.1998 13.4277C18.1998 13.4335 18.1998 13.4394 18.1998 13.4452C18.1998 13.451 18.1998 13.4568 18.1998 13.4625C18.1998 13.4683 18.1998 13.4741 18.1998 13.4799C18.1998 13.4856 18.1998 13.4914 18.1998 13.4972C18.1998 13.5029 18.1998 13.5087 18.1998 13.5144C18.1998 13.5201 18.1998 13.5259 18.1998 13.5316C18.1998 13.5373 18.1998 13.543 18.1998 13.5487C18.1998 13.5544 18.1998 13.5601 18.1998 13.5658C18.1998 13.5715 18.1998 13.5772 18.1998 13.5828C18.1998 13.5885 18.1998 13.5942 18.1998 13.5998C18.1998 13.6055 18.1998 13.6111 18.1998 13.6167C18.1998 13.6224 18.1998 13.628 18.1998 13.6336C18.1998 13.6392 18.1998 13.6448 18.1998 13.6504C18.1998 13.656 18.1998 13.6616 18.1998 13.6672C18.1998 13.6728 18.1998 13.6783 18.1998 13.6839C18.1998 13.6895 18.1998 13.695 18.1998 13.7006C18.1998 13.7061 18.1998 13.7116 18.1998 13.7172C18.1998 13.7227 18.1998 13.7282 18.1998 13.7337C18.1998 13.7392 18.1998 13.7447 18.1998 13.7502C18.1998 13.7557 18.1998 13.7612 18.1998 13.7666C18.1998 13.7721 18.1998 13.7776 18.1998 13.783C18.1998 13.7885 18.1998 13.7939 18.1998 13.7994C18.1998 13.8048 18.1998 13.8102 18.1998 13.8156H19.1998ZM19.1998 5.78763L19.647 4.8932L14.057 2.09818L13.6098 2.99261L13.1626 3.88704L18.7526 6.68205L19.1998 5.78763ZM10.3898 2.99261L10.837 3.88704C11.569 3.52105 12.4306 3.52105 13.1626 3.88704L13.6098 2.99261L14.057 2.09818C12.762 1.45067 11.2376 1.45067 9.94262 2.09818L10.3898 2.99261ZM14.6998 10.8878V9.88777H11.9998V10.8878V11.8878H14.6998V10.8878ZM11.9998 10.8878V9.88777H9.29981V10.8878V11.8878H11.9998V10.8878ZM11.9998 13.5876H12.9998V10.8878H11.9998H10.9998V13.5876H11.9998ZM11.9998 10.8878H12.9998V8.18763H11.9998H10.9998V10.8878H11.9998Z" fill="#1D1D20" style="fill:#1D1D20;fill:color(display-p3 0.1148 0.1148 0.1252);fill-opacity:1;"/>
</svg>
