<svg width="24" height="24" viewBox="0 0 24 24" fill="none" xmlns="http://www.w3.org/2000/svg">
<path d="M9.1199 9.1199V8.1199C8.56762 8.1199 8.1199 8.56762 8.1199 9.1199H9.1199ZM9.21553 9.1199H10.2155C10.2155 8.56762 9.76781 8.1199 9.21553 8.1199V9.1199ZM14.8799 9.1199V8.1199C14.3276 8.1199 13.8799 8.56762 13.8799 9.1199H14.8799ZM14.9649 9.1199H15.9649C15.9649 8.56762 15.5172 8.1199 14.9649 8.1199V9.1199ZM9.21553 9.19678V10.1968C9.76781 10.1968 10.2155 9.74906 10.2155 9.19678H9.21553ZM9.1199 9.19678H8.1199C8.1199 9.74906 8.56762 10.1968 9.1199 10.1968V9.19678ZM14.9649 9.19678V10.1968C15.5172 10.1968 15.9649 9.74906 15.9649 9.19678H14.9649ZM14.8799 9.19678H13.8799C13.8799 9.74906 14.3276 10.1968 14.8799 10.1968V9.19678ZM8.67185 13.9191C8.11957 13.9191 7.67185 14.3668 7.67185 14.9191C7.67185 15.4713 8.11957 15.9191 8.67185 15.9191V14.9191V13.9191ZM15.3279 15.9191C15.8802 15.9191 16.3279 15.4713 16.3279 14.9191C16.3279 14.3668 15.8802 13.9191 15.3279 13.9191V14.9191V15.9191ZM21.5999 11.9999H20.5999C20.5999 16.7495 16.7495 20.5999 11.9999 20.5999V21.5999V22.5999C17.8541 22.5999 22.5999 17.8541 22.5999 11.9999H21.5999ZM11.9999 21.5999V20.5999C7.25025 20.5999 3.3999 16.7495 3.3999 11.9999H2.3999H1.3999C1.3999 17.8541 6.14568 22.5999 11.9999 22.5999V21.5999ZM2.3999 11.9999H3.3999C3.3999 7.25025 7.25025 3.3999 11.9999 3.3999V2.3999V1.3999C6.14568 1.3999 1.3999 6.14568 1.3999 11.9999H2.3999ZM11.9999 2.3999V3.3999C16.7495 3.3999 20.5999 7.25025 20.5999 11.9999H21.5999H22.5999C22.5999 6.14568 17.8541 1.3999 11.9999 1.3999V2.3999ZM9.1199 9.1199V10.1199H9.21553V9.1199V8.1199H9.1199V9.1199ZM14.8799 9.1199V10.1199H14.9649V9.1199V8.1199H14.8799V9.1199ZM9.21553 9.1199H8.21553V9.19678H9.21553H10.2155V9.1199H9.21553ZM9.21553 9.19678V8.19678H9.1199V9.19678V10.1968H9.21553V9.19678ZM9.1199 9.19678H10.1199V9.1199H9.1199H8.1199V9.19678H9.1199ZM14.9649 9.1199H13.9649V9.19678H14.9649H15.9649V9.1199H14.9649ZM14.9649 9.19678V8.19678H14.8799V9.19678V10.1968H14.9649V9.19678ZM14.8799 9.19678H15.8799V9.1199H14.8799H13.8799V9.19678H14.8799ZM15.3279 14.9191V13.9191H8.67185V14.9191V15.9191H15.3279V14.9191Z" fill="#1D1D20" style="fill:#1D1D20;fill:color(display-p3 0.1148 0.1148 0.1252);fill-opacity:1;"/>
</svg>
