<svg width="24" height="24" viewBox="0 0 24 24" fill="none" xmlns="http://www.w3.org/2000/svg">
<path d="M9.1199 9.1199V8.1199C8.56762 8.1199 8.1199 8.56762 8.1199 9.1199H9.1199ZM9.21553 9.1199H10.2155C10.2155 8.56762 9.76781 8.1199 9.21553 8.1199V9.1199ZM14.8799 9.1199V8.1199C14.3276 8.1199 13.8799 8.56762 13.8799 9.1199H14.8799ZM14.9649 9.1199H15.9649C15.9649 8.56762 15.5172 8.1199 14.9649 8.1199V9.1199ZM9.21553 9.19678V10.1968C9.76781 10.1968 10.2155 9.74906 10.2155 9.19678H9.21553ZM9.1199 9.19678H8.1199C8.1199 9.74906 8.56762 10.1968 9.1199 10.1968V9.19678ZM14.9649 9.19678V10.1968C15.5172 10.1968 15.9649 9.74906 15.9649 9.19678H14.9649ZM14.8799 9.19678H13.8799C13.8799 9.74906 14.3276 10.1968 14.8799 10.1968V9.19678ZM9.52213 14.3927C9.23145 13.9231 8.61512 13.7781 8.14553 14.0688C7.67593 14.3595 7.53089 14.9758 7.82157 15.4454L8.67185 14.9191L9.52213 14.3927ZM16.1782 15.4454C16.4689 14.9758 16.3239 14.3595 15.8543 14.0688C15.3847 13.7781 14.7683 13.9231 14.4777 14.3927L15.3279 14.9191L16.1782 15.4454ZM21.5999 11.9999H20.5999C20.5999 16.7495 16.7495 20.5999 11.9999 20.5999V21.5999V22.5999C17.8541 22.5999 22.5999 17.8541 22.5999 11.9999H21.5999ZM11.9999 21.5999V20.5999C7.25025 20.5999 3.3999 16.7495 3.3999 11.9999H2.3999H1.3999C1.3999 17.8541 6.14568 22.5999 11.9999 22.5999V21.5999ZM2.3999 11.9999H3.3999C3.3999 7.25025 7.25025 3.3999 11.9999 3.3999V2.3999V1.3999C6.14568 1.3999 1.3999 6.14568 1.3999 11.9999H2.3999ZM11.9999 2.3999V3.3999C16.7495 3.3999 20.5999 7.25025 20.5999 11.9999H21.5999H22.5999C22.5999 6.14568 17.8541 1.3999 11.9999 1.3999V2.3999ZM9.1199 9.1199V10.1199H9.21553V9.1199V8.1199H9.1199V9.1199ZM14.8799 9.1199V10.1199H14.9649V9.1199V8.1199H14.8799V9.1199ZM9.21553 9.1199H8.21553V9.19678H9.21553H10.2155V9.1199H9.21553ZM9.21553 9.19678V8.19678H9.1199V9.19678V10.1968H9.21553V9.19678ZM9.1199 9.19678H10.1199V9.1199H9.1199H8.1199V9.19678H9.1199ZM14.9649 9.1199H13.9649V9.19678H14.9649H15.9649V9.1199H14.9649ZM14.9649 9.19678V8.19678H14.8799V9.19678V10.1968H14.9649V9.19678ZM14.8799 9.19678H15.8799V9.1199H14.8799H13.8799V9.19678H14.8799ZM11.9999 16.7998V15.7998C10.9701 15.7998 10.0523 15.2491 9.52213 14.3927L8.67185 14.9191L7.82157 15.4454C8.69132 16.8505 10.2314 17.7998 11.9999 17.7998V16.7998ZM15.3279 14.9191L14.4777 14.3927C13.9475 15.2491 13.0297 15.7998 11.9999 15.7998V16.7998V17.7998C13.7684 17.7998 15.3085 16.8505 16.1782 15.4454L15.3279 14.9191Z" fill="#1D1D20" style="fill:#1D1D20;fill:color(display-p3 0.1148 0.1148 0.1252);fill-opacity:1;"/>
</svg>
