<svg width="24" height="24" viewBox="0 0 24 24" fill="none" xmlns="http://www.w3.org/2000/svg">
<path d="M8.81131 21.2447L11.9991 18.0568M11.9991 18.0568L15.1869 21.2447M11.9991 18.0568V5.94318M15.1869 2.75537L11.9991 5.94318M11.9991 5.94318L8.81131 2.75537M2.3999 13.8616L6.75453 15.0285M6.75453 15.0285L5.58771 19.3831M6.75453 15.0285L17.2453 8.97163M21.5999 10.1384L17.2453 8.97163M17.2453 8.97163L18.4121 4.617M5.58771 4.617L6.75453 8.97163M6.75453 8.97163L2.3999 10.1384M6.75453 8.97163L17.2453 15.0285M18.4121 19.3831L17.2453 15.0285M17.2453 15.0285L21.5999 13.8616" stroke="#1D1D20" style="stroke:#1D1D20;stroke:color(display-p3 0.1148 0.1148 0.1252);stroke-opacity:1;" stroke-width="2" stroke-linecap="round" stroke-linejoin="round"/>
</svg>
