<svg width="24" height="24" viewBox="0 0 24 24" fill="none" xmlns="http://www.w3.org/2000/svg">
<path d="M17.625 3H6.375C4.51104 3 3 4.51104 3 6.375V17.625C3 19.489 4.51104 21 6.375 21H17.625C19.489 21 21 19.489 21 17.625V6.375C21 4.51104 19.489 3 17.625 3Z" stroke="#1D1D20" style="stroke:#1D1D20;stroke:color(display-p3 0.1148 0.1148 0.1252);stroke-opacity:1;" stroke-width="2" stroke-linejoin="round"/>
<path d="M8.625 9.89062C8.625 9.19164 9.19164 8.625 9.89062 8.625H14.1094C14.8084 8.625 15.375 9.19164 15.375 9.89062V14.1094C15.375 14.8084 14.8084 15.375 14.1094 15.375H9.89062C9.19164 15.375 8.625 14.8084 8.625 14.1094V9.89062Z" stroke="#1D1D20" style="stroke:#1D1D20;stroke:color(display-p3 0.1148 0.1148 0.1252);stroke-opacity:1;" stroke-width="2" stroke-linejoin="round"/>
</svg>
