<svg width="24" height="24" viewBox="0 0 24 24" fill="none" xmlns="http://www.w3.org/2000/svg">
<path d="M13.1201 14.2565C13.1201 14.9737 12.5387 15.5552 11.8214 15.5552C11.1042 15.5552 10.5227 14.9737 10.5227 14.2565C10.5227 13.5392 11.1042 12.9578 11.8214 12.9578C12.5387 12.9578 13.1201 13.5392 13.1201 14.2565Z" fill="#D9D9D9" style="fill:#D9D9D9;fill:color(display-p3 0.8510 0.8510 0.8510);fill-opacity:1;"/>
<path d="M19.5415 3.37082C19.151 2.98029 18.5178 2.98029 18.1273 3.37082C17.7368 3.76134 17.7368 4.3945 18.1273 4.78503L18.8344 4.07792L19.5415 3.37082ZM20.465 7.12269C20.8555 7.51322 21.4887 7.51322 21.8792 7.12269C22.2697 6.73217 22.2697 6.099 21.8792 5.70848L21.1721 6.41558L20.465 7.12269ZM12.8214 9.84091C12.8214 9.28862 12.3737 8.84091 11.8214 8.84091C11.2691 8.84091 10.8214 9.28862 10.8214 9.84091H11.8214H12.8214ZM10.8214 13.2175C10.8214 13.7698 11.2691 14.2175 11.8214 14.2175C12.3737 14.2175 12.8214 13.7698 12.8214 13.2175H11.8214H10.8214ZM9.22403 1C8.67174 1 8.22403 1.44772 8.22403 2C8.22403 2.55228 8.67174 3 9.22403 3V2V1ZM14.1591 3C14.7114 3 15.1591 2.55228 15.1591 2C15.1591 1.44772 14.7114 1 14.1591 1V2V3ZM17.3481 6.4877C16.9576 6.87822 16.9576 7.51139 17.3481 7.90191C17.7386 8.29244 18.3718 8.29244 18.7623 7.90191L18.0552 7.19481L17.3481 6.4877ZM20.0032 5.24675L20.7104 4.53965V4.53965L20.0032 5.24675ZM11.8214 9.84091H10.8214V13.2175H11.8214H12.8214V9.84091H11.8214ZM9.22403 2V3H14.1591V2V1H9.22403V2ZM18.0552 7.19481L18.7623 7.90191L20.7104 5.95386L20.0032 5.24675L19.2961 4.53965L17.3481 6.4877L18.0552 7.19481ZM20.3929 13.4286H19.3929C19.3929 17.6102 16.003 21 11.8214 21V22V23C17.1076 23 21.3929 18.7147 21.3929 13.4286H20.3929ZM11.8214 22V21C7.63984 21 4.25 17.6102 4.25 13.4286H3.25H2.25C2.25 18.7147 6.53527 23 11.8214 23V22ZM3.25 13.4286H4.25C4.25 9.24699 7.63984 5.85714 11.8214 5.85714V4.85714V3.85714C6.53527 3.85714 2.25 8.14242 2.25 13.4286H3.25ZM11.8214 4.85714V5.85714C16.003 5.85714 19.3929 9.24699 19.3929 13.4286H20.3929H21.3929C21.3929 8.14242 17.1076 3.85714 11.8214 3.85714V4.85714ZM13.1201 14.2565H12.1201C12.1201 14.4215 11.9864 14.5552 11.8214 14.5552V15.5552V16.5552C13.091 16.5552 14.1201 15.526 14.1201 14.2565H13.1201ZM11.8214 15.5552V14.5552C11.6565 14.5552 11.5227 14.4215 11.5227 14.2565H10.5227H9.52273C9.52273 15.526 10.5519 16.5552 11.8214 16.5552V15.5552ZM10.5227 14.2565H11.5227C11.5227 14.0915 11.6565 13.9578 11.8214 13.9578V12.9578V11.9578C10.5519 11.9578 9.52273 12.987 9.52273 14.2565H10.5227ZM11.8214 12.9578V13.9578C11.9864 13.9578 12.1201 14.0915 12.1201 14.2565H13.1201H14.1201C14.1201 12.987 13.091 11.9578 11.8214 11.9578V12.9578ZM18.8344 4.07792L18.1273 4.78503L19.2961 5.95386L20.0032 5.24675L20.7104 4.53965L19.5415 3.37082L18.8344 4.07792ZM20.0032 5.24675L19.2961 5.95386L20.465 7.12269L21.1721 6.41558L21.8792 5.70848L20.7104 4.53965L20.0032 5.24675Z" fill="#1D1D20" style="fill:#1D1D20;fill:color(display-p3 0.1148 0.1148 0.1252);fill-opacity:1;"/>
</svg>
