<svg width="24" height="24" viewBox="0 0 24 24" fill="none" xmlns="http://www.w3.org/2000/svg">
<path d="M21.1016 12.5294C21.1016 11.9771 20.6539 11.5294 20.1016 11.5294C19.5493 11.5294 19.1016 11.9771 19.1016 12.5294H20.1016H21.1016ZM11.5508 5.05882C12.1031 5.05882 12.5508 4.61111 12.5508 4.05882C12.5508 3.50654 12.1031 3.05882 11.5508 3.05882V4.05882V5.05882ZM16.8262 12.5294C16.8262 11.9771 16.3785 11.5294 15.8262 11.5294C15.2739 11.5294 14.8262 11.9771 14.8262 12.5294H15.8262H16.8262ZM11.5508 9.29412C12.1031 9.29412 12.5508 8.8464 12.5508 8.29412C12.5508 7.74183 12.1031 7.29412 11.5508 7.29412V8.29412V9.29412ZM16.0335 9.32561C16.4259 8.93693 16.4289 8.30377 16.0402 7.91141C15.6515 7.51905 15.0184 7.51607 14.626 7.90475L15.3298 8.61518L16.0335 9.32561ZM10.847 11.6483C10.4547 12.0369 10.4517 12.6701 10.8404 13.0625C11.2291 13.4548 11.8622 13.4578 12.2546 13.0691L11.5508 12.3587L10.847 11.6483ZM21 5.99481L21.7038 6.70524C21.9736 6.43791 22.0687 6.04076 21.9492 5.68019C21.8297 5.31962 21.5162 5.0579 21.1401 5.00467L21 5.99481ZM17.5989 9.36396L17.2854 10.3135C17.6425 10.4314 18.0355 10.3391 18.3027 10.0744L17.5989 9.36396ZM14.5758 6.36916L13.872 5.65872C13.601 5.92721 13.5063 6.3265 13.628 6.68807L14.5758 6.36916ZM17.9768 3L18.9666 2.85727C18.9127 2.48345 18.6528 2.17189 18.2947 2.05185C17.9366 1.93181 17.5414 2.02377 17.2731 2.28957L17.9768 3ZM15.3316 8.61526L14.3838 8.93418C14.4842 9.23249 14.7191 9.46614 15.018 9.56483L15.3316 8.61526ZM18.3547 5.62045L17.365 5.76319C17.4284 6.20308 17.7746 6.54831 18.2146 6.61059L18.3547 5.62045ZM20.1016 12.5294H19.1016C19.1016 16.6464 15.7299 20 11.5508 20V21V22C16.8167 22 21.1016 17.7687 21.1016 12.5294H20.1016ZM11.5508 21V20C7.3717 20 4 16.6464 4 12.5294H3H2C2 17.7687 6.28495 22 11.5508 22V21ZM3 12.5294H4C4 8.41238 7.3717 5.05882 11.5508 5.05882V4.05882V3.05882C6.28495 3.05882 2 7.29009 2 12.5294H3ZM15.8262 12.5294H14.8262C14.8262 14.3074 13.3687 15.7647 11.5508 15.7647V16.7647V17.7647C14.4554 17.7647 16.8262 15.4297 16.8262 12.5294H15.8262ZM11.5508 16.7647V15.7647C9.73294 15.7647 8.2754 14.3074 8.2754 12.5294H7.2754H6.2754C6.2754 15.4297 8.64619 17.7647 11.5508 17.7647V16.7647ZM7.2754 12.5294H8.2754C8.2754 10.7515 9.73294 9.29412 11.5508 9.29412V8.29412V7.29412C8.64619 7.29412 6.2754 9.62917 6.2754 12.5294H7.2754ZM15.3298 8.61518L14.626 7.90475L10.847 11.6483L11.5508 12.3587L12.2546 13.0691L16.0335 9.32561L15.3298 8.61518ZM21 5.99481L20.2962 5.28437L16.8952 8.65353L17.5989 9.36396L18.3027 10.0744L21.7038 6.70524L21 5.99481ZM14.5758 6.36916L15.2795 7.07959L18.6806 3.71043L17.9768 3L17.2731 2.28957L13.872 5.65872L14.5758 6.36916ZM17.5989 9.36396L17.9125 8.41439L15.6451 7.66569L15.3316 8.61526L15.018 9.56483L17.2854 10.3135L17.5989 9.36396ZM15.3316 8.61526L16.2793 8.29634L15.5236 6.05024L14.5758 6.36916L13.628 6.68807L14.3838 8.93418L15.3316 8.61526ZM17.9768 3L16.9871 3.14273L17.365 5.76319L18.3547 5.62045L19.3445 5.47772L18.9666 2.85727L17.9768 3ZM18.3547 5.62045L18.2146 6.61059L20.8599 6.98494L21 5.99481L21.1401 5.00467L18.4949 4.63032L18.3547 5.62045Z" fill="#1D1D20" style="fill:#1D1D20;fill:color(display-p3 0.1148 0.1148 0.1252);fill-opacity:1;"/>
</svg>
