<svg width="24" height="24" viewBox="0 0 24 24" fill="none" xmlns="http://www.w3.org/2000/svg">
<path d="M6.5998 13.9527L7.1719 14.7729C7.44002 14.5859 7.5998 14.2796 7.5998 13.9527H6.5998ZM11.3998 13.9527H10.3998C10.3998 14.2372 10.5209 14.5081 10.7329 14.6979L11.3998 13.9527ZM8.9998 16.3999C8.44752 16.3999 7.9998 16.8476 7.9998 17.3999C7.9998 17.9522 8.44752 18.3999 8.9998 18.3999V17.3999V16.3999ZM9.05605 18.3999C9.60834 18.3999 10.0561 17.9522 10.0561 17.3999C10.0561 16.8476 9.60834 16.3999 9.05605 16.3999V17.3999V18.3999ZM13.1998 17.3999H12.1998C12.1998 19.1672 10.7671 20.5999 8.9998 20.5999V21.5999V22.5999C11.8717 22.5999 14.1998 20.2718 14.1998 17.3999H13.1998ZM8.9998 21.5999V20.5999C7.23249 20.5999 5.7998 19.1672 5.7998 17.3999H4.7998H3.7998C3.7998 20.2718 6.12792 22.5999 8.9998 22.5999V21.5999ZM4.7998 17.3999H5.7998C5.7998 16.3133 6.34044 15.3529 7.1719 14.7729L6.5998 13.9527L6.02771 13.1325C4.68299 14.0705 3.7998 15.632 3.7998 17.3999H4.7998ZM11.3998 13.9527L10.7329 14.6979C11.0777 15.0065 11.4594 15.4701 11.7501 15.9878C12.046 16.5149 12.1998 17.0122 12.1998 17.3999H13.1998H14.1998C14.1998 16.5437 13.8832 15.7019 13.494 15.0087C13.0995 14.306 12.5811 13.668 12.0667 13.2076L11.3998 13.9527ZM11.3998 4.7999H10.3998V13.9527H11.3998H12.3998V4.7999H11.3998ZM6.5998 13.9527H7.5998V4.79833H6.5998H5.5998V13.9527H6.5998ZM8.9998 2.3999V3.3999C9.773 3.3999 10.3998 4.0267 10.3998 4.7999H11.3998H12.3998C12.3998 2.92213 10.8776 1.3999 8.9998 1.3999V2.3999ZM8.9998 2.3999V1.3999C7.12289 1.3999 5.5998 2.91971 5.5998 4.79833H6.5998H7.5998C7.5998 4.02599 8.22575 3.3999 8.9998 3.3999V2.3999ZM8.9998 17.3999V18.3999H9.05605V17.3999V16.3999H8.9998V17.3999ZM19.1998 7.1999H18.1998C18.1998 7.9731 17.573 8.5999 16.7998 8.5999V9.5999V10.5999C18.6776 10.5999 20.1998 9.07767 20.1998 7.1999H19.1998ZM16.7998 9.5999V8.5999C16.0266 8.5999 15.3998 7.9731 15.3998 7.1999H14.3998H13.3998C13.3998 9.07767 14.922 10.5999 16.7998 10.5999V9.5999ZM14.3998 7.1999H15.3998C15.3998 6.4267 16.0266 5.7999 16.7998 5.7999V4.7999V3.7999C14.922 3.7999 13.3998 5.32213 13.3998 7.1999H14.3998ZM16.7998 4.7999V5.7999C17.573 5.7999 18.1998 6.4267 18.1998 7.1999H19.1998H20.1998C20.1998 5.32213 18.6776 3.7999 16.7998 3.7999V4.7999Z" fill="#1D1D20" style="fill:#1D1D20;fill:color(display-p3 0.1148 0.1148 0.1252);fill-opacity:1;"/>
</svg>
