<svg width="24" height="24" viewBox="0 0 24 24" fill="none" xmlns="http://www.w3.org/2000/svg">
<path d="M8.4002 17.3999H8.45645M14.5502 11.2499L16.8002 8.9999M16.8002 8.9999L19.0502 11.2499M16.8002 8.9999V5.3999M16.8002 8.9999L13.8002 7.4999M16.8002 8.9999L19.8002 7.4999M12.6002 17.3999C12.6002 19.7195 10.7198 21.5999 8.4002 21.5999C6.0806 21.5999 4.2002 19.7195 4.2002 17.3999C4.2002 15.9727 4.9121 14.7117 6.0002 13.9527V4.79833C6.0002 3.47285 7.07471 2.3999 8.4002 2.3999C9.72568 2.3999 10.8002 3.47442 10.8002 4.7999V13.9527C11.6594 14.7218 12.6002 16.156 12.6002 17.3999Z" stroke="#1D1D20" style="stroke:#1D1D20;stroke:color(display-p3 0.1148 0.1148 0.1252);stroke-opacity:1;" stroke-width="2" stroke-linecap="round" stroke-linejoin="round"/>
</svg>
