<svg width="24" height="24" viewBox="0 0 24 24" fill="none" xmlns="http://www.w3.org/2000/svg">
<path d="M5.14276 17.0288H4.22847C3.21858 17.0288 2.3999 16.2101 2.3999 15.2002V6.97164C2.3999 5.96175 3.21858 5.14307 4.22847 5.14307H12.457C13.4669 5.14307 14.2856 5.96175 14.2856 6.97164V15.2002C14.2856 16.2101 13.4669 17.0288 12.457 17.0288H11.5428M15.657 17.0288H15.1999C14.695 17.0288 14.2856 16.6194 14.2856 16.1145V8.34307C14.2856 7.83812 14.695 7.42878 15.1999 7.42878H17.5033C17.7811 7.42878 18.0438 7.55503 18.2173 7.77192L21.3995 11.7498C21.5292 11.9119 21.5999 12.1133 21.5999 12.3209V16.1145C21.5999 16.6194 21.1906 17.0288 20.6856 17.0288M10.6285 16.5716C10.6285 17.834 9.60512 18.8574 8.34276 18.8574C7.08039 18.8574 6.05704 17.834 6.05704 16.5716C6.05704 15.3093 7.08039 14.2859 8.34276 14.2859C9.60512 14.2859 10.6285 15.3093 10.6285 16.5716ZM20.2285 16.5716C20.2285 17.834 19.2051 18.8574 17.9428 18.8574C16.6804 18.8574 15.657 17.834 15.657 16.5716C15.657 15.3093 16.6804 14.2859 17.9428 14.2859C19.2051 14.2859 20.2285 15.3093 20.2285 16.5716Z" stroke="#1D1D20" style="stroke:#1D1D20;stroke:color(display-p3 0.1148 0.1148 0.1252);stroke-opacity:1;" stroke-width="2" stroke-linecap="round"/>
</svg>
