<svg width="24" height="24" viewBox="0 0 24 24" fill="none" xmlns="http://www.w3.org/2000/svg">
<path d="M12 13.5557C14.3722 13.5557 16.4711 14.0084 17.9395 14.6973C19.4872 15.4234 20 16.2289 20 16.7783C19.9998 17.4746 19.6205 18.2354 18.3896 18.877C17.1255 19.5358 15.0584 20 12 20C8.94161 20 6.87454 19.5358 5.61035 18.877C4.37952 18.2354 4.00016 17.4746 4 16.7783C4 16.2289 4.51284 15.4234 6.06055 14.6973C7.52885 14.0084 9.62782 13.5557 12 13.5557ZM12 4C13.484 4 14.8184 5.4463 14.8184 7.00977C14.8183 8.52535 13.5293 9.875 12 9.875C10.4707 9.875 9.1817 8.52535 9.18164 7.00977C9.18164 5.4463 10.516 4 12 4Z" stroke="#1D1D20" style="stroke:#1D1D20;stroke:color(display-p3 0.1148 0.1148 0.1252);stroke-opacity:1;" stroke-width="2"/>
</svg>
