<svg width="24" height="24" viewBox="0 0 24 24" fill="none" xmlns="http://www.w3.org/2000/svg">
<path d="M1.3999 21.5998C1.39984 22.1521 1.84751 22.5998 2.39979 22.5999C2.95207 22.6 3.39984 22.1523 3.3999 21.6L2.3999 21.5999L1.3999 21.5998ZM2.40031 17.9995L3.40031 17.9996L2.40031 17.9995ZM12.5999 15.3999C13.1522 15.3999 13.5999 14.9522 13.5999 14.3999C13.5999 13.8476 13.1522 13.3999 12.5999 13.3999V14.3999V15.3999ZM21.5999 16.5999C22.1522 16.5999 22.5999 16.1522 22.5999 15.5999C22.5999 15.0476 22.1522 14.5999 21.5999 14.5999V15.5999V16.5999ZM16.1999 14.5999C15.6476 14.5999 15.1999 15.0476 15.1999 15.5999C15.1999 16.1522 15.6476 16.5999 16.1999 16.5999V15.5999V14.5999ZM17.8999 18.2998C17.8999 18.852 18.3476 19.2998 18.8999 19.2998C19.4522 19.2998 19.8999 18.852 19.8999 18.2998H18.8999H17.8999ZM19.8999 12.8998C19.8999 12.3475 19.4522 11.8998 18.8999 11.8998C18.3476 11.8998 17.8999 12.3475 17.8999 12.8998H18.8999H19.8999ZM17.8889 1.5276C17.4071 1.25755 16.7976 1.42918 16.5276 1.91094C16.2575 2.39271 16.4292 3.00217 16.9109 3.27221L17.3999 2.3999L17.8889 1.5276ZM16.9109 8.72759C16.4292 8.99764 16.2575 9.6071 16.5276 10.0889C16.7976 10.5706 17.4071 10.7423 17.8889 10.4722L17.3999 9.5999L16.9109 8.72759ZM14.3999 5.9999H13.3999C13.3999 7.43584 12.2358 8.5999 10.7999 8.5999V9.5999V10.5999C13.3404 10.5999 15.3999 8.54041 15.3999 5.9999H14.3999ZM10.7999 9.5999V8.5999C9.36396 8.5999 8.1999 7.43584 8.1999 5.9999H7.1999H6.1999C6.1999 8.54041 8.25939 10.5999 10.7999 10.5999V9.5999ZM7.1999 5.9999H8.1999C8.1999 4.56396 9.36396 3.3999 10.7999 3.3999V2.3999V1.3999C8.25939 1.3999 6.1999 3.45939 6.1999 5.9999H7.1999ZM10.7999 2.3999V3.3999C12.2358 3.3999 13.3999 4.56396 13.3999 5.9999H14.3999H15.3999C15.3999 3.45939 13.3404 1.3999 10.7999 1.3999V2.3999ZM2.3999 21.5999L3.3999 21.6L3.40031 17.9996L2.40031 17.9995L1.40031 17.9994L1.3999 21.5998L2.3999 21.5999ZM6.00031 14.3999V13.3999C3.46 13.3999 1.40059 15.4591 1.40031 17.9994L2.40031 17.9995L3.40031 17.9996C3.40047 16.5638 4.56448 15.3999 6.00031 15.3999V14.3999ZM6.00031 14.3999V15.3999H12.5999V14.3999V13.3999H6.00031V14.3999ZM21.5999 15.5999V14.5999H18.8999V15.5999V16.5999H21.5999V15.5999ZM18.8999 15.5999V14.5999H16.1999V15.5999V16.5999H18.8999V15.5999ZM18.8999 18.2998H19.8999V15.5999H18.8999H17.8999V18.2998H18.8999ZM18.8999 15.5999H19.8999V12.8998H18.8999H17.8999V15.5999H18.8999ZM17.3999 2.3999L16.9109 3.27221C18.1486 3.96594 18.7999 4.98556 18.7999 5.9999H19.7999H20.7999C20.7999 4.064 19.5637 2.46642 17.8889 1.5276L17.3999 2.3999ZM19.7999 5.9999H18.7999C18.7999 7.01425 18.1486 8.03386 16.9109 8.72759L17.3999 9.5999L17.8889 10.4722C19.5637 9.53338 20.7999 7.9358 20.7999 5.9999H19.7999Z" fill="#1D1D20" style="fill:#1D1D20;fill:color(display-p3 0.1148 0.1148 0.1252);fill-opacity:1;"/>
</svg>
