<svg width="24" height="24" viewBox="0 0 24 24" fill="none" xmlns="http://www.w3.org/2000/svg">
<path d="M2.3999 21.5999L2.40031 17.9995C2.40053 16.0114 4.01224 14.3999 6.00031 14.3999H13.1998M21.5999 16.6285L19.1999 19.1999M19.1999 19.1999L16.7999 16.6285M19.1999 19.1999V12.5999M17.3999 2.3999C18.8561 3.21618 19.7999 4.52478 19.7999 5.9999C19.7999 7.47502 18.8561 8.78362 17.3999 9.5999M14.3999 5.9999C14.3999 7.98813 12.7881 9.5999 10.7999 9.5999C8.81167 9.5999 7.1999 7.98813 7.1999 5.9999C7.1999 4.01168 8.81167 2.3999 10.7999 2.3999C12.7881 2.3999 14.3999 4.01168 14.3999 5.9999Z" stroke="#1D1D20" style="stroke:#1D1D20;stroke:color(display-p3 0.1148 0.1148 0.1252);stroke-opacity:1;" stroke-width="2" stroke-linecap="round" stroke-linejoin="round"/>
</svg>
