<svg width="24" height="24" viewBox="0 0 24 24" fill="none" xmlns="http://www.w3.org/2000/svg">
<path d="M1.3999 21.5998C1.39984 22.1521 1.84751 22.5998 2.39979 22.5999C2.95207 22.6 3.39984 22.1523 3.3999 21.6L2.3999 21.5999L1.3999 21.5998ZM2.40031 17.9995L3.40031 17.9996L2.40031 17.9995ZM13.1999 15.3999C13.7522 15.3999 14.1999 14.9522 14.1999 14.3999C14.1999 13.8476 13.7522 13.3999 13.1999 13.3999V14.3999V15.3999ZM20.8928 18.107C21.2833 18.4975 21.9165 18.4975 22.307 18.107C22.6975 17.7165 22.6975 17.0833 22.307 16.6928L21.5999 17.3999L20.8928 18.107ZM18.4886 12.8744C18.0981 12.4839 17.4649 12.4839 17.0744 12.8744C16.6839 13.2649 16.6839 13.8981 17.0744 14.2886L17.7815 13.5815L18.4886 12.8744ZM17.0745 16.6927C16.684 17.0832 16.684 17.7164 17.0745 18.1069C17.465 18.4974 18.0982 18.4974 18.4887 18.1069L17.7816 17.3998L17.0745 16.6927ZM22.3071 14.2885C22.6976 13.898 22.6976 13.2648 22.3071 12.8743C21.9166 12.4838 21.2834 12.4838 20.8929 12.8743L21.6 13.5814L22.3071 14.2885ZM14.3999 5.9999H13.3999C13.3999 7.43584 12.2358 8.5999 10.7999 8.5999V9.5999V10.5999C13.3404 10.5999 15.3999 8.54041 15.3999 5.9999H14.3999ZM10.7999 9.5999V8.5999C9.36396 8.5999 8.1999 7.43584 8.1999 5.9999H7.1999H6.1999C6.1999 8.54041 8.25939 10.5999 10.7999 10.5999V9.5999ZM7.1999 5.9999H8.1999C8.1999 4.56396 9.36396 3.3999 10.7999 3.3999V2.3999V1.3999C8.25939 1.3999 6.1999 3.45939 6.1999 5.9999H7.1999ZM10.7999 2.3999V3.3999C12.2358 3.3999 13.3999 4.56396 13.3999 5.9999H14.3999H15.3999C15.3999 3.45939 13.3404 1.3999 10.7999 1.3999V2.3999ZM2.3999 21.5999L3.3999 21.6L3.40031 17.9996L2.40031 17.9995L1.40031 17.9994L1.3999 21.5998L2.3999 21.5999ZM6.00031 14.3999V13.3999C3.46 13.3999 1.40059 15.4591 1.40031 17.9994L2.40031 17.9995L3.40031 17.9996C3.40047 16.5638 4.56448 15.3999 6.00031 15.3999V14.3999ZM6.00031 14.3999V15.3999H13.1999V14.3999V13.3999H6.00031V14.3999ZM21.5999 17.3999L22.307 16.6928L20.3978 14.7836L19.6907 15.4907L18.9836 16.1978L20.8928 18.107L21.5999 17.3999ZM19.6907 15.4907L20.3978 14.7836L18.4886 12.8744L17.7815 13.5815L17.0744 14.2886L18.9836 16.1978L19.6907 15.4907ZM17.7816 17.3998L18.4887 18.1069L20.3978 16.1978L19.6907 15.4907L18.9836 14.7836L17.0745 16.6927L17.7816 17.3998ZM19.6907 15.4907L20.3978 16.1978L22.3071 14.2885L21.6 13.5814L20.8929 12.8743L18.9836 14.7836L19.6907 15.4907Z" fill="#1D1D20" style="fill:#1D1D20;fill:color(display-p3 0.1148 0.1148 0.1252);fill-opacity:1;"/>
</svg>
