<svg width="24" height="24" viewBox="0 0 24 24" fill="none" xmlns="http://www.w3.org/2000/svg">
<path d="M21.5999 16.5599V17.5599C22.1522 17.5599 22.5999 17.1122 22.5999 16.5599H21.5999ZM21.5999 11.2799H22.5999C22.5999 10.7276 22.1522 10.2799 21.5999 10.2799V11.2799ZM7.13914 6.11872C6.67457 6.41737 6.54007 7.03608 6.83872 7.50065C7.13738 7.96522 7.75609 8.09972 8.22066 7.80107L7.6799 6.95989L7.13914 6.11872ZM14.3999 2.63989L15.1893 2.02595C14.8715 1.61741 14.2945 1.51883 13.8591 1.79871L14.3999 2.63989ZM16.9705 7.57383C17.3096 8.00978 17.9379 8.08832 18.3738 7.74925C18.8098 7.41018 18.8883 6.7819 18.5493 6.34595L17.7599 6.95989L16.9705 7.57383ZM21.5999 16.5599V15.5599H18.4799V16.5599V17.5599H21.5999V16.5599ZM18.4799 11.2799V12.2799H21.5999V11.2799V10.2799H18.4799V11.2799ZM21.5999 11.2799H20.5999V16.5599H21.5999H22.5999V11.2799H21.5999ZM15.8399 13.9199H16.8399C16.8399 13.0141 17.5742 12.2799 18.4799 12.2799V11.2799V10.2799C16.4696 10.2799 14.8399 11.9096 14.8399 13.9199H15.8399ZM18.4799 16.5599V15.5599C17.5742 15.5599 16.8399 14.8256 16.8399 13.9199H15.8399H14.8399C14.8399 15.9302 16.4696 17.5599 18.4799 17.5599V16.5599ZM7.6799 6.95989L8.22066 7.80107L14.9407 3.48107L14.3999 2.63989L13.8591 1.79871L7.13914 6.11872L7.6799 6.95989ZM14.3999 2.63989L13.6105 3.25383L16.9705 7.57383L17.7599 6.95989L18.5493 6.34595L15.1893 2.02595L14.3999 2.63989ZM3.3599 6.95989V7.95989H19.6799V6.95989V5.95989H3.3599V6.95989ZM19.6799 21.3599V20.3599H3.3599V21.3599V22.3599H19.6799V21.3599ZM2.3999 20.3999H3.3999V7.91989H2.3999H1.3999V20.3999H2.3999ZM3.3599 21.3599V20.3599C3.38199 20.3599 3.3999 20.3778 3.3999 20.3999H2.3999H1.3999C1.3999 21.4824 2.27742 22.3599 3.3599 22.3599V21.3599ZM20.6399 20.3999H19.6399C19.6399 20.3778 19.6578 20.3599 19.6799 20.3599V21.3599V22.3599C20.7624 22.3599 21.6399 21.4824 21.6399 20.3999H20.6399ZM19.6799 6.95989V7.95989C19.6578 7.95989 19.6399 7.94198 19.6399 7.91989H20.6399H21.6399C21.6399 6.83742 20.7624 5.95989 19.6799 5.95989V6.95989ZM3.3599 6.95989V5.95989C2.27742 5.95989 1.3999 6.83742 1.3999 7.91989H2.3999H3.3999C3.3999 7.94198 3.38199 7.95989 3.3599 7.95989V6.95989ZM20.6399 17.2799H19.6399V20.3999H20.6399H21.6399V17.2799H20.6399ZM20.6399 7.91989H19.6399V10.4399H20.6399H21.6399V7.91989H20.6399Z" fill="#1D1D20" style="fill:#1D1D20;fill:color(display-p3 0.1148 0.1148 0.1252);fill-opacity:1;"/>
</svg>
