<svg width="24" height="24" viewBox="0 0 24 24" fill="none" xmlns="http://www.w3.org/2000/svg">
<path d="M7.41679 20.8187C8.68581 21.0858 10.2612 21.244 11.9679 21.244C13.8033 21.244 15.4869 21.0611 16.8008 20.7565M3.88411 12.2616C5.59116 13.2412 8.57402 13.8902 11.9683 13.8902C15.3626 13.8902 18.3455 13.2412 20.0525 12.2616M5.3999 16.5563C6.78688 17.1642 9.21045 17.5669 11.9683 17.5669C14.7262 17.5669 17.1498 17.1642 18.5367 16.5563M21.5999 6.29319C21.5999 8.24653 17.3018 9.83003 11.9999 9.83003C6.69797 9.83003 2.3999 8.24653 2.3999 6.29319C2.3999 4.33985 6.69797 2.75635 11.9999 2.75635C17.3018 2.75635 21.5999 4.33985 21.5999 6.29319Z" stroke="#1D1D20" style="stroke:#1D1D20;stroke:color(display-p3 0.1148 0.1148 0.1252);stroke-opacity:1;" stroke-width="2" stroke-linecap="round"/>
</svg>
