<svg width="24" height="24" viewBox="0 0 24 24" fill="none" xmlns="http://www.w3.org/2000/svg">
<path d="M17.6223 16.3214C17.2253 15.9374 16.5922 15.9479 16.2082 16.3448C15.8242 16.7417 15.8347 17.3748 16.2317 17.7588L16.927 17.0401L17.6223 16.3214ZM19.7048 21.1188C20.1017 21.5028 20.7348 21.4923 21.1188 21.0954C21.5028 20.6985 21.4923 20.0654 21.0954 19.6814L20.4001 20.4001L19.7048 21.1188ZM10.4001 14.4001C10.4001 14.9524 10.8478 15.4001 11.4001 15.4001C11.9524 15.4001 12.4001 14.9524 12.4001 14.4001H11.4001H10.4001ZM12.4001 8.4001C12.4001 7.84781 11.9524 7.4001 11.4001 7.4001C10.8478 7.4001 10.4001 7.84781 10.4001 8.4001H11.4001H12.4001ZM8.4001 10.4001C7.84781 10.4001 7.4001 10.8478 7.4001 11.4001C7.4001 11.9524 7.84781 12.4001 8.4001 12.4001V11.4001V10.4001ZM14.4001 12.4001C14.9524 12.4001 15.4001 11.9524 15.4001 11.4001C15.4001 10.8478 14.9524 10.4001 14.4001 10.4001V11.4001V12.4001ZM19.2801 11.4401H18.2801C18.2801 15.2177 15.2177 18.2801 11.4401 18.2801V19.2801V20.2801C16.3223 20.2801 20.2801 16.3223 20.2801 11.4401H19.2801ZM11.4401 19.2801V18.2801C7.66247 18.2801 4.6001 15.2177 4.6001 11.4401H3.6001H2.6001C2.6001 16.3223 6.5579 20.2801 11.4401 20.2801V19.2801ZM3.6001 11.4401H4.6001C4.6001 7.66247 7.66247 4.6001 11.4401 4.6001V3.6001V2.6001C6.5579 2.6001 2.6001 6.5579 2.6001 11.4401H3.6001ZM11.4401 3.6001V4.6001C15.2177 4.6001 18.2801 7.66247 18.2801 11.4401H19.2801H20.2801C20.2801 6.5579 16.3223 2.6001 11.4401 2.6001V3.6001ZM16.927 17.0401L16.2317 17.7588L19.7048 21.1188L20.4001 20.4001L21.0954 19.6814L17.6223 16.3214L16.927 17.0401ZM11.4001 14.4001H12.4001V11.4001H11.4001H10.4001V14.4001H11.4001ZM11.4001 11.4001H12.4001V8.4001H11.4001H10.4001V11.4001H11.4001ZM8.4001 11.4001V12.4001H11.4001V11.4001V10.4001H8.4001V11.4001ZM11.4001 11.4001V12.4001H14.4001V11.4001V10.4001H11.4001V11.4001Z" fill="#1D1D20" style="fill:#1D1D20;fill:color(display-p3 0.1148 0.1148 0.1252);fill-opacity:1;"/>
</svg>
